<svg width="686" height="494" viewBox="0 0 686 494" fill="none" xmlns="http://www.w3.org/2000/svg">
<g clip-path="url(#clip0_2173_263519)" filter="url(#filter0_d_2173_263519)">
<path d="M588.287 11.8123L12.3561 158.158C11.2828 158.431 10.6329 159.526 10.9046 160.604L90.6912 477.183C90.963 478.261 92.0534 478.914 93.1268 478.641L669.058 332.295C670.131 332.023 670.781 330.927 670.509 329.849L590.723 13.2705C590.451 12.1924 589.36 11.5396 588.287 11.8123Z" fill="black"/>
<path d="M79.2973 446.653C77.639 447.074 75.9714 446.179 75.585 444.646L2.0112 152.718C1.62886 151.201 2.67154 149.617 4.32979 149.196L577.354 3.5885C579.031 3.16261 580.698 4.05802 581.08 5.57507L654.654 297.502C655.041 299.036 653.998 300.62 652.322 301.046L79.2973 446.653Z" fill="white"/>
<path d="M577.605 4.58347C578.675 4.31162 579.768 4.88439 580.015 5.86313L653.588 297.79C653.835 298.769 653.167 299.807 652.079 300.083L79.0548 445.69C77.985 445.962 76.9098 445.385 76.659 444.39L3.08114 152.446C2.83858 151.484 3.4889 150.451 4.57657 150.174L577.601 4.56716L577.605 4.58347ZM577.108 2.60967L4.08323 148.217C1.83656 148.788 0.423452 150.935 0.941462 152.99L74.5153 444.917C75.0374 446.989 77.3015 448.219 79.5482 447.648L652.573 302.041C654.837 301.465 656.268 299.314 655.742 297.226L582.168 5.2986C581.65 3.24323 579.39 2.02972 577.108 2.60967Z" fill="black"/>
<path d="M587.568 35.8343L10.6567 182.429L11.9928 187.73L588.904 41.1354L587.568 35.8343Z" fill="white"/>
<path d="M580.066 6.14533C579.796 5.07079 578.701 4.41525 577.631 4.6871L4.60663 150.294C3.53679 150.566 2.88425 151.666 3.15507 152.74L10.8868 183.418L587.78 36.8281L580.049 6.14987L580.066 6.14533Z" fill="#2D5FE2"/>
<path d="M587.541 35.7264L10.6294 182.321L11.1755 184.488L588.087 37.8934L587.541 35.7264Z" fill="black"/>
<path d="M96.0851 325.365C95.0153 325.637 94.3628 326.736 94.6336 327.811L95.6807 331.966C95.9515 333.04 97.0331 333.718 98.1208 333.442L274.359 288.659L272.328 280.6L96.0897 325.383L96.0851 325.365Z" fill="#CCCFE0"/>
<path d="M583.897 201.411C584.967 201.139 586.08 201.79 586.35 202.864L587.398 207.019C587.668 208.094 587.02 209.211 585.933 209.488L98.1209 333.442C97.0511 333.714 95.9562 333.058 95.6809 331.966L94.6337 327.811C94.3674 326.754 94.9976 325.641 96.0853 325.365L583.897 201.411ZM583.355 199.262L95.5437 323.216C93.297 323.787 91.9253 326.098 92.4941 328.355L93.5412 332.51C94.1144 334.784 96.4204 336.18 98.6671 335.609L586.479 211.655C588.743 211.079 590.133 208.763 589.555 206.471L588.508 202.316C587.939 200.06 585.638 198.682 583.355 199.262Z" fill="black"/>
<path d="M292.248 270.584L251.594 280.914C247.321 282 244.733 286.361 245.815 290.653L245.968 291.262C247.05 295.555 251.392 298.154 255.666 297.068L296.32 286.738C300.594 285.652 303.181 281.292 302.099 276.999L301.946 276.39C300.864 272.098 296.522 269.498 292.248 270.584Z" fill="#2D5FE2"/>
<path d="M292.248 270.584C296.51 269.501 300.867 272.11 301.946 276.39L302.099 276.999C303.178 281.279 300.581 285.655 296.32 286.738L255.666 297.068C251.404 298.151 247.047 295.542 245.968 291.262L245.815 290.653C244.736 286.373 247.333 281.997 251.595 280.914L292.248 270.584ZM291.702 268.417L251.048 278.747C245.592 280.134 242.276 285.721 243.657 291.201L243.811 291.81C245.192 297.29 250.756 300.622 256.212 299.235L296.866 288.905C302.322 287.518 305.638 281.931 304.257 276.451L304.103 275.842C302.722 270.362 297.158 267.03 291.702 268.417Z" fill="black"/>
<path d="M542.102 20.7471L518.976 26.6235L524.527 48.6517L547.654 42.7752L542.102 20.7471Z" fill="black"/>
<path d="M512.129 28.3633L489.002 34.2397L494.554 56.2679L517.681 50.3914L512.129 28.3633Z" fill="black"/>
<path d="M572.076 13.1309L548.949 19.0073L554.501 41.0355L577.627 35.159L572.076 13.1309Z" fill="black"/>
<path d="M539.192 18.685L516.065 24.5615L521.617 46.5897L544.744 40.7132L539.192 18.685Z" fill="#CCCFE0"/>
<path d="M538.415 36.6043L525.238 39.9526L525.734 41.9226L538.911 38.5743L538.415 36.6043Z" fill="black"/>
<path d="M509.219 26.3013L486.092 32.1777L491.644 54.2059L514.77 48.3294L509.219 26.3013Z" fill="#CCCFE0"/>
<path d="M486.092 32.1777L491.649 54.2238L493.539 53.7435L488.402 33.363L509.656 27.9623L509.236 26.2967L486.092 32.1777Z" fill="#E9EAF4"/>
<path d="M502.381 47.9521C498.155 49.0259 493.865 46.4572 492.795 42.2128C491.725 37.9683 494.3 33.6553 498.508 32.5861C502.716 31.5168 507.029 34.0988 508.094 38.3253C509.159 42.5519 506.589 46.8828 502.381 47.9521ZM499.005 34.5561C495.867 35.3535 493.962 38.5624 494.757 41.7144C495.551 44.8664 498.746 46.7795 501.884 45.9821C505.023 45.1846 506.927 41.9757 506.133 38.8237C505.338 35.6717 502.143 33.7586 499.005 34.5561Z" fill="black"/>
<path d="M569.165 11.0688L546.039 16.9453L551.591 38.9735L574.717 33.097L569.165 11.0688Z" fill="#FF7FA2"/>
<path d="M552.608 19.1904L551.572 20.936L568.101 30.8281L569.136 29.0825L552.608 19.1904Z" fill="black"/>
<path d="M564.45 16.2181L554.6 32.8154L556.338 33.856L566.188 17.2587L564.45 16.2181Z" fill="black"/>
<path d="M516.065 24.5615L521.622 46.6076L523.512 46.1273L518.375 25.7468L539.629 20.3461L539.21 18.6805L516.065 24.5615Z" fill="#E9EAF4"/>
<path d="M546.039 16.9453L551.595 38.9914L553.485 38.5111L548.349 18.1306L569.603 12.7299L569.183 11.0643L546.039 16.9453Z" fill="#E9EAF4"/>
<path d="M296.627 362.56C310.965 358.917 319.646 344.289 316.017 329.888C312.387 315.487 297.822 306.766 283.483 310.409C269.145 314.052 260.464 328.68 264.094 343.081C267.723 357.483 282.289 366.204 296.627 362.56Z" fill="black"/>
<path d="M293.387 360.392C307.065 356.916 315.347 342.962 311.884 329.223C308.422 315.485 294.526 307.165 280.848 310.641C267.17 314.116 258.888 328.071 262.35 341.81C265.813 355.548 279.708 363.868 293.387 360.392Z" fill="#5AFB38"/>
<path d="M280.848 310.641C294.524 307.165 308.422 315.487 311.884 329.223C315.346 342.959 307.063 356.917 293.386 360.392C279.71 363.867 265.812 355.546 262.35 341.81C258.888 328.073 267.172 314.116 280.848 310.641ZM280.302 308.474C265.466 312.243 256.451 327.435 260.211 342.353C263.97 357.272 279.097 366.329 293.933 362.559C308.768 358.789 317.801 343.593 314.041 328.675C310.282 313.756 295.154 304.699 280.302 308.474Z" fill="black"/>
<path d="M303.753 331.289L278.716 350.437L272.659 326.403L303.753 331.289Z" fill="black"/>
<path d="M364.383 345.343C378.721 341.7 387.403 327.072 383.773 312.67C380.144 298.269 365.578 289.548 351.24 293.192C336.902 296.835 328.221 311.463 331.85 325.864C335.48 340.265 350.045 348.986 364.383 345.343Z" fill="black"/>
<path d="M361.143 343.174C374.821 339.699 383.103 325.744 379.64 312.005C376.178 298.267 362.283 289.947 348.604 293.423C334.926 296.899 326.644 310.854 330.107 324.592C333.569 338.331 347.465 346.65 361.143 343.174Z" fill="#5AFB38"/>
<path d="M348.604 293.423C362.28 289.948 376.178 298.269 379.64 312.006C383.102 325.742 374.819 339.699 361.143 343.175C347.467 346.65 333.569 338.328 330.107 324.592C326.645 310.856 334.928 296.898 348.604 293.423ZM348.058 291.256C333.223 295.026 324.189 310.222 327.949 325.14C331.709 340.059 346.836 349.116 361.689 345.342C376.542 341.567 385.558 326.376 381.798 311.457C378.038 296.539 362.911 287.482 348.058 291.256Z" fill="black"/>
<path d="M347.288 305.363L341.528 306.826L348.57 334.764L354.329 333.301L347.288 305.363Z" fill="black"/>
<path d="M361.16 301.838L355.4 303.301L362.442 331.239L368.201 329.776L361.16 301.838Z" fill="black"/>
<path d="M227.793 374.296C238.743 371.514 245.373 360.342 242.601 349.343C239.829 338.345 228.705 331.684 217.754 334.467C206.804 337.249 200.174 348.421 202.946 359.42C205.718 370.418 216.842 377.079 227.793 374.296Z" fill="black"/>
<path d="M228.301 369.69C237.872 364.69 241.594 352.845 236.615 343.232C231.636 333.619 219.841 329.879 210.271 334.879C200.701 339.878 196.979 351.723 201.957 361.336C206.936 370.949 218.731 374.689 228.301 369.69Z" fill="#5AFB38"/>
<path d="M214.486 333.239C224.952 330.58 235.57 336.952 238.215 347.447C240.86 357.942 234.521 368.623 224.072 371.278C213.624 373.933 202.988 367.565 200.343 357.07C197.698 346.576 204.037 335.894 214.486 333.239ZM213.939 331.072C202.314 334.026 195.242 345.942 198.185 357.619C201.128 369.295 212.993 376.399 224.619 373.445C236.244 370.491 243.316 358.575 240.373 346.899C237.43 335.222 225.565 328.118 213.939 331.072Z" fill="black"/>
<path d="M219.539 352.612L232.116 361.04L226.7 339.549L219.539 352.612Z" fill="black"/>
<path d="M205.416 356.2L217.994 364.628L212.578 343.137L205.416 356.2Z" fill="black"/>
<path d="M437.807 320.75C448.757 317.967 455.387 306.795 452.615 295.796C449.843 284.798 438.719 278.137 427.769 280.92C416.818 283.702 410.188 294.874 412.96 305.873C415.732 316.872 426.856 323.532 437.807 320.75Z" fill="black"/>
<path d="M446.079 308.778C451.602 299.471 448.567 287.429 439.3 281.88C430.033 276.332 418.043 279.378 412.52 288.685C406.997 297.992 410.032 310.034 419.299 315.582C428.566 321.131 440.556 318.084 446.079 308.778Z" fill="#5AFB38"/>
<path d="M424.5 279.693C434.966 277.033 445.584 283.406 448.229 293.9C450.874 304.395 444.535 315.077 434.087 317.732C423.638 320.387 413.002 314.019 410.357 303.524C407.712 293.029 414.051 282.348 424.5 279.693ZM423.954 277.526C412.328 280.48 405.257 292.395 408.199 304.072C411.142 315.749 423.007 322.853 434.633 319.899C446.258 316.945 453.33 305.029 450.387 293.352C447.444 281.676 435.579 274.572 423.954 277.526Z" fill="black"/>
<path d="M429.392 299.106L422.321 312.527L416.904 291.036L429.392 299.106Z" fill="black"/>
<path d="M443.514 295.518L436.443 308.939L431.026 287.448L443.514 295.518Z" fill="black"/>
<path d="M85.2812 290.704L95.9083 288.003L100.611 306.665L89.9844 309.365L85.2812 290.704ZM97.305 304.837L93.8656 291.19L88.5521 292.54L91.9914 306.187L97.305 304.837Z" fill="black"/>
<path d="M99.7676 292.701L102.317 292.053L102.967 294.632L100.418 295.28L99.7676 292.701ZM103.126 306.026L102.476 303.447L105.026 302.799L105.675 305.378L103.126 306.026Z" fill="black"/>
<path d="M104.235 285.887L114.862 283.187L119.566 301.848L108.939 304.548L104.235 285.887ZM116.259 300.02L112.82 286.374L107.506 287.724L110.946 301.371L116.259 300.02Z" fill="black"/>
<path d="M117.376 282.548L128.004 279.847L132.707 298.509L122.08 301.209L117.376 282.548ZM129.4 296.681L125.961 283.034L120.647 284.385L124.087 298.031L129.4 296.681Z" fill="black"/>
<path d="M534.222 176.626L544.849 173.926L546.194 179.263L543.52 179.942L542.807 177.113L537.529 178.454L538.928 184.006L546.88 181.985L549.548 192.569L538.921 195.27L537.576 189.933L540.25 189.253L540.959 192.065L546.237 190.724L544.833 185.154L536.881 187.175L534.218 176.608L534.222 176.626Z" fill="black"/>
<path d="M548.708 178.624L551.24 177.981L551.89 180.56L549.358 181.203L548.708 178.624ZM552.067 191.948L551.417 189.369L553.949 188.726L554.599 191.305L552.067 191.948Z" fill="black"/>
<path d="M553.176 171.81L563.803 169.11L568.506 187.771L557.879 190.471L553.176 171.81ZM565.2 185.943L561.761 172.297L556.447 173.647L559.886 187.294L565.2 185.943Z" fill="black"/>
<path d="M566.299 168.476L576.926 165.775L581.63 184.436L571.002 187.137L566.299 168.476ZM570.987 175.86L576.301 174.509L574.902 168.958L569.588 170.308L570.987 175.86ZM578.336 182.586L576.933 177.017L571.619 178.367L573.023 183.937L578.336 182.586Z" fill="black"/>
<path d="M574.774 63.4959L594.336 141.114C594.607 142.188 593.959 143.306 592.871 143.582L62.9255 278.243C61.8557 278.515 60.7608 277.859 60.4855 276.767L40.9236 199.149C40.6573 198.092 41.2875 196.979 42.3752 196.703L572.321 62.0422C573.391 61.7704 574.503 62.4214 574.774 63.4959Z" fill="#CCCFE0"/>
<path d="M572.321 62.0422C573.391 61.7703 574.503 62.4213 574.774 63.4959L594.336 141.114C594.607 142.188 593.941 143.31 592.871 143.582L62.9257 278.243C61.8559 278.515 60.761 277.859 60.4857 276.767L40.9238 199.149C40.6575 198.092 41.2877 196.979 42.3753 196.703L572.321 62.0422ZM571.779 59.8931L41.8337 194.554C39.587 195.125 38.2154 197.436 38.7841 199.692L58.346 277.31C58.9192 279.585 61.2252 280.981 63.4718 280.41L593.417 145.749C595.682 145.174 597.071 142.858 596.494 140.566L576.932 62.9476C576.363 60.6911 574.061 59.3132 571.779 59.8931Z" fill="black"/>
<path d="M62.5023 244.946C60.9689 245.335 59.4048 244.399 59.0166 242.859L55.1304 227.439C54.7422 225.899 55.6744 224.328 57.2079 223.938C58.7413 223.549 60.3054 224.485 60.6936 226.025L64.5798 241.445C64.9679 242.985 64.0357 244.556 62.5023 244.946Z" fill="#FC4198"/>
<path d="M70.3416 245.335C68.8082 245.725 67.2441 244.789 66.8559 243.248L61.8413 223.351C61.4532 221.811 62.3854 220.24 63.9188 219.851C65.4522 219.461 67.0163 220.398 67.4045 221.938L72.4191 241.835C72.8073 243.375 71.8751 244.946 70.3416 245.335Z" fill="#FC4198"/>
<path d="M78.8624 248.43C77.329 248.819 75.7649 247.883 75.3767 246.343L67.8706 216.56C67.4825 215.02 68.4147 213.449 69.9481 213.059C71.4815 212.67 73.0456 213.606 73.4338 215.146L80.9399 244.929C81.3281 246.469 80.3959 248.04 78.8624 248.43Z" fill="#FC4198"/>
<path d="M83.2666 235.267C81.7332 235.657 80.1691 234.72 79.7809 233.18L77.98 226.035C77.5918 224.494 78.524 222.924 80.0575 222.534C81.5909 222.144 83.155 223.081 83.5432 224.621L85.3441 231.767C85.7323 233.307 84.8001 234.878 83.2666 235.267Z" fill="#FC4198"/>
<path d="M91.3406 236.588C89.8072 236.978 88.2431 236.042 87.8549 234.501L84.4517 220.998C84.0635 219.458 84.9957 217.887 86.5291 217.497C88.0626 217.108 89.6267 218.044 90.0148 219.584L93.4181 233.088C93.8063 234.628 92.8741 236.199 91.3406 236.588Z" fill="#FC4198"/>
<path d="M100.128 240.74C98.5942 241.129 97.0301 240.193 96.642 238.653L90.2237 213.186C89.8355 211.646 90.7677 210.075 92.3011 209.685C93.8346 209.296 95.3987 210.232 95.7868 211.772L102.205 237.239C102.593 238.779 101.661 240.35 100.128 240.74Z" fill="#FC4198"/>
<path d="M111.677 255.927C110.144 256.317 108.579 255.38 108.191 253.84L93.1836 194.292C92.7954 192.752 93.7276 191.181 95.2611 190.792C96.7945 190.402 98.3586 191.339 98.7468 192.879L113.754 252.426C114.143 253.967 113.21 255.537 111.677 255.927Z" fill="#FC4198"/>
<path d="M118.23 251.213C116.696 251.603 115.132 250.666 114.744 249.126L101.181 195.309C100.793 193.769 101.725 192.198 103.258 191.809C104.792 191.419 106.356 192.356 106.744 193.896L120.307 247.713C120.695 249.253 119.763 250.824 118.23 251.213Z" fill="#FC4198"/>
<path d="M124.728 246.284C123.195 246.674 121.631 245.737 121.243 244.197L109.228 196.523C108.839 194.983 109.772 193.412 111.305 193.023C112.838 192.633 114.403 193.57 114.791 195.11L126.806 242.784C127.194 244.324 126.262 245.895 124.728 246.284Z" fill="#FC4198"/>
<path d="M131.241 241.485C129.707 241.875 128.143 240.938 127.755 239.398L117.23 197.634C116.841 196.094 117.774 194.523 119.307 194.134C120.84 193.744 122.405 194.68 122.793 196.221L133.318 237.985C133.707 239.525 132.774 241.095 131.241 241.485Z" fill="#FC4198"/>
<path d="M141.468 251.349C139.934 251.739 138.37 250.802 137.982 249.262L121.562 184.109C121.173 182.569 122.106 180.998 123.639 180.608C125.172 180.218 126.737 181.155 127.125 182.695L143.545 247.848C143.933 249.389 143.001 250.959 141.468 251.349Z" fill="#FC4198"/>
<path d="M147.777 245.668C146.243 246.057 144.679 245.121 144.291 243.581L129.798 186.075C129.41 184.534 130.342 182.964 131.875 182.574C133.409 182.184 134.973 183.121 135.361 184.661L149.854 242.167C150.242 243.707 149.31 245.278 147.777 245.668Z" fill="#FC4198"/>
<path d="M155.467 245.543C153.934 245.933 152.37 244.996 151.981 243.456L136.622 182.512C136.233 180.971 137.166 179.401 138.699 179.011C140.232 178.621 141.797 179.558 142.185 181.098L157.545 242.043C157.933 243.583 157 245.154 155.467 245.543Z" fill="#FC4198"/>
<path d="M161.595 239.145C160.062 239.535 158.498 238.599 158.109 237.058L145.038 185.194C144.65 183.654 145.582 182.083 147.116 181.693C148.649 181.303 150.213 182.24 150.601 183.78L163.673 235.645C164.061 237.185 163.129 238.756 161.595 239.145Z" fill="#FC4198"/>
<path d="M164.614 220.409C163.08 220.799 161.516 219.862 161.128 218.322L156.569 200.234C156.181 198.694 157.113 197.123 158.647 196.733C160.18 196.343 161.744 197.28 162.133 198.82L166.691 216.908C167.079 218.448 166.147 220.019 164.614 220.409Z" fill="#FC4198"/>
<path d="M170.232 211.987C168.699 212.377 167.135 211.441 166.747 209.9L165.505 204.975C165.117 203.435 166.049 201.864 167.583 201.475C169.116 201.085 170.68 202.022 171.069 203.562L172.31 208.487C172.698 210.027 171.766 211.598 170.232 211.987Z" fill="#FC4198"/>
<path d="M178.297 213.349C176.764 213.739 175.2 212.802 174.812 211.262L171.955 199.926C171.566 198.385 172.499 196.815 174.032 196.425C175.566 196.035 177.13 196.972 177.518 198.512L180.375 209.848C180.763 211.389 179.831 212.959 178.297 213.349Z" fill="#FC4198"/>
<path d="M191.39 234.586C189.857 234.975 188.293 234.039 187.905 232.499L173.412 174.993C173.023 173.452 173.956 171.882 175.489 171.492C177.023 171.102 178.587 172.039 178.975 173.579L193.468 231.085C193.856 232.625 192.924 234.196 191.39 234.586Z" fill="#FC4198"/>
<path d="M197.776 229.209C196.243 229.599 194.679 228.662 194.291 227.122L181.571 176.654C181.183 175.114 182.115 173.543 183.649 173.154C185.182 172.764 186.746 173.7 187.134 175.241L199.854 225.708C200.242 227.249 199.31 228.819 197.776 229.209Z" fill="#FC4198"/>
<path d="M203.936 223.013C202.403 223.403 200.839 222.466 200.451 220.926L189.925 179.162C189.537 177.622 190.469 176.051 192.002 175.661C193.536 175.272 195.1 176.208 195.488 177.748L206.014 219.512C206.402 221.053 205.47 222.623 203.936 223.013Z" fill="#FC4198"/>
<path d="M214.163 232.877C212.63 233.266 211.065 232.33 210.677 230.79L194.257 165.637C193.869 164.096 194.801 162.526 196.334 162.136C197.868 161.746 199.432 162.683 199.82 164.223L216.24 229.376C216.629 230.916 215.696 232.487 214.163 232.877Z" fill="#FC4198"/>
<path d="M220.793 228.467C219.259 228.857 217.695 227.92 217.307 226.38L202.173 166.331C201.785 164.791 202.717 163.22 204.25 162.83C205.784 162.441 207.348 163.377 207.736 164.917L222.87 224.966C223.258 226.507 222.326 228.077 220.793 228.467Z" fill="#FC4198"/>
<path d="M228.695 229.184C227.162 229.574 225.598 228.637 225.21 227.097L208.789 161.944C208.401 160.404 209.333 158.833 210.867 158.443C212.4 158.053 213.964 158.99 214.352 160.53L230.773 225.683C231.161 227.224 230.229 228.794 228.695 229.184Z" fill="#FC4198"/>
<path d="M233.61 217.969C232.076 218.359 230.512 217.422 230.124 215.882L218.425 169.462C218.037 167.922 218.969 166.351 220.502 165.961C222.036 165.572 223.6 166.508 223.988 168.048L235.687 214.469C236.075 216.009 235.143 217.579 233.61 217.969Z" fill="#FC4198"/>
<path d="M239.873 212.109C238.34 212.499 236.776 211.562 236.388 210.022L226.71 171.625C226.322 170.085 227.254 168.514 228.788 168.124C230.321 167.735 231.885 168.671 232.274 170.211L241.951 208.608C242.339 210.149 241.407 211.719 239.873 212.109Z" fill="#FC4198"/>
<path d="M240.632 172.661C240.243 171.118 238.683 170.184 237.146 170.574C235.61 170.964 234.68 172.532 235.069 174.075L242.575 203.857C242.964 205.4 244.524 206.335 246.061 205.944C247.597 205.554 248.527 203.987 248.138 202.444L240.632 172.661Z" fill="#FC4198"/>
<path d="M251.634 197.42C250.1 197.81 248.536 196.873 248.148 195.333L244.014 178.929C243.626 177.388 244.558 175.818 246.091 175.428C247.625 175.038 249.189 175.975 249.577 177.515L253.711 193.92C254.099 195.46 253.167 197.031 251.634 197.42Z" fill="#FC4198"/>
<path d="M257.081 188.319C255.548 188.708 253.983 187.772 253.595 186.232L253.112 184.315C252.724 182.775 253.656 181.204 255.19 180.815C256.723 180.425 258.287 181.362 258.676 182.902L259.158 184.818C259.547 186.358 258.614 187.929 257.081 188.319Z" fill="#FC4198"/>
<path d="M264.974 188.924C263.441 189.313 261.877 188.377 261.489 186.837L259.773 180.031C259.385 178.491 260.317 176.92 261.851 176.53C263.384 176.141 264.948 177.077 265.337 178.618L267.052 185.423C267.44 186.963 266.508 188.534 264.974 188.924Z" fill="#FC4198"/>
<path d="M271.45 183.981C269.917 184.371 268.353 183.434 267.965 181.894L267.811 181.285C267.423 179.745 268.355 178.174 269.889 177.784C271.422 177.395 272.986 178.331 273.374 179.871L273.528 180.48C273.916 182.021 272.984 183.591 271.45 183.981Z" fill="#FC4198"/>
<path d="M284.263 204.107C282.73 204.497 281.166 203.56 280.778 202.02L269.548 157.462C269.16 155.922 270.092 154.351 271.625 153.962C273.159 153.572 274.723 154.508 275.111 156.049L286.341 200.606C286.729 202.147 285.797 203.717 284.263 204.107Z" fill="#FC4198"/>
<path d="M294.134 212.556C292.6 212.946 291.036 212.009 290.648 210.469L274.228 145.316C273.839 143.776 274.772 142.205 276.305 141.815C277.838 141.426 279.403 142.362 279.791 143.902L296.211 209.055C296.599 210.596 295.667 212.166 294.134 212.556Z" fill="#FC4198"/>
<path d="M300.66 207.811C299.126 208.2 297.562 207.264 297.174 205.724L282.216 146.373C281.828 144.833 282.76 143.262 284.293 142.872C285.827 142.483 287.391 143.419 287.779 144.959L302.737 204.31C303.125 205.85 302.193 207.421 300.66 207.811Z" fill="#FC4198"/>
<path d="M307.384 203.777C305.851 204.167 304.287 203.23 303.898 201.69L290.037 146.691C289.649 145.151 290.581 143.58 292.115 143.191C293.648 142.801 295.212 143.737 295.6 145.278L309.462 200.276C309.85 201.817 308.917 203.387 307.384 203.777Z" fill="#FC4198"/>
<path d="M313.756 198.347C312.223 198.737 310.659 197.8 310.271 196.26L298.219 148.443C297.831 146.903 298.763 145.332 300.297 144.942C301.83 144.552 303.394 145.489 303.782 147.029L315.834 194.846C316.222 196.387 315.29 197.957 313.756 198.347Z" fill="#FC4198"/>
<path d="M316.879 180.022C315.345 180.412 313.781 179.475 313.393 177.935L309.638 163.035C309.25 161.494 310.182 159.924 311.715 159.534C313.249 159.144 314.813 160.081 315.201 161.621L318.956 176.521C319.344 178.061 318.412 179.632 316.879 180.022Z" fill="#FC4198"/>
<path d="M326.853 188.959C325.319 189.349 323.755 188.412 323.367 186.872L314.187 150.445C313.798 148.905 314.731 147.334 316.264 146.945C317.797 146.555 319.362 147.491 319.75 149.032L328.93 185.459C329.319 186.999 328.386 188.57 326.853 188.959Z" fill="#FC4198"/>
<path d="M336.782 197.641C335.248 198.031 333.684 197.094 333.296 195.554L318.803 138.048C318.415 136.508 319.347 134.937 320.88 134.548C322.414 134.158 323.978 135.094 324.366 136.635L338.859 194.141C339.247 195.681 338.315 197.252 336.782 197.641Z" fill="#FC4198"/>
<path d="M345.023 199.625C343.489 200.015 341.925 199.078 341.537 197.538L325.117 132.385C324.729 130.844 325.661 129.274 327.194 128.884C328.728 128.494 330.292 129.431 330.68 130.971L347.1 196.124C347.488 197.664 346.556 199.235 345.023 199.625Z" fill="#FC4198"/>
<path d="M350.822 191.996C349.288 192.386 347.724 191.45 347.336 189.909L333.827 136.307C333.439 134.767 334.371 133.197 335.904 132.807C337.438 132.417 339.002 133.354 339.39 134.894L352.899 188.496C353.287 190.036 352.355 191.607 350.822 191.996Z" fill="#FC4198"/>
<path d="M357.194 186.566C355.66 186.955 354.096 186.019 353.708 184.479L342.009 138.058C341.621 136.518 342.553 134.947 344.086 134.558C345.62 134.168 347.184 135.105 347.572 136.645L359.271 183.065C359.659 184.605 358.727 186.176 357.194 186.566Z" fill="#FC4198"/>
<path d="M363.386 180.419C361.852 180.809 360.288 179.872 359.9 178.332L350.367 140.508C349.979 138.968 350.911 137.397 352.445 137.008C353.978 136.618 355.542 137.554 355.93 139.095L365.463 176.919C365.851 178.459 364.919 180.03 363.386 180.419Z" fill="#FC4198"/>
<path d="M371.491 181.942C369.958 182.332 368.394 181.395 368.006 179.855L356.776 135.297C356.388 133.757 357.32 132.186 358.853 131.797C360.387 131.407 361.951 132.343 362.339 133.884L373.569 178.441C373.957 179.982 373.025 181.552 371.491 181.942Z" fill="#FC4198"/>
<path d="M380.22 185.86C378.686 186.25 377.122 185.314 376.734 183.773L362.588 127.646C362.2 126.106 363.132 124.535 364.666 124.146C366.199 123.756 367.763 124.693 368.152 126.233L382.297 182.36C382.685 183.9 381.753 185.471 380.22 185.86Z" fill="#FC4198"/>
<path d="M385.369 175.576C383.835 175.966 382.271 175.03 381.883 173.489L371.998 134.268C371.61 132.728 372.542 131.157 374.076 130.768C375.609 130.378 377.173 131.315 377.561 132.855L387.446 172.076C387.834 173.616 386.902 175.187 385.369 175.576Z" fill="#FC4198"/>
<path d="M385.653 134.248C385.264 132.705 383.704 131.771 382.167 132.161C380.631 132.551 379.701 134.119 380.09 135.661L388.336 168.381C388.725 169.924 390.286 170.859 391.822 170.468C393.358 170.078 394.288 168.511 393.899 166.968L385.653 134.248Z" fill="#FC4198"/>
<path d="M397.793 163.52C396.259 163.91 394.695 162.974 394.307 161.433L388.633 138.922C388.245 137.382 389.177 135.811 390.711 135.421C392.244 135.031 393.808 135.968 394.196 137.508L399.87 160.02C400.258 161.56 399.326 163.131 397.793 163.52Z" fill="#FC4198"/>
<path d="M408.082 173.635C406.549 174.025 404.985 173.088 404.597 171.548L392.897 125.128C392.509 123.588 393.442 122.017 394.975 121.627C396.508 121.238 398.072 122.174 398.461 123.714L410.16 170.135C410.548 171.675 409.616 173.246 408.082 173.635Z" fill="#FC4198"/>
<path d="M417.718 181.153C416.185 181.542 414.621 180.606 414.232 179.066L397.812 113.912C397.424 112.372 398.356 110.801 399.889 110.412C401.423 110.022 402.987 110.959 403.375 112.499L419.796 177.652C420.184 179.192 419.252 180.763 417.718 181.153Z" fill="#FC4198"/>
<path d="M417.018 147.735C415.485 148.125 413.921 147.188 413.532 145.648L413.027 143.642C412.639 142.102 413.571 140.531 415.104 140.142C416.638 139.752 418.202 140.689 418.59 142.229L419.096 144.235C419.484 145.775 418.552 147.346 417.018 147.735Z" fill="#FC4198"/>
<path d="M424.974 148.591C423.441 148.98 421.877 148.044 421.489 146.504L419.611 139.054C419.223 137.513 420.155 135.943 421.688 135.553C423.222 135.163 424.786 136.1 425.174 137.64L427.052 145.09C427.44 146.63 426.508 148.201 424.974 148.591Z" fill="#FC4198"/>
<path d="M433.432 151.434C431.899 151.824 430.334 150.887 429.946 149.347L425.708 132.531C425.32 130.99 426.252 129.42 427.785 129.03C429.319 128.64 430.883 129.577 431.271 131.117L435.509 147.934C435.898 149.474 434.965 151.045 433.432 151.434Z" fill="#FC4198"/>
<path d="M445.202 167.5C443.669 167.889 442.105 166.953 441.717 165.413L428.456 112.796C428.067 111.256 429 109.685 430.533 109.295C432.067 108.905 433.631 109.842 434.019 111.382L447.28 163.999C447.668 165.539 446.736 167.11 445.202 167.5Z" fill="#FC4198"/>
<path d="M451.462 161.621C449.928 162.011 448.364 161.074 447.976 159.534L436.746 114.976C436.358 113.436 437.29 111.865 438.824 111.476C440.357 111.086 441.921 112.023 442.309 113.563L453.539 158.121C453.927 159.661 452.995 161.232 451.462 161.621Z" fill="#FC4198"/>
<path d="M459.053 161.026C457.519 161.416 455.955 160.479 455.567 158.939L443.701 111.856C443.313 110.316 444.245 108.745 445.778 108.356C447.312 107.966 448.876 108.903 449.264 110.443L461.13 157.526C461.518 159.066 460.586 160.637 459.053 161.026Z" fill="#FC4198"/>
<path d="M467.465 163.691C465.932 164.081 464.368 163.144 463.98 161.604L449.834 105.477C449.446 103.937 450.378 102.366 451.911 101.976C453.445 101.587 455.009 102.523 455.397 104.063L469.543 160.19C469.931 161.731 468.999 163.301 467.465 163.691Z" fill="#FC4198"/>
<path d="M474.284 160.11C472.751 160.499 471.187 159.563 470.799 158.023L457.538 105.406C457.149 103.865 458.082 102.295 459.615 101.905C461.149 101.515 462.713 102.452 463.101 103.992L476.362 156.609C476.75 158.149 475.818 159.72 474.284 160.11Z" fill="#FC4198"/>
<path d="M483.139 164.529C481.606 164.919 480.042 163.982 479.653 162.442L463.233 97.2889C462.845 95.7488 463.777 94.178 465.31 93.7883C466.844 93.3987 468.408 94.3351 468.796 95.8753L485.217 161.029C485.605 162.569 484.673 164.14 483.139 164.529Z" fill="#FC4198"/>
<path d="M488.229 154.013C486.696 154.402 485.132 153.466 484.744 151.926L472.692 104.108C472.304 102.568 473.236 100.997 474.77 100.608C476.303 100.218 477.867 101.154 478.256 102.695L490.307 150.512C490.695 152.052 489.763 153.623 488.229 154.013Z" fill="#FC4198"/>
<path d="M496.389 155.751C494.855 156.14 493.291 155.204 492.903 153.664L479.042 98.6649C478.654 97.1247 479.586 95.5539 481.119 95.1643C482.653 94.7746 484.217 95.7111 484.605 97.2513L498.466 152.25C498.855 153.79 497.922 155.361 496.389 155.751Z" fill="#FC4198"/>
<path d="M504.946 158.988C503.412 159.378 501.848 158.441 501.46 156.901L485.04 91.7479C484.651 90.2077 485.584 88.6369 487.117 88.2473C488.65 87.8576 490.215 88.7941 490.603 90.3343L507.023 155.488C507.411 157.028 506.479 158.599 504.946 158.988Z" fill="#FC4198"/>
<path d="M504.439 126.265C502.906 126.654 501.342 125.718 500.954 124.177L500.096 120.775C499.708 119.235 500.64 117.664 502.174 117.274C503.707 116.884 505.271 117.821 505.659 119.361L506.517 122.764C506.905 124.304 505.973 125.875 504.439 126.265Z" fill="#FC4198"/>
<path d="M512.821 128.88C511.287 129.269 509.723 128.333 509.335 126.793L506.23 114.471C505.841 112.931 506.774 111.36 508.307 110.97C509.84 110.581 511.405 111.517 511.793 113.057L514.898 125.379C515.286 126.919 514.354 128.49 512.821 128.88Z" fill="#FC4198"/>
<path d="M519.423 124.363C517.889 124.752 516.325 123.816 515.937 122.276L514.167 115.255C513.779 113.715 514.712 112.144 516.245 111.755C517.778 111.365 519.343 112.301 519.731 113.842L521.5 120.862C521.888 122.402 520.956 123.973 519.423 124.363Z" fill="#FC4198"/>
<path d="M527.546 125.881C526.013 126.271 524.449 125.334 524.06 123.794L520.603 110.076C520.215 108.535 521.147 106.965 522.681 106.575C524.214 106.185 525.778 107.122 526.166 108.662L529.624 122.38C530.012 123.92 529.08 125.491 527.546 125.881Z" fill="#FC4198"/>
<path d="M537.037 132.826C535.504 133.215 533.94 132.279 533.552 130.739L525.653 99.3978C525.265 97.8576 526.197 96.2868 527.73 95.8972C529.264 95.5075 530.828 96.444 531.216 97.9842L539.115 129.325C539.503 130.865 538.571 132.436 537.037 132.826Z" fill="#FC4198"/>
<path d="M546.456 139.56C544.923 139.95 543.359 139.013 542.971 137.473L530.752 88.993C530.364 87.4529 531.296 85.8821 532.83 85.4924C534.363 85.1028 535.927 86.0392 536.316 87.5794L548.534 136.059C548.922 137.599 547.99 139.17 546.456 139.56Z" fill="#FC4198"/>
<path d="M555.834 146.057C554.301 146.447 552.737 145.51 552.349 143.97L535.928 78.8168C535.54 77.2766 536.472 75.7058 538.006 75.3161C539.539 74.9265 541.103 75.863 541.491 77.4032L557.912 142.556C558.3 144.097 557.368 145.667 555.834 146.057Z" fill="#FC4198"/>
<path d="M559.197 128.682C557.663 129.071 556.099 128.135 555.711 126.595L547.108 92.4598C546.72 90.9197 547.652 89.3489 549.185 88.9592C550.719 88.5696 552.283 89.506 552.671 91.0462L561.274 125.181C561.662 126.721 560.73 128.292 559.197 128.682Z" fill="#FC4198"/>
<path d="M564.038 117.256C562.505 117.646 560.941 116.709 560.553 115.169L556.779 100.197C556.391 98.657 557.323 97.0862 558.857 96.6965C560.39 96.3069 561.954 97.2433 562.342 98.7835L566.116 113.756C566.504 115.296 565.572 116.866 564.038 117.256Z" fill="#FC4198"/>
<path d="M571.372 115.64C569.839 116.03 568.275 115.094 567.887 113.553L564.001 98.1337C563.612 96.5935 564.545 95.0227 566.078 94.633C567.611 94.2434 569.176 95.1799 569.564 96.72L573.45 112.14C573.838 113.68 572.906 115.251 571.372 115.64Z" fill="#FC4198"/>
<path d="M577.135 107.792C575.602 108.182 574.038 107.245 573.65 105.705L572.792 102.302C572.404 100.762 573.336 99.1911 574.869 98.8015C576.403 98.4118 577.967 99.3483 578.355 100.889L579.213 104.291C579.601 105.831 578.669 107.402 577.135 107.792Z" fill="#FC4198"/>
</g>
<defs>
<filter id="filter0_d_2173_263519" x="0" y="0" width="686.001" height="496.056" filterUnits="userSpaceOnUse" color-interpolation-filters="sRGB">
<feFlood flood-opacity="0" result="BackgroundImageFix"/>
<feColorMatrix in="SourceAlpha" type="matrix" values="0 0 0 0 0 0 0 0 0 0 0 0 0 0 0 0 0 0 127 0" result="hardAlpha"/>
<feOffset dx="15" dy="15"/>
<feComposite in2="hardAlpha" operator="out"/>
<feColorMatrix type="matrix" values="0 0 0 0 0 0 0 0 0 0 0 0 0 0 0 0 0 0 1 0"/>
<feBlend mode="normal" in2="BackgroundImageFix" result="effect1_dropShadow_2173_263519"/>
<feBlend mode="normal" in="SourceGraphic" in2="effect1_dropShadow_2173_263519" result="shape"/>
</filter>
<clipPath id="clip0_2173_263519">
<rect width="606.045" height="342.177" fill="white" transform="matrix(0.9692 -0.246276 0.244386 0.969678 0 149.254)"/>
</clipPath>
</defs>
</svg>
