<svg width="583" height="342" viewBox="0 0 583 342" fill="none" xmlns="http://www.w3.org/2000/svg">
<g id="Group 112">
<g id="Frame">
<rect width="571.938" height="307.068" transform="matrix(1 0 -0.0210065 0.999779 6.4502 34.9771)" fill="black"/>
<path id="Vector" d="M3.99421 341.962C2.34629 341.962 1.0264 340.687 1.05954 339.11L7.36913 38.8129C7.40192 37.2523 8.7754 35.9771 10.4233 35.9771H579.878C581.543 35.9771 582.863 37.2523 582.83 38.8129L576.521 339.11C576.488 340.687 575.114 341.962 573.449 341.962H3.99421Z" fill="white"/>
</g>
<path id="Vector_2" d="M581.726 32.0322H8.40918L8.2946 37.4853H581.611L581.726 32.0322Z" fill="white"/>
<path id="Vector_3" d="M582.608 2.00806C582.631 0.902704 581.781 0 580.717 0H10.7165C9.6523 0 8.76424 0.902704 8.74101 2.00806L8.07794 33.5658H581.927L582.59 2.00806H582.608Z" fill="#2D5FE2"/>
<path id="Vector_4" d="M582.287 31.9702H8.96973L8.92289 34.1993H582.24L582.287 31.9702Z" fill="black"/>
<path id="Vector_5" d="M541.095 222.03C542.158 222.03 543.025 222.932 543.002 224.038L542.912 228.312C542.889 229.417 542.001 230.338 540.921 230.338H56.1483C55.0851 230.338 54.2358 229.435 54.2594 228.312L54.3492 224.038C54.3721 222.951 55.242 222.03 56.3229 222.03H541.095ZM541.142 219.819H56.3693C54.1366 219.819 52.2717 221.716 52.2229 224.038L52.1331 228.312C52.0839 230.651 53.8688 232.567 56.1015 232.567H540.874C543.124 232.567 545.007 230.67 545.056 228.312L545.146 224.038C545.195 221.716 543.41 219.819 541.142 219.819Z" fill="black"/>
<g id="Group 111">
<path id="Vector_6" d="M99.4842 218.205L59.0838 218.074C54.8366 218.06 51.3068 221.629 51.1997 226.044L51.1845 226.67C51.0775 231.086 54.4338 234.676 58.681 234.69L99.0814 234.821C103.329 234.834 106.858 231.266 106.965 226.851L106.981 226.224C107.088 221.809 103.731 218.218 99.4842 218.205Z" fill="#2D5FE2"/>
<path id="Vector_7" d="M99.4834 218.205C103.718 218.218 107.087 221.822 106.98 226.224L106.965 226.851C106.858 231.253 103.316 234.834 99.0806 234.821L58.6802 234.69C54.4452 234.676 51.077 231.073 51.1837 226.67L51.1989 226.044C51.3057 221.642 54.8481 218.061 59.083 218.074L99.4834 218.205ZM99.5375 215.976L59.1371 215.845C53.7149 215.828 49.1915 220.4 49.0549 226.037L49.0397 226.664C48.903 232.3 53.204 236.902 58.6261 236.919L99.0265 237.05C104.449 237.067 108.972 232.495 109.109 226.858L109.124 226.231C109.261 220.594 104.96 215.993 99.5375 215.976Z" fill="black"/>
</g>
<g id="Group">
<g id="Group_2">
<path id="Vector_8" d="M550.477 5.68506H527.495L527.019 28.3448H550.001L550.477 5.68506Z" fill="black"/>
<path id="Vector_9" d="M520.691 5.68506H497.709L497.233 28.3448H520.215L520.691 5.68506Z" fill="black"/>
<path id="Vector_10" d="M580.264 5.68506H557.282L556.806 28.3448H579.788L580.264 5.68506Z" fill="black"/>
</g>
<g id="Group_3">
<path id="Vector_11" d="M548.302 2.97705H525.319L524.843 25.6368H547.826L548.302 2.97705Z" fill="#CCCFE0"/>
<path id="Vector_12" d="M542.998 20.1099H529.903L529.861 22.1363H542.956L542.998 20.1099Z" fill="black"/>
</g>
<g id="Group_4">
<path id="Vector_13" d="M518.515 2.97705H495.533L495.057 25.6368H518.039L518.515 2.97705Z" fill="#CCCFE0"/>
<path id="Vector_14" d="M495.533 2.97705L495.057 25.6552H496.935L497.375 4.69035H518.497L518.533 2.97705H495.533Z" fill="#E9EAF4"/>
<path id="Vector_15" d="M506.629 22.2284C502.429 22.2284 499.102 18.6913 499.193 14.3251C499.285 9.959 502.779 6.42188 506.961 6.42188C511.143 6.42188 514.488 9.97742 514.397 14.3251C514.305 18.6729 510.811 22.2284 506.629 22.2284ZM506.919 8.44835C503.8 8.44835 501.211 11.0828 501.142 14.3251C501.074 17.5675 503.553 20.2019 506.672 20.2019C509.79 20.2019 512.379 17.5675 512.448 14.3251C512.516 11.0828 510.037 8.44835 506.919 8.44835Z" fill="black"/>
</g>
<g id="Group_5">
<path id="Vector_16" d="M578.089 2.97705H555.106L554.63 25.6368H577.613L578.089 2.97705Z" fill="#FF7FA2"/>
<g id="Group_6">
<path id="Vector_17" d="M560.634 6.76163L559.226 8.19482L572.048 21.8184L573.456 20.3852L560.634 6.76163Z" fill="black"/>
<path id="Vector_18" d="M572.392 6.79646L559 20.4224L560.348 21.8553L573.74 8.22939L572.392 6.79646Z" fill="black"/>
</g>
</g>
<path id="Vector_19" d="M525.319 2.97705L524.843 25.6552H526.721L527.162 4.69035H548.283L548.319 2.97705H525.319Z" fill="#E9EAF4"/>
<path id="Vector_20" d="M555.106 2.97705L554.63 25.6552H556.508L556.949 4.69035H578.07L578.106 2.97705H555.106Z" fill="#E9EAF4"/>
</g>
<g id="Group_7">
<g id="Group_8">
<path id="Vector_21" d="M59.2546 315.276C73.5033 315.276 85.3066 303.267 85.6179 288.453C85.9291 273.639 74.6305 261.63 60.3817 261.63C46.1329 261.63 34.3297 273.639 34.0184 288.453C33.7072 303.267 45.0058 315.276 59.2546 315.276Z" fill="black"/>
<path id="Vector_22" d="M56.7989 312.384C70.392 312.384 81.6521 300.927 81.9491 286.795C82.246 272.663 71.4673 261.206 57.8742 261.206C44.2811 261.206 33.021 272.663 32.7241 286.795C32.4271 300.927 43.2058 312.384 56.7989 312.384Z" fill="#5AFB38"/>
<path id="Vector_23" d="M57.8746 261.206C71.4655 261.206 82.2464 272.665 81.9495 286.795C81.6526 300.925 70.3902 312.384 56.7993 312.384C43.2084 312.384 32.4276 300.925 32.7245 286.795C33.0214 272.665 44.2837 261.206 57.8746 261.206ZM57.9215 258.977C43.1788 258.977 30.9206 271.449 30.5981 286.795C30.2757 302.141 42.0098 314.613 56.7525 314.613C71.4952 314.613 83.7711 302.141 84.0935 286.795C84.416 271.449 72.6819 258.977 57.9215 258.977Z" fill="black"/>
</g>
<path id="Vector_24" d="M73.8692 286.795L45.7188 299.157L46.2383 274.434L73.8692 286.795Z" fill="black"/>
</g>
<g id="Group_9">
<g id="Group_10">
<path id="Vector_25" d="M131.272 315.276C145.521 315.276 157.324 303.267 157.635 288.453C157.947 273.639 146.648 261.63 132.399 261.63C118.151 261.63 106.347 273.639 106.036 288.453C105.725 303.267 117.023 315.276 131.272 315.276Z" fill="black"/>
<path id="Vector_26" d="M128.817 312.384C142.411 312.384 153.671 300.927 153.968 286.795C154.265 272.663 143.486 261.206 129.893 261.206C116.3 261.206 105.04 272.663 104.743 286.795C104.446 300.927 115.224 312.384 128.817 312.384Z" fill="#5AFB38"/>
<path id="Vector_27" d="M129.892 261.206C143.483 261.206 154.264 272.665 153.967 286.795C153.67 300.925 142.408 312.384 128.817 312.384C115.226 312.384 104.445 300.925 104.742 286.795C105.039 272.665 116.301 261.206 129.892 261.206ZM129.939 258.977C115.196 258.977 102.921 271.449 102.598 286.795C102.276 302.141 114.01 314.613 128.77 314.613C143.531 314.613 155.789 302.141 156.111 286.795C156.434 271.449 144.7 258.977 129.939 258.977Z" fill="black"/>
</g>
<g id="Group_11">
<path id="Vector_28" d="M125.617 272.425H119.894L119.29 301.164H125.013L125.617 272.425Z" fill="black"/>
<path id="Vector_29" d="M139.403 272.425H133.68L133.076 301.164H138.799L139.403 272.425Z" fill="black"/>
</g>
</g>
<g id="Group_12">
<g id="Group_13">
<path id="Vector_30" d="M485.406 309.883C496.288 309.883 505.303 300.711 505.54 289.397C505.778 278.083 497.149 268.911 486.267 268.911C475.384 268.911 466.37 278.083 466.132 289.397C465.894 300.711 474.523 309.883 485.406 309.883Z" fill="black"/>
<path id="Vector_31" d="M487.056 305.555C497.224 303.073 503.71 292.535 501.543 282.019C499.377 271.503 489.378 264.99 479.211 267.472C469.044 269.954 462.558 280.491 464.724 291.007C466.891 301.524 476.889 308.037 487.056 305.555Z" fill="#5AFB38"/>
<path id="Vector_32" d="M483.544 266.922C493.946 266.922 502.178 275.691 501.951 286.486C501.725 297.282 493.106 306.051 482.722 306.051C472.339 306.051 464.088 297.282 464.315 286.486C464.542 275.691 473.161 266.922 483.544 266.922ZM483.591 264.692C472.038 264.692 462.423 274.475 462.171 286.486C461.919 298.498 471.122 308.28 482.675 308.28C494.229 308.28 503.843 298.498 504.096 286.486C504.348 274.475 495.144 264.692 483.591 264.692Z" fill="black"/>
</g>
<g id="Group_14">
<path id="Vector_33" d="M483.284 286.892L492.812 298.129L493.276 276.022L483.284 286.892Z" fill="black"/>
<path id="Vector_34" d="M469.25 286.892L478.778 298.129L479.242 276.022L469.25 286.892Z" fill="black"/>
</g>
</g>
<g id="Group_15">
<g id="Group_16">
<path id="Vector_35" d="M538.467 311.022C549.35 311.022 558.364 301.85 558.602 290.536C558.84 279.222 550.211 270.05 539.328 270.05C528.446 270.05 519.431 279.222 519.194 290.536C518.956 301.85 527.585 311.022 538.467 311.022Z" fill="black"/>
<path id="Vector_36" d="M549.212 301.48C556.721 293.84 556.982 281.452 549.793 273.812C542.605 266.171 530.69 266.171 523.18 273.812C515.671 281.452 515.41 293.84 522.599 301.48C529.787 309.121 541.702 309.121 549.212 301.48Z" fill="#5AFB38"/>
<path id="Vector_37" d="M536.606 268.061C547.007 268.061 555.24 276.83 555.013 287.625C554.786 298.421 546.167 307.19 535.784 307.19C525.4 307.19 517.15 298.421 517.377 287.625C517.603 276.83 526.222 268.061 536.606 268.061ZM536.653 265.832C525.1 265.832 515.485 275.614 515.233 287.625C514.98 299.637 524.184 309.419 535.737 309.419C547.29 309.419 556.905 299.637 557.157 287.625C557.409 275.614 548.206 265.832 536.653 265.832Z" fill="black"/>
</g>
<g id="Group_17">
<path id="Vector_38" d="M536.186 288.03L526.187 299.268L526.651 277.161L536.186 288.03Z" fill="black"/>
<path id="Vector_39" d="M550.221 288.03L540.221 299.268L540.686 277.161L550.221 288.03Z" fill="black"/>
</g>
</g>
<g id="Group_18">
<path id="Vector_40" d="M559.418 89.196L557.74 169.039C557.717 170.145 556.829 171.066 555.748 171.066H29.1046C28.0414 171.066 27.1921 170.163 27.2158 169.039L28.8934 89.196C28.9162 88.1091 29.7861 87.188 30.867 87.188H557.511C558.574 87.188 559.441 88.0907 559.418 89.196Z" fill="#CCCFE0"/>
<path id="Vector_41" d="M557.51 87.1878C558.573 87.1878 559.441 88.0905 559.417 89.1958L557.74 169.039C557.716 170.144 556.811 171.066 555.748 171.066H29.1044C28.0413 171.066 27.192 170.163 27.2156 169.039L28.8932 89.1958C28.916 88.1089 29.7859 87.1878 30.8668 87.1878H557.51ZM557.557 84.9771H30.9133C28.6806 84.9771 26.8156 86.8746 26.7668 89.1958L25.0892 169.039C25.0401 171.379 26.8249 173.295 29.0576 173.295H555.701C557.951 173.295 559.834 171.397 559.884 169.039L561.561 89.1958C561.61 86.8746 559.825 84.9771 557.557 84.9771Z" fill="black"/>
<g id="Group_19">
<path id="Vector_42" d="M37.2252 138.771C35.7014 138.771 34.4881 137.481 34.5214 135.897L34.8547 120.035C34.8879 118.451 36.1554 117.161 37.6793 117.161C39.2032 117.161 40.4164 118.451 40.3832 120.035L40.0499 135.897C40.0166 137.481 38.7491 138.771 37.2252 138.771Z" fill="#FC4198"/>
<path id="Vector_43" d="M44.4068 141.074C42.8829 141.074 41.6696 139.784 41.7029 138.2L42.133 117.732C42.1663 116.148 43.4337 114.858 44.9576 114.858C46.4815 114.858 47.6948 116.148 47.6615 117.732L47.2314 138.2C47.1981 139.784 45.9307 141.074 44.4068 141.074Z" fill="#FC4198"/>
<path id="Vector_44" d="M51.5291 146.158C50.0052 146.158 48.7919 144.868 48.8252 143.284L49.4689 112.647C49.5022 111.063 50.7697 109.773 52.2936 109.773C53.8174 109.773 55.0307 111.063 54.9974 112.647L54.3537 143.284C54.3204 144.868 53.053 146.158 51.5291 146.158Z" fill="#FC4198"/>
<path id="Vector_45" d="M58.9861 134.515C57.4622 134.515 56.249 133.225 56.2822 131.641L56.4367 124.29C56.47 122.706 57.7374 121.417 59.2613 121.417C60.7852 121.417 61.9985 122.706 61.9652 124.29L61.8108 131.641C61.7775 133.225 60.51 134.515 58.9861 134.515Z" fill="#FC4198"/>
<path id="Vector_46" d="M66.1466 137.776C64.6227 137.776 63.4094 136.486 63.4427 134.902L63.7345 121.011C63.7678 119.427 65.0353 118.137 66.5592 118.137C68.0831 118.137 69.2963 119.427 69.263 121.011L68.9712 134.902C68.9379 136.486 67.6704 137.776 66.1466 137.776Z" fill="#FC4198"/>
<path id="Vector_47" d="M73.2474 143.948C71.7235 143.948 70.5102 142.658 70.5435 141.074L71.0939 114.877C71.1272 113.293 72.3947 112.003 73.9185 112.003C75.4424 112.003 76.6557 113.293 76.6224 114.877L76.072 141.074C76.0387 142.658 74.7712 143.948 73.2474 143.948Z" fill="#FC4198"/>
<path id="Vector_48" d="M80.0908 161.467C78.5669 161.467 77.3537 160.177 77.387 158.593L78.674 97.3383C78.7073 95.7539 79.9747 94.4644 81.4986 94.4644C83.0225 94.4644 84.2358 95.7539 84.2025 97.3383L82.9155 158.593C82.8822 160.177 81.6147 161.467 80.0908 161.467Z" fill="#FC4198"/>
<path id="Vector_49" d="M87.3817 158.52C85.8578 158.52 84.6445 157.23 84.6778 155.646L85.841 100.286C85.8743 98.7017 87.1417 97.4121 88.6656 97.4121C90.1895 97.4121 91.4028 98.7017 91.3695 100.286L90.2063 155.646C90.173 157.23 88.9056 158.52 87.3817 158.52Z" fill="#FC4198"/>
<path id="Vector_50" d="M94.6785 155.351C93.1546 155.351 91.9414 154.062 91.9746 152.477L93.005 103.436C93.0383 101.852 94.3058 100.562 95.8297 100.562C97.3536 100.562 98.5668 101.852 98.5336 103.436L97.5031 152.477C97.4699 154.062 96.2024 155.351 94.6785 155.351Z" fill="#FC4198"/>
<path id="Vector_51" d="M101.954 152.311C100.43 152.311 99.2165 151.022 99.2498 149.437L100.153 106.476C100.186 104.892 101.453 103.602 102.977 103.602C104.501 103.602 105.714 104.892 105.681 106.476L104.778 149.437C104.745 151.022 103.478 152.311 101.954 152.311Z" fill="#FC4198"/>
<path id="Vector_52" d="M108.931 164.36C107.407 164.36 106.193 163.07 106.227 161.486L107.635 94.4647C107.668 92.8804 108.936 91.5908 110.46 91.5908C111.983 91.5908 113.197 92.8804 113.163 94.4647L111.755 161.486C111.722 163.07 110.454 164.36 108.931 164.36Z" fill="#FC4198"/>
<path id="Vector_53" d="M116.243 160.417C114.719 160.417 113.506 159.128 113.539 157.543L114.782 98.3886C114.816 96.8042 116.083 95.5146 117.607 95.5146C119.131 95.5146 120.344 96.8042 120.311 98.3886L119.068 157.543C119.035 159.128 117.767 160.417 116.243 160.417Z" fill="#FC4198"/>
<path id="Vector_54" d="M123.418 162.186C121.894 162.186 120.681 160.896 120.714 159.312L122.031 96.62C122.065 95.0357 123.332 93.7461 124.856 93.7461C126.38 93.7461 127.593 95.0357 127.56 96.62L126.243 159.312C126.209 160.896 124.942 162.186 123.418 162.186Z" fill="#FC4198"/>
<path id="Vector_55" d="M130.745 157.506C129.221 157.506 128.008 156.217 128.041 154.632L129.162 101.281C129.196 99.6963 130.463 98.4067 131.987 98.4067C133.511 98.4067 134.724 99.6963 134.691 101.281L133.57 154.632C133.537 156.217 132.269 157.506 130.745 157.506Z" fill="#FC4198"/>
<path id="Vector_56" d="M138.34 140.134C136.817 140.134 135.603 138.844 135.637 137.26L136.028 118.653C136.061 117.069 137.328 115.779 138.852 115.779C140.376 115.779 141.589 117.069 141.556 118.653L141.165 137.26C141.132 138.844 139.864 140.134 138.34 140.134Z" fill="#FC4198"/>
<path id="Vector_57" d="M145.712 133.373C144.188 133.373 142.975 132.084 143.008 130.499L143.114 125.433C143.148 123.849 144.415 122.559 145.939 122.559C147.463 122.559 148.676 123.849 148.643 125.433L148.536 130.499C148.503 132.084 147.236 133.373 145.712 133.373Z" fill="#FC4198"/>
<path id="Vector_58" d="M152.855 136.671C151.331 136.671 150.117 135.381 150.151 133.797L150.396 122.135C150.429 120.551 151.696 119.261 153.22 119.261C154.744 119.261 155.957 120.551 155.924 122.135L155.679 133.797C155.646 135.381 154.378 136.671 152.855 136.671Z" fill="#FC4198"/>
<path id="Vector_59" d="M159.585 160.417C158.061 160.417 156.848 159.128 156.881 157.543L158.124 98.3886C158.157 96.8042 159.425 95.5146 160.949 95.5146C162.473 95.5146 163.686 96.8042 163.653 98.3886L162.41 157.543C162.376 159.128 161.109 160.417 159.585 160.417Z" fill="#FC4198"/>
<path id="Vector_60" d="M166.891 156.788C165.367 156.788 164.153 155.498 164.187 153.914L165.278 101.999C165.311 100.415 166.578 99.1255 168.102 99.1255C169.626 99.1255 170.839 100.415 170.806 101.999L169.715 153.914C169.682 155.498 168.414 156.788 166.891 156.788Z" fill="#FC4198"/>
<path id="Vector_61" d="M174.197 152.311C172.673 152.311 171.46 151.022 171.493 149.437L172.396 106.476C172.429 104.892 173.696 103.602 175.22 103.602C176.744 103.602 177.957 104.892 177.924 106.476L177.022 149.437C176.988 151.022 175.721 152.311 174.197 152.311Z" fill="#FC4198"/>
<path id="Vector_62" d="M181.173 164.36C179.649 164.36 178.436 163.07 178.469 161.486L179.877 94.4647C179.91 92.8804 181.178 91.5908 182.702 91.5908C184.226 91.5908 185.439 92.8804 185.406 94.4647L183.997 161.486C183.964 163.07 182.697 164.36 181.173 164.36Z" fill="#FC4198"/>
<path id="Vector_63" d="M188.458 161.725C186.934 161.725 185.721 160.436 185.754 158.851L187.052 97.0805C187.085 95.4961 188.353 94.2065 189.877 94.2065C191.4 94.2065 192.614 95.4961 192.58 97.0805L191.283 158.851C191.249 160.436 189.982 161.725 188.458 161.725Z" fill="#FC4198"/>
<path id="Vector_64" d="M195.614 164.36C194.09 164.36 192.877 163.07 192.91 161.486L194.319 94.4647C194.352 92.8804 195.619 91.5908 197.143 91.5908C198.667 91.5908 199.88 92.8804 199.847 94.4647L198.439 161.486C198.406 163.07 197.138 164.36 195.614 164.36Z" fill="#FC4198"/>
<path id="Vector_65" d="M203.046 154.725C201.523 154.725 200.309 153.435 200.343 151.851L201.346 104.1C201.379 102.515 202.647 101.226 204.17 101.226C205.694 101.226 206.908 102.515 206.874 104.1L205.871 151.851C205.838 153.435 204.57 154.725 203.046 154.725Z" fill="#FC4198"/>
<path id="Vector_66" d="M210.363 150.598C208.84 150.598 207.626 149.308 207.66 147.724L208.489 108.226C208.523 106.642 209.79 105.352 211.314 105.352C212.838 105.352 214.051 106.642 214.018 108.226L213.188 147.724C213.155 149.308 211.887 150.598 210.363 150.598Z" fill="#FC4198"/>
<path id="Vector_67" d="M221.155 112.647C221.188 111.06 219.977 109.773 218.451 109.773C216.924 109.773 215.659 111.06 215.626 112.647L214.982 143.284C214.949 144.871 216.16 146.158 217.686 146.158C219.213 146.158 220.478 144.871 220.511 143.284L221.155 112.647Z" fill="#FC4198"/>
<path id="Vector_68" d="M225.042 139.286C223.518 139.286 222.305 137.997 222.338 136.413L222.693 119.537C222.726 117.953 223.993 116.664 225.517 116.664C227.041 116.664 228.254 117.953 228.221 119.537L227.866 136.413C227.833 137.997 226.566 139.286 225.042 139.286Z" fill="#FC4198"/>
<path id="Vector_69" d="M232.428 131.825C230.904 131.825 229.691 130.536 229.724 128.952L229.766 126.98C229.799 125.396 231.067 124.106 232.59 124.106C234.114 124.106 235.328 125.396 235.294 126.98L235.253 128.952C235.22 130.536 233.952 131.825 232.428 131.825Z" fill="#FC4198"/>
<path id="Vector_70" d="M239.605 134.349C238.081 134.349 236.868 133.06 236.901 131.476L237.048 124.475C237.081 122.891 238.349 121.601 239.873 121.601C241.397 121.601 242.61 122.891 242.577 124.475L242.429 131.476C242.396 133.06 241.129 134.349 239.605 134.349Z" fill="#FC4198"/>
<path id="Vector_71" d="M246.884 131.162C245.36 131.162 244.147 129.873 244.18 128.288L244.194 127.662C244.227 126.078 245.494 124.788 247.018 124.788C248.542 124.788 249.755 126.078 249.722 127.662L249.709 128.288C249.676 129.873 248.408 131.162 246.884 131.162Z" fill="#FC4198"/>
<path id="Vector_72" d="M253.638 153.767C252.115 153.767 250.901 152.477 250.935 150.893L251.898 105.058C251.931 103.473 253.198 102.184 254.722 102.184C256.246 102.184 257.459 103.473 257.426 105.058L256.463 150.893C256.43 152.477 255.162 153.767 253.638 153.767Z" fill="#FC4198"/>
<path id="Vector_73" d="M260.645 164.36C259.122 164.36 257.908 163.07 257.942 161.486L259.35 94.4647C259.383 92.8804 260.651 91.5908 262.174 91.5908C263.698 91.5908 264.912 92.8804 264.878 94.4647L263.47 161.486C263.437 163.07 262.169 164.36 260.645 164.36Z" fill="#FC4198"/>
<path id="Vector_74" d="M267.92 161.375C266.396 161.375 265.183 160.086 265.216 158.501L266.499 97.4491C266.532 95.8648 267.8 94.5752 269.324 94.5752C270.848 94.5752 272.061 95.8648 272.028 97.4491L270.745 158.501C270.712 160.086 269.444 161.375 267.92 161.375Z" fill="#FC4198"/>
<path id="Vector_75" d="M275.197 159.128C273.673 159.128 272.46 157.838 272.493 156.254L273.682 99.6781C273.715 98.0938 274.983 96.8042 276.506 96.8042C278.03 96.8042 279.244 98.0938 279.21 99.6781L278.022 156.254C277.988 157.838 276.721 159.128 275.197 159.128Z" fill="#FC4198"/>
<path id="Vector_76" d="M282.504 155.443C280.98 155.443 279.766 154.154 279.8 152.569L280.833 103.381C280.866 101.797 282.134 100.507 283.658 100.507C285.182 100.507 286.395 101.797 286.362 103.381L285.328 152.569C285.295 154.154 284.027 155.443 282.504 155.443Z" fill="#FC4198"/>
<path id="Vector_77" d="M290.09 138.494C288.566 138.494 287.353 137.205 287.386 135.62L287.708 120.293C287.741 118.709 289.009 117.419 290.533 117.419C292.057 117.419 293.27 118.709 293.237 120.293L292.915 135.62C292.881 137.205 291.614 138.494 290.09 138.494Z" fill="#FC4198"/>
<path id="Vector_78" d="M297.068 149.584C295.544 149.584 294.331 148.295 294.364 146.711L295.152 109.239C295.185 107.655 296.452 106.365 297.976 106.365C299.5 106.365 300.713 107.655 300.68 109.239L299.893 146.711C299.859 148.295 298.592 149.584 297.068 149.584Z" fill="#FC4198"/>
<path id="Vector_79" d="M304.07 160.417C302.547 160.417 301.333 159.128 301.367 157.543L302.61 98.3886C302.643 96.8042 303.91 95.5146 305.434 95.5146C306.958 95.5146 308.171 96.8042 308.138 98.3886L306.895 157.543C306.862 159.128 305.594 160.417 304.07 160.417Z" fill="#FC4198"/>
<path id="Vector_80" d="M311.218 164.36C309.694 164.36 308.481 163.07 308.514 161.486L309.922 94.4647C309.955 92.8804 311.223 91.5908 312.747 91.5908C314.271 91.5908 315.484 92.8804 315.451 94.4647L314.042 161.486C314.009 163.07 312.742 164.36 311.218 164.36Z" fill="#FC4198"/>
<path id="Vector_81" d="M318.554 158.409C317.03 158.409 315.817 157.119 315.85 155.535L317.009 100.396C317.042 98.812 318.31 97.5225 319.834 97.5225C321.357 97.5225 322.571 98.812 322.537 100.396L321.379 155.535C321.346 157.119 320.078 158.409 318.554 158.409Z" fill="#FC4198"/>
<path id="Vector_82" d="M325.861 154.725C324.337 154.725 323.124 153.435 323.157 151.851L324.16 104.1C324.194 102.515 325.461 101.226 326.985 101.226C328.509 101.226 329.722 102.515 329.689 104.1L328.686 151.851C328.652 153.435 327.385 154.725 325.861 154.725Z" fill="#FC4198"/>
<path id="Vector_83" d="M333.183 150.303C331.66 150.303 330.446 149.014 330.48 147.429L331.297 108.521C331.33 106.937 332.598 105.647 334.122 105.647C335.646 105.647 336.859 106.937 336.826 108.521L336.008 147.429C335.975 149.014 334.707 150.303 333.183 150.303Z" fill="#FC4198"/>
<path id="Vector_84" d="M340.323 153.767C338.799 153.767 337.586 152.477 337.619 150.893L338.582 105.058C338.615 103.473 339.883 102.184 341.407 102.184C342.931 102.184 344.144 103.473 344.111 105.058L343.148 150.893C343.114 152.477 341.847 153.767 340.323 153.767Z" fill="#FC4198"/>
<path id="Vector_85" d="M347.427 159.699C345.904 159.699 344.69 158.409 344.724 156.825L345.937 99.0888C345.97 97.5044 347.237 96.2148 348.761 96.2148C350.285 96.2148 351.498 97.5044 351.465 99.0888L350.252 156.825C350.219 158.409 348.951 159.699 347.427 159.699Z" fill="#FC4198"/>
<path id="Vector_86" d="M354.84 151.022C353.316 151.022 352.103 149.732 352.136 148.148L352.984 107.803C353.017 106.218 354.284 104.929 355.808 104.929C357.332 104.929 358.545 106.218 358.512 107.803L357.664 148.148C357.631 149.732 356.364 151.022 354.84 151.022Z" fill="#FC4198"/>
<path id="Vector_87" d="M365.671 111.137C365.705 109.55 364.494 108.263 362.967 108.263C361.441 108.263 360.176 109.55 360.143 111.137L359.436 144.795C359.402 146.382 360.613 147.669 362.139 147.669C363.666 147.669 364.931 146.382 364.964 144.795L365.671 111.137Z" fill="#FC4198"/>
<path id="Vector_88" d="M369.462 142.418C367.938 142.418 366.724 141.129 366.758 139.544L367.244 116.387C367.278 114.803 368.545 113.513 370.069 113.513C371.593 113.513 372.806 114.803 372.773 116.387L372.286 139.544C372.253 141.129 370.985 142.418 369.462 142.418Z" fill="#FC4198"/>
<path id="Vector_89" d="M376.433 154.725C374.909 154.725 373.696 153.435 373.729 151.851L374.733 104.1C374.766 102.515 376.033 101.226 377.557 101.226C379.081 101.226 380.294 102.515 380.261 104.1L379.258 151.851C379.224 153.435 377.957 154.725 376.433 154.725Z" fill="#FC4198"/>
<path id="Vector_90" d="M383.46 164.36C381.936 164.36 380.723 163.07 380.756 161.486L382.164 94.4647C382.198 92.8804 383.465 91.5908 384.989 91.5908C386.513 91.5908 387.726 92.8804 387.693 94.4647L386.285 161.486C386.251 163.07 384.984 164.36 383.46 164.36Z" fill="#FC4198"/>
<path id="Vector_91" d="M391.354 131.88C389.83 131.88 388.617 130.591 388.65 129.007L388.694 126.943C388.727 125.359 389.994 124.069 391.518 124.069C393.042 124.069 394.255 125.359 394.222 126.943L394.179 129.007C394.145 130.591 392.878 131.88 391.354 131.88Z" fill="#FC4198"/>
<path id="Vector_92" d="M398.525 134.663C397.002 134.663 395.788 133.373 395.822 131.789L395.983 124.125C396.016 122.541 397.283 121.251 398.807 121.251C400.331 121.251 401.544 122.541 401.511 124.125L401.35 131.789C401.317 133.373 400.049 134.663 398.525 134.663Z" fill="#FC4198"/>
<path id="Vector_93" d="M405.654 139.489C404.13 139.489 402.917 138.199 402.95 136.615L403.314 119.316C403.347 117.732 404.614 116.442 406.138 116.442C407.662 116.442 408.875 117.732 408.842 119.316L408.479 136.615C408.445 138.199 407.178 139.489 405.654 139.489Z" fill="#FC4198"/>
<path id="Vector_94" d="M412.478 157.912C410.954 157.912 409.741 156.622 409.774 155.038L410.911 100.912C410.945 99.3282 412.212 98.0386 413.736 98.0386C415.26 98.0386 416.473 99.3282 416.44 100.912L415.303 155.038C415.269 156.622 414.002 157.912 412.478 157.912Z" fill="#FC4198"/>
<path id="Vector_95" d="M419.795 153.767C418.271 153.767 417.058 152.477 417.091 150.893L418.054 105.058C418.087 103.473 419.355 102.184 420.879 102.184C422.402 102.184 423.616 103.473 423.582 105.058L422.619 150.893C422.586 152.477 421.319 153.767 419.795 153.767Z" fill="#FC4198"/>
<path id="Vector_96" d="M426.998 155.056C425.474 155.056 424.261 153.767 424.294 152.182L425.312 103.749C425.345 102.165 426.612 100.875 428.136 100.875C429.66 100.875 430.873 102.165 430.84 103.749L429.823 152.182C429.789 153.767 428.522 155.056 426.998 155.056Z" fill="#FC4198"/>
<path id="Vector_97" d="M434.13 159.699C432.606 159.699 431.392 158.409 431.426 156.825L432.639 99.0888C432.672 97.5044 433.94 96.2148 435.463 96.2148C436.987 96.2148 438.201 97.5044 438.167 99.0888L436.954 156.825C436.921 158.409 435.653 159.699 434.13 159.699Z" fill="#FC4198"/>
<path id="Vector_98" d="M441.379 157.912C439.855 157.912 438.642 156.622 438.675 155.038L439.813 100.912C439.846 99.3282 441.113 98.0386 442.637 98.0386C444.161 98.0386 445.374 99.3282 445.341 100.912L444.204 155.038C444.171 156.622 442.903 157.912 441.379 157.912Z" fill="#FC4198"/>
<path id="Vector_99" d="M448.473 164.36C446.949 164.36 445.735 163.07 445.769 161.486L447.177 94.4647C447.21 92.8804 448.478 91.5908 450.002 91.5908C451.525 91.5908 452.739 92.8804 452.705 94.4647L451.297 161.486C451.264 163.07 449.997 164.36 448.473 164.36Z" fill="#FC4198"/>
<path id="Vector_100" d="M455.89 155.443C454.366 155.443 453.153 154.154 453.186 152.569L454.22 103.381C454.253 101.797 455.521 100.507 457.045 100.507C458.568 100.507 459.782 101.797 459.748 103.381L458.715 152.569C458.682 154.154 457.414 155.443 455.89 155.443Z" fill="#FC4198"/>
<path id="Vector_101" d="M463.024 159.128C461.5 159.128 460.287 157.838 460.32 156.254L461.509 99.6781C461.542 98.0938 462.81 96.8042 464.334 96.8042C465.857 96.8042 467.071 98.0938 467.038 99.6781L465.849 156.254C465.815 157.838 464.548 159.128 463.024 159.128Z" fill="#FC4198"/>
<path id="Vector_102" d="M470.144 164.36C468.621 164.36 467.407 163.07 467.441 161.486L468.849 94.4647C468.882 92.8804 470.15 91.5908 471.673 91.5908C473.197 91.5908 474.411 92.8804 474.377 94.4647L472.969 161.486C472.936 163.07 471.668 164.36 470.144 164.36Z" fill="#FC4198"/>
<path id="Vector_103" d="M478.041 132.599C476.517 132.599 475.303 131.31 475.337 129.725L475.41 126.225C475.444 124.641 476.711 123.351 478.235 123.351C479.759 123.351 480.972 124.641 480.939 126.225L480.865 129.725C480.832 131.31 479.565 132.599 478.041 132.599Z" fill="#FC4198"/>
<path id="Vector_104" d="M485.156 137.186C483.633 137.186 482.419 135.897 482.453 134.312L482.719 121.638C482.752 120.053 484.02 118.764 485.544 118.764C487.067 118.764 488.281 120.053 488.247 121.638L487.981 134.312C487.948 135.897 486.68 137.186 485.156 137.186Z" fill="#FC4198"/>
<path id="Vector_105" d="M492.444 134.441C490.92 134.441 489.707 133.152 489.74 131.567L489.892 124.346C489.925 122.761 491.193 121.472 492.716 121.472C494.24 121.472 495.454 122.761 495.42 124.346L495.269 131.567C495.235 133.152 493.968 134.441 492.444 134.441Z" fill="#FC4198"/>
<path id="Vector_106" d="M499.601 137.905C498.077 137.905 496.864 136.615 496.897 135.031L497.194 120.919C497.227 119.335 498.494 118.045 500.018 118.045C501.542 118.045 502.755 119.335 502.722 120.919L502.426 135.031C502.392 136.615 501.125 137.905 499.601 137.905Z" fill="#FC4198"/>
<path id="Vector_107" d="M506.64 146.95C505.116 146.95 503.903 145.661 503.936 144.076L504.613 111.837C504.647 110.252 505.914 108.963 507.438 108.963C508.962 108.963 510.175 110.252 510.142 111.837L509.465 144.076C509.431 145.661 508.164 146.95 506.64 146.95Z" fill="#FC4198"/>
<path id="Vector_108" d="M513.667 155.775C512.143 155.775 510.93 154.485 510.963 152.901L512.011 103.031C512.044 101.447 513.312 100.157 514.836 100.157C516.359 100.157 517.573 101.447 517.539 103.031L516.492 152.901C516.458 154.485 515.191 155.775 513.667 155.775Z" fill="#FC4198"/>
<path id="Vector_109" d="M520.716 164.36C519.192 164.36 517.979 163.07 518.012 161.486L519.42 94.4647C519.453 92.8804 520.721 91.5908 522.245 91.5908C523.769 91.5908 524.982 92.8804 524.949 94.4647L523.54 161.486C523.507 163.07 522.24 164.36 520.716 164.36Z" fill="#FC4198"/>
<path id="Vector_110" d="M528.281 148.387C526.757 148.387 525.544 147.097 525.577 145.513L526.315 110.4C526.348 108.815 527.615 107.526 529.139 107.526C530.663 107.526 531.876 108.815 531.843 110.4L531.105 145.513C531.072 147.097 529.805 148.387 528.281 148.387Z" fill="#FC4198"/>
<path id="Vector_111" d="M535.7 138.531C534.176 138.531 532.963 137.242 532.996 135.657L533.319 120.256C533.353 118.672 534.62 117.382 536.144 117.382C537.668 117.382 538.881 118.672 538.848 120.256L538.524 135.657C538.491 137.242 537.224 138.531 535.7 138.531Z" fill="#FC4198"/>
<path id="Vector_112" d="M542.924 138.771C541.401 138.771 540.187 137.481 540.221 135.897L540.554 120.035C540.587 118.451 541.855 117.161 543.379 117.161C544.902 117.161 546.116 118.451 546.082 120.035L545.749 135.897C545.716 137.481 544.448 138.771 542.924 138.771Z" fill="#FC4198"/>
<path id="Vector_113" d="M550.284 132.599C548.76 132.599 547.547 131.31 547.58 129.725L547.653 126.225C547.687 124.641 548.954 123.351 550.478 123.351C552.002 123.351 553.215 124.641 553.182 126.225L553.108 129.725C553.075 131.31 551.808 132.599 550.284 132.599Z" fill="#FC4198"/>
</g>
</g>
</g>
</svg>
