<?xml version="1.0" encoding="UTF-8"?>
<svg xmlns="http://www.w3.org/2000/svg" version="1.1" viewBox="0 0 615.2 595.3">
  <defs>
    <style>
      .cls-1 {
        fill: #fff;
      }
    </style>
  </defs>
  <!-- Generator: Adobe Illustrator 28.7.9, SVG Export Plug-In . SVG Version: 1.2.0 Build 218)  -->
  <g>
    <g id="Layer_1">
      <g>
        <rect class="cls-1" x="37.9" y="205.7" width="118.7" height="357.1"/>
        <path class="cls-1" d="M584.7,562.8v-204.8c0-109.7-58.6-160.7-136.7-160.7s-91.2,34.7-107,59v1.2h-.8c.2-.4.5-.8.8-1.2v-50.6h-118.7c1.6,33.5,0,357.1,0,357.1h118.7v-199.4c0-10.7.8-21.3,3.9-28.9,8.6-21.4,28.1-43.4,60.9-43.4s60.1,32.8,60.1,80.7v191h118.7Z"/>
        <path class="cls-1" d="M98,33.5c-40.6,0-67.2,26.7-67.2,61.7s25.8,61.7,65.6,61.7h.8c41.4,0,67.2-27.4,67.2-61.7-.8-35-25.7-61.7-66.4-61.7Z"/>
      </g>
    </g>
  </g>
</svg>