<svg width="97" height="101" viewBox="0 0 97 101" fill="none" xmlns="http://www.w3.org/2000/svg">
<g clip-path="url(#clip0_2154_245950)">
<rect width="85" height="89" rx="8" transform="matrix(-1 0 0 1 91 6)" fill="#FC4198"/>
<path d="M12.8042 91.9316H16.2063V95H12.8042V91.9316Z" fill="black"/>
<path d="M16.1975 91.9316H19.5996V95H16.1975V91.9316Z" fill="black"/>
<path d="M19.5996 91.9316H23.0017V95H19.5996V91.9316Z" fill="black"/>
<path d="M23.0017 91.9316H26.4038V95H23.0017V91.9316Z" fill="black"/>
<path d="M26.4038 91.9316H29.8059V95H26.4038V91.9316Z" fill="black"/>
<path d="M29.7972 91.9316H33.1993V95H29.7972V91.9316Z" fill="black"/>
<path d="M33.1993 91.9316H36.6014V95H33.1993V91.9316Z" fill="black"/>
<path d="M36.6014 91.9316H40.0035V95H36.6014V91.9316Z" fill="black"/>
<path d="M40.0035 91.9316H43.4056V95H40.0035V91.9316Z" fill="black"/>
<path d="M43.3969 91.9316H46.799V95H43.3969V91.9316Z" fill="black"/>
<path d="M46.799 91.9316H50.201V95H46.799V91.9316Z" fill="black"/>
<path d="M50.201 91.9316H53.6031V95H50.201V91.9316Z" fill="black"/>
<path d="M53.6032 91.9316H57.0052V95H53.6032V91.9316Z" fill="black"/>
<path d="M56.9965 91.9316H60.3986V95H56.9965V91.9316Z" fill="black"/>
<path d="M60.3986 91.9316H63.8007V95H60.3986V91.9316Z" fill="black"/>
<path d="M63.8007 91.9316H67.2028V95H63.8007V91.9316Z" fill="black"/>
<path d="M67.2028 91.9316H70.6049V95H67.2028V91.9316Z" fill="black"/>
<path d="M70.5962 91.9316H73.9983V95H70.5962V91.9316Z" fill="black"/>
<path d="M73.9983 91.9316H77.4004V95H73.9983V91.9316Z" fill="black"/>
<path d="M77.4004 91.9316H80.8025V95H77.4004V91.9316Z" fill="#38203E"/>
<path d="M80.8025 91.9316H84.2046V95H80.8025V91.9316Z" fill="black"/>
<path d="M9.4021 88.8633H12.8042V91.9316H9.4021V88.8633Z" fill="black"/>
<path d="M12.8042 88.8633H16.2063V91.9316H12.8042V88.8633Z" fill="black"/>
<path d="M16.1975 88.8633H19.5996V91.9316H16.1975V88.8633Z" fill="white"/>
<path d="M19.5996 88.8633H23.0017V91.9316H19.5996V88.8633Z" fill="white"/>
<path d="M23.0017 88.8633H26.4038V91.9316H23.0017V88.8633Z" fill="white"/>
<path d="M26.4038 88.8633H29.8059V91.9316H26.4038V88.8633Z" fill="white"/>
<path d="M29.7972 88.8633H33.1993V91.9316H29.7972V88.8633Z" fill="white"/>
<path d="M33.1993 88.8633H36.6014V91.9316H33.1993V88.8633Z" fill="white"/>
<path d="M36.6014 88.8633H40.0035V91.9316H36.6014V88.8633Z" fill="white"/>
<path d="M40.0035 88.8633H43.4056V91.9316H40.0035V88.8633Z" fill="white"/>
<path d="M43.3969 88.8633H46.799V91.9316H43.3969V88.8633Z" fill="white"/>
<path d="M46.799 88.8633H50.201V91.9316H46.799V88.8633Z" fill="white"/>
<path d="M50.201 88.8633H53.6031V91.9316H50.201V88.8633Z" fill="white"/>
<path d="M53.6032 88.8633H57.0052V91.9316H53.6032V88.8633Z" fill="white"/>
<path d="M56.9965 88.8633H60.3986V91.9316H56.9965V88.8633Z" fill="white"/>
<path d="M60.3986 88.8633H63.8007V91.9316H60.3986V88.8633Z" fill="white"/>
<path d="M63.8007 88.8633H67.2028V91.9316H63.8007V88.8633Z" fill="white"/>
<path d="M67.2028 88.8633H70.6049V91.9316H67.2028V88.8633Z" fill="white"/>
<path d="M70.5962 88.8633H73.9983V91.9316H70.5962V88.8633Z" fill="white"/>
<path d="M73.9983 88.8633H77.4004V91.9316H73.9983V88.8633Z" fill="white"/>
<path d="M77.4004 88.8633H80.8025V91.9316H77.4004V88.8633Z" fill="white"/>
<path d="M80.8025 88.8633H84.2046V91.9316H80.8025V88.8633Z" fill="black"/>
<path d="M84.1958 88.8633H87.5979V91.9316H84.1958V88.8633Z" fill="black"/>
<path d="M6 85.7949H9.4021V88.8633H6V85.7949Z" fill="black"/>
<path d="M9.4021 85.7949H12.8042V88.8633H9.4021V85.7949Z" fill="black"/>
<path d="M12.8042 85.7949H16.2063V88.8633H12.8042V85.7949Z" fill="white"/>
<path d="M16.1975 85.7949H19.5996V88.8633H16.1975V85.7949Z" fill="#5AFB38"/>
<path d="M19.5996 85.7949H23.0017V88.8633H19.5996V85.7949Z" fill="#5AFB38"/>
<path d="M23.0017 85.7949H26.4038V88.8633H23.0017V85.7949Z" fill="#5AFB38"/>
<path d="M26.4038 85.7949H29.8059V88.8633H26.4038V85.7949Z" fill="#5AFB38"/>
<path d="M29.7972 85.7949H33.1993V88.8633H29.7972V85.7949Z" fill="#5AFB38"/>
<path d="M33.1993 85.7949H36.6014V88.8633H33.1993V85.7949Z" fill="#5AFB38"/>
<path d="M36.6014 85.7949H40.0035V88.8633H36.6014V85.7949Z" fill="#5AFB38"/>
<path d="M40.0035 85.7949H43.4056V88.8633H40.0035V85.7949Z" fill="#5AFB38"/>
<path d="M43.3969 85.7949H46.799V88.8633H43.3969V85.7949Z" fill="#5AFB38"/>
<path d="M46.799 85.7949H50.201V88.8633H46.799V85.7949Z" fill="#5AFB38"/>
<path d="M50.201 85.7949H53.6031V88.8633H50.201V85.7949Z" fill="#5AFB38"/>
<path d="M53.6032 85.7949H57.0052V88.8633H53.6032V85.7949Z" fill="#5AFB38"/>
<path d="M56.9965 85.7949H60.3986V88.8633H56.9965V85.7949Z" fill="#5AFB38"/>
<path d="M60.3986 85.7949H63.8007V88.8633H60.3986V85.7949Z" fill="#5AFB38"/>
<path d="M63.8007 85.7949H67.2028V88.8633H63.8007V85.7949Z" fill="#5AFB38"/>
<path d="M67.2028 85.7949H70.6049V88.8633H67.2028V85.7949Z" fill="#5AFB38"/>
<path d="M70.5962 85.7949H73.9983V88.8633H70.5962V85.7949Z" fill="#5AFB38"/>
<path d="M73.9983 85.7949H77.4004V88.8633H73.9983V85.7949Z" fill="#5AFB38"/>
<path d="M77.4004 85.7949H80.8025V88.8633H77.4004V85.7949Z" fill="#AEDEFE"/>
<path d="M80.8025 85.7949H84.2046V88.8633H80.8025V85.7949Z" fill="white"/>
<path d="M84.1958 85.7949H87.5979V88.8633H84.1958V85.7949Z" fill="black"/>
<path d="M87.5979 85.7949H91V88.8633H87.5979V85.7949Z" fill="black"/>
<path d="M6 82.7266H9.4021V85.7949H6V82.7266Z" fill="black"/>
<path d="M9.4021 82.7266H12.8042V85.7949H9.4021V82.7266Z" fill="white"/>
<path d="M12.8042 82.7266H16.2063V85.7949H12.8042V82.7266Z" fill="#5AFB38"/>
<path d="M16.1975 82.7266H19.5996V85.7949H16.1975V82.7266Z" fill="#5AFB38"/>
<path d="M19.5996 82.7266H23.0017V85.7949H19.5996V82.7266Z" fill="#5AFB38"/>
<path d="M23.0017 82.7266H26.4038V85.7949H23.0017V82.7266Z" fill="#5AFB38"/>
<path d="M26.4038 82.7266H29.8059V85.7949H26.4038V82.7266Z" fill="#5AFB38"/>
<path d="M29.7972 82.7266H33.1993V85.7949H29.7972V82.7266Z" fill="#5AFB38"/>
<path d="M33.1993 82.7266H36.6014V85.7949H33.1993V82.7266Z" fill="#5AFB38"/>
<path d="M36.6014 82.7266H40.0035V85.7949H36.6014V82.7266Z" fill="#5AFB38"/>
<path d="M40.0035 82.7266H43.4056V85.7949H40.0035V82.7266Z" fill="#5AFB38"/>
<path d="M43.3969 82.7266H46.799V85.7949H43.3969V82.7266Z" fill="#5AFB38"/>
<path d="M46.799 82.7266H50.201V85.7949H46.799V82.7266Z" fill="#5AFB38"/>
<path d="M50.201 82.7266H53.6031V85.7949H50.201V82.7266Z" fill="#5AFB38"/>
<path d="M53.6032 82.7266H57.0052V85.7949H53.6032V82.7266Z" fill="#5AFB38"/>
<path d="M56.9965 82.7266H60.3986V85.7949H56.9965V82.7266Z" fill="#5AFB38"/>
<path d="M60.3986 82.7266H63.8007V85.7949H60.3986V82.7266Z" fill="#5AFB38"/>
<path d="M63.8007 82.7266H67.2028V85.7949H63.8007V82.7266Z" fill="#5AFB38"/>
<path d="M67.2028 82.7266H70.6049V85.7949H67.2028V82.7266Z" fill="#5AFB38"/>
<path d="M70.5962 82.7266H73.9983V85.7949H70.5962V82.7266Z" fill="#5AFB38"/>
<path d="M73.9983 82.7266H77.4004V85.7949H73.9983V82.7266Z" fill="#5AFB38"/>
<path d="M77.4004 82.7266H80.8025V85.7949H77.4004V82.7266Z" fill="#5AFB38"/>
<path d="M80.8025 82.7266H84.2046V85.7949H80.8025V82.7266Z" fill="#5AFB38"/>
<path d="M84.1958 82.7266H87.5979V85.7949H84.1958V82.7266Z" fill="white"/>
<path d="M87.5979 82.7266H91V85.7949H87.5979V82.7266Z" fill="black"/>
<path d="M6 79.6582H9.4021V82.7265H6V79.6582Z" fill="black"/>
<path d="M9.4021 79.6582H12.8042V82.7265H9.4021V79.6582Z" fill="white"/>
<path d="M12.8042 79.6582H16.2063V82.7265H12.8042V79.6582Z" fill="#5AFB38"/>
<path d="M16.1975 79.6582H19.5996V82.7265H16.1975V79.6582Z" fill="#5AFB38"/>
<path d="M19.5996 79.6582H23.0017V82.7265H19.5996V79.6582Z" fill="#5AFB38"/>
<path d="M23.0017 79.6582H26.4038V82.7265H23.0017V79.6582Z" fill="#5AFB38"/>
<path d="M26.4038 79.6582H29.8059V82.7265H26.4038V79.6582Z" fill="#5AFB38"/>
<path d="M29.7972 79.6582H33.1993V82.7265H29.7972V79.6582Z" fill="#5AFB38"/>
<path d="M33.1993 79.6582H36.6014V82.7265H33.1993V79.6582Z" fill="#5AFB38"/>
<path d="M36.6014 79.6582H40.0035V82.7265H36.6014V79.6582Z" fill="#5AFB38"/>
<path d="M40.0035 79.6582H43.4056V82.7265H40.0035V79.6582Z" fill="#5AFB38"/>
<path d="M43.3969 79.6582H46.799V82.7265H43.3969V79.6582Z" fill="#5AFB38"/>
<path d="M46.799 79.6582H50.201V82.7265H46.799V79.6582Z" fill="#5AFB38"/>
<path d="M50.201 79.6582H53.6031V82.7265H50.201V79.6582Z" fill="#5AFB38"/>
<path d="M53.6032 79.6582H57.0052V82.7265H53.6032V79.6582Z" fill="#5AFB38"/>
<path d="M56.9965 79.6582H60.3986V82.7265H56.9965V79.6582Z" fill="#5AFB38"/>
<path d="M60.3986 79.6582H63.8007V82.7265H60.3986V79.6582Z" fill="#5AFB38"/>
<path d="M63.8007 79.6582H67.2028V82.7265H63.8007V79.6582Z" fill="#5AFB38"/>
<path d="M67.2028 79.6582H70.6049V82.7265H67.2028V79.6582Z" fill="#5AFB38"/>
<path d="M70.5962 79.6582H73.9983V82.7265H70.5962V79.6582Z" fill="#5AFB38"/>
<path d="M73.9983 79.6582H77.4004V82.7265H73.9983V79.6582Z" fill="#5AFB38"/>
<path d="M77.4004 79.6582H80.8025V82.7265H77.4004V79.6582Z" fill="#5AFB38"/>
<path d="M80.8025 79.6582H84.2046V82.7265H80.8025V79.6582Z" fill="#5AFB38"/>
<path d="M84.1958 79.6582H87.5979V82.7265H84.1958V79.6582Z" fill="white"/>
<path d="M87.5979 79.6582H91V82.7265H87.5979V79.6582Z" fill="black"/>
<path d="M6 76.5901H9.4021V79.6584H6V76.5901Z" fill="black"/>
<path d="M9.4021 76.5901H12.8042V79.6584H9.4021V76.5901Z" fill="white"/>
<path d="M12.8042 76.5901H16.2063V79.6584H12.8042V76.5901Z" fill="#5AFB38"/>
<path d="M16.1975 76.5901H19.5996V79.6584H16.1975V76.5901Z" fill="#5AFB38"/>
<path d="M19.5996 76.5901H23.0017V79.6584H19.5996V76.5901Z" fill="#5AFB38"/>
<path d="M23.0017 76.5901H26.4038V79.6584H23.0017V76.5901Z" fill="#5AFB38"/>
<path d="M26.4038 76.5901H29.8059V79.6584H26.4038V76.5901Z" fill="#5AFB38"/>
<path d="M29.7972 76.5901H33.1993V79.6584H29.7972V76.5901Z" fill="#5AFB38"/>
<path d="M33.1993 76.5901H36.6014V79.6584H33.1993V76.5901Z" fill="#5AFB38"/>
<path d="M36.6014 76.5901H40.0035V79.6584H36.6014V76.5901Z" fill="#5AFB38"/>
<path d="M40.0035 76.5901H43.4056V79.6584H40.0035V76.5901Z" fill="#5AFB38"/>
<path d="M43.3969 76.5901H46.799V79.6584H43.3969V76.5901Z" fill="#5AFB38"/>
<path d="M46.799 76.5901H50.201V79.6584H46.799V76.5901Z" fill="#5AFB38"/>
<path d="M50.201 76.5901H53.6031V79.6584H50.201V76.5901Z" fill="#5AFB38"/>
<path d="M53.6032 76.5901H57.0052V79.6584H53.6032V76.5901Z" fill="#5AFB38"/>
<path d="M56.9965 76.5901H60.3986V79.6584H56.9965V76.5901Z" fill="#5AFB38"/>
<path d="M60.3986 76.5901H63.8007V79.6584H60.3986V76.5901Z" fill="#5AFB38"/>
<path d="M63.8007 76.5901H67.2028V79.6584H63.8007V76.5901Z" fill="#5AFB38"/>
<path d="M67.2028 76.5901H70.6049V79.6584H67.2028V76.5901Z" fill="#5AFB38"/>
<path d="M70.5962 76.5901H73.9983V79.6584H70.5962V76.5901Z" fill="#5AFB38"/>
<path d="M73.9983 76.5901H77.4004V79.6584H73.9983V76.5901Z" fill="#5AFB38"/>
<path d="M77.4004 76.5901H80.8025V79.6584H77.4004V76.5901Z" fill="#5AFB38"/>
<path d="M80.8025 76.5901H84.2046V79.6584H80.8025V76.5901Z" fill="#5AFB38"/>
<path d="M84.1958 76.5901H87.5979V79.6584H84.1958V76.5901Z" fill="white"/>
<path d="M87.5979 76.5901H91V79.6584H87.5979V76.5901Z" fill="black"/>
<path d="M6 73.5125H9.4021V76.5808H6V73.5125Z" fill="black"/>
<path d="M9.4021 73.5125H12.8042V76.5808H9.4021V73.5125Z" fill="white"/>
<path d="M12.8042 73.5125H16.2063V76.5808H12.8042V73.5125Z" fill="#5AFB38"/>
<path d="M16.1975 73.5125H19.5996V76.5808H16.1975V73.5125Z" fill="#5AFB38"/>
<path d="M19.5996 73.5125H23.0017V76.5808H19.5996V73.5125Z" fill="#5AFB38"/>
<path d="M23.0017 73.5125H26.4038V76.5808H23.0017V73.5125Z" fill="#5AFB38"/>
<path d="M26.4038 73.5125H29.8059V76.5808H26.4038V73.5125Z" fill="#5AFB38"/>
<path d="M29.7972 73.5125H33.1993V76.5808H29.7972V73.5125Z" fill="#5AFB38"/>
<path d="M33.1993 73.5125H36.6014V76.5808H33.1993V73.5125Z" fill="#5AFB38"/>
<path d="M36.6014 73.5125H40.0035V76.5808H36.6014V73.5125Z" fill="#5AFB38"/>
<path d="M40.0035 73.5125H43.4056V76.5808H40.0035V73.5125Z" fill="#5AFB38"/>
<path d="M43.3969 73.5125H46.799V76.5808H43.3969V73.5125Z" fill="#5AFB38"/>
<path d="M46.799 73.5125H50.201V76.5808H46.799V73.5125Z" fill="#5AFB38"/>
<path d="M50.201 73.5125H53.6031V76.5808H50.201V73.5125Z" fill="#5AFB38"/>
<path d="M53.6032 73.5125H57.0052V76.5808H53.6032V73.5125Z" fill="#5AFB38"/>
<path d="M56.9965 73.5125H60.3986V76.5808H56.9965V73.5125Z" fill="#5AFB38"/>
<path d="M60.3986 73.5125H63.8007V76.5808H60.3986V73.5125Z" fill="#5AFB38"/>
<path d="M63.8007 73.5125H67.2028V76.5808H63.8007V73.5125Z" fill="#5AFB38"/>
<path d="M67.2028 73.5125H70.6049V76.5808H67.2028V73.5125Z" fill="#5AFB38"/>
<path d="M70.5962 73.5125H73.9983V76.5808H70.5962V73.5125Z" fill="#5AFB38"/>
<path d="M73.9983 73.5125H77.4004V76.5808H73.9983V73.5125Z" fill="#5AFB38"/>
<path d="M77.4004 73.5125H80.8025V76.5808H77.4004V73.5125Z" fill="#5AFB38"/>
<path d="M80.8025 73.5125H84.2046V76.5808H80.8025V73.5125Z" fill="#5AFB38"/>
<path d="M84.1958 73.5125H87.5979V76.5808H84.1958V73.5125Z" fill="white"/>
<path d="M87.5979 73.5125H91V76.5808H87.5979V73.5125Z" fill="black"/>
<path d="M6 70.4441H9.4021V73.5124H6V70.4441Z" fill="black"/>
<path d="M9.4021 70.4441H12.8042V73.5124H9.4021V70.4441Z" fill="white"/>
<path d="M12.8042 70.4441H16.2063V73.5124H12.8042V70.4441Z" fill="#5AFB38"/>
<path d="M16.1975 70.4441H19.5996V73.5124H16.1975V70.4441Z" fill="#5AFB38"/>
<path d="M19.5996 70.4441H23.0017V73.5124H19.5996V70.4441Z" fill="#5AFB38"/>
<path d="M23.0017 70.4441H26.4038V73.5124H23.0017V70.4441Z" fill="#5AFB38"/>
<path d="M26.4038 70.4441H29.8059V73.5124H26.4038V70.4441Z" fill="#5AFB38"/>
<path d="M29.7972 70.4441H33.1993V73.5124H29.7972V70.4441Z" fill="#5AFB38"/>
<path d="M33.1993 70.4441H36.6014V73.5124H33.1993V70.4441Z" fill="#5AFB38"/>
<path d="M36.6014 70.4441H40.0035V73.5124H36.6014V70.4441Z" fill="#5AFB38"/>
<path d="M40.0035 70.4441H43.4056V73.5124H40.0035V70.4441Z" fill="#5AFB38"/>
<path d="M43.3969 70.4441H46.799V73.5124H43.3969V70.4441Z" fill="black"/>
<path d="M46.799 70.4441H50.201V73.5124H46.799V70.4441Z" fill="white"/>
<path d="M50.201 70.4441H53.6031V73.5124H50.201V70.4441Z" fill="#5AFB38"/>
<path d="M53.6032 70.4441H57.0052V73.5124H53.6032V70.4441Z" fill="#5AFB38"/>
<path d="M56.9965 70.4441H60.3986V73.5124H56.9965V70.4441Z" fill="#5AFB38"/>
<path d="M60.3986 70.4441H63.8007V73.5124H60.3986V70.4441Z" fill="#5AFB38"/>
<path d="M63.8007 70.4441H67.2028V73.5124H63.8007V70.4441Z" fill="#5AFB38"/>
<path d="M67.2028 70.4441H70.6049V73.5124H67.2028V70.4441Z" fill="#5AFB38"/>
<path d="M70.5962 70.4441H73.9983V73.5124H70.5962V70.4441Z" fill="#5AFB38"/>
<path d="M73.9983 70.4441H77.4004V73.5124H73.9983V70.4441Z" fill="#5AFB38"/>
<path d="M77.4004 70.4441H80.8025V73.5124H77.4004V70.4441Z" fill="#5AFB38"/>
<path d="M80.8025 70.4441H84.2046V73.5124H80.8025V70.4441Z" fill="#5AFB38"/>
<path d="M84.1958 70.4441H87.5979V73.5124H84.1958V70.4441Z" fill="white"/>
<path d="M87.5979 70.4441H91V73.5124H87.5979V70.4441Z" fill="black"/>
<path d="M6 67.3757H9.4021V70.4441H6V67.3757Z" fill="black"/>
<path d="M9.4021 67.3757H12.8042V70.4441H9.4021V67.3757Z" fill="white"/>
<path d="M12.8042 67.3757H16.2063V70.4441H12.8042V67.3757Z" fill="#5AFB38"/>
<path d="M16.1975 67.3757H19.5996V70.4441H16.1975V67.3757Z" fill="#5AFB38"/>
<path d="M19.5996 67.3757H23.0017V70.4441H19.5996V67.3757Z" fill="#5AFB38"/>
<path d="M23.0017 67.3757H26.4038V70.4441H23.0017V67.3757Z" fill="#5AFB38"/>
<path d="M26.4038 67.3757H29.8059V70.4441H26.4038V67.3757Z" fill="#5AFB38"/>
<path d="M29.7972 67.3757H33.1993V70.4441H29.7972V67.3757Z" fill="#5AFB38"/>
<path d="M33.1993 67.3757H36.6014V70.4441H33.1993V67.3757Z" fill="#5AFB38"/>
<path d="M36.6014 67.3757H40.0035V70.4441H36.6014V67.3757Z" fill="#5AFB38"/>
<path d="M40.0035 67.3757H43.4056V70.4441H40.0035V67.3757Z" fill="#341C3B"/>
<path d="M43.3969 67.3757H46.799V70.4441H43.3969V67.3757Z" fill="black"/>
<path d="M46.799 67.3757H50.201V70.4441H46.799V67.3757Z" fill="white"/>
<path d="M50.201 67.3757H53.6031V70.4441H50.201V67.3757Z" fill="#5AFB38"/>
<path d="M53.6032 67.3757H57.0052V70.4441H53.6032V67.3757Z" fill="#5AFB38"/>
<path d="M56.9965 67.3757H60.3986V70.4441H56.9965V67.3757Z" fill="#5AFB38"/>
<path d="M60.3986 67.3757H63.8007V70.4441H60.3986V67.3757Z" fill="#5AFB38"/>
<path d="M63.8007 67.3757H67.2028V70.4441H63.8007V67.3757Z" fill="#5AFB38"/>
<path d="M67.2028 67.3757H70.6049V70.4441H67.2028V67.3757Z" fill="#5AFB38"/>
<path d="M70.5962 67.3757H73.9983V70.4441H70.5962V67.3757Z" fill="#5AFB38"/>
<path d="M73.9983 67.3757H77.4004V70.4441H73.9983V67.3757Z" fill="#5AFB38"/>
<path d="M77.4004 67.3757H80.8025V70.4441H77.4004V67.3757Z" fill="#5AFB38"/>
<path d="M80.8025 67.3757H84.2046V70.4441H80.8025V67.3757Z" fill="#5AFB38"/>
<path d="M84.1958 67.3757H87.5979V70.4441H84.1958V67.3757Z" fill="white"/>
<path d="M87.5979 67.3757H91V70.4441H87.5979V67.3757Z" fill="black"/>
<path d="M6 64.3076H9.4021V67.376H6V64.3076Z" fill="black"/>
<path d="M9.4021 64.3076H12.8042V67.376H9.4021V64.3076Z" fill="white"/>
<path d="M12.8042 64.3076H16.2063V67.376H12.8042V64.3076Z" fill="#5AFB38"/>
<path d="M16.1975 64.3076H19.5996V67.376H16.1975V64.3076Z" fill="#5AFB38"/>
<path d="M19.5996 64.3076H23.0017V67.376H19.5996V64.3076Z" fill="#5AFB38"/>
<path d="M23.0017 64.3076H26.4038V67.376H23.0017V64.3076Z" fill="#5AFB38"/>
<path d="M26.4038 64.3076H29.8059V67.376H26.4038V64.3076Z" fill="#5AFB38"/>
<path d="M29.7972 64.3076H33.1993V67.376H29.7972V64.3076Z" fill="#5AFB38"/>
<path d="M33.1993 64.3076H36.6014V67.376H33.1993V64.3076Z" fill="#5AFB38"/>
<path d="M36.6014 64.3076H40.0035V67.376H36.6014V64.3076Z" fill="black"/>
<path d="M40.0035 64.3076H43.4056V67.376H40.0035V64.3076Z" fill="black"/>
<path d="M43.3969 64.3076H46.799V67.376H43.3969V64.3076Z" fill="white"/>
<path d="M46.799 64.3076H50.201V67.376H46.799V64.3076Z" fill="#5AFB38"/>
<path d="M50.201 64.3076H53.6031V67.376H50.201V64.3076Z" fill="#5AFB38"/>
<path d="M53.6032 64.3076H57.0052V67.376H53.6032V64.3076Z" fill="#5AFB38"/>
<path d="M56.9965 64.3076H60.3986V67.376H56.9965V64.3076Z" fill="#5AFB38"/>
<path d="M60.3986 64.3076H63.8007V67.376H60.3986V64.3076Z" fill="#5AFB38"/>
<path d="M63.8007 64.3076H67.2028V67.376H63.8007V64.3076Z" fill="#5AFB38"/>
<path d="M67.2028 64.3076H70.6049V67.376H67.2028V64.3076Z" fill="#5AFB38"/>
<path d="M70.5962 64.3076H73.9983V67.376H70.5962V64.3076Z" fill="#5AFB38"/>
<path d="M73.9983 64.3076H77.4004V67.376H73.9983V64.3076Z" fill="#5AFB38"/>
<path d="M77.4004 64.3076H80.8025V67.376H77.4004V64.3076Z" fill="#5AFB38"/>
<path d="M80.8025 64.3076H84.2046V67.376H80.8025V64.3076Z" fill="#5AFB38"/>
<path d="M84.1958 64.3076H87.5979V67.376H84.1958V64.3076Z" fill="white"/>
<path d="M87.5979 64.3076H91V67.376H87.5979V64.3076Z" fill="black"/>
<path d="M6 61.2393H9.4021V64.3076H6V61.2393Z" fill="black"/>
<path d="M9.4021 61.2393H12.8042V64.3076H9.4021V61.2393Z" fill="white"/>
<path d="M12.8042 61.2393H16.2063V64.3076H12.8042V61.2393Z" fill="#5AFB38"/>
<path d="M16.1975 61.2393H19.5996V64.3076H16.1975V61.2393Z" fill="#5AFB38"/>
<path d="M19.5996 61.2393H23.0017V64.3076H19.5996V61.2393Z" fill="#5AFB38"/>
<path d="M23.0017 61.2393H26.4038V64.3076H23.0017V61.2393Z" fill="#5AFB38"/>
<path d="M26.4038 61.2393H29.8059V64.3076H26.4038V61.2393Z" fill="#5AFB38"/>
<path d="M29.7972 61.2393H33.1993V64.3076H29.7972V61.2393Z" fill="#5AFB38"/>
<path d="M33.1993 61.2393H36.6014V64.3076H33.1993V61.2393Z" fill="black"/>
<path d="M36.6014 61.2393H40.0035V64.3076H36.6014V61.2393Z" fill="black"/>
<path d="M40.0035 61.2393H43.4056V64.3076H40.0035V61.2393Z" fill="white"/>
<path d="M43.3969 61.2393H46.799V64.3076H43.3969V61.2393Z" fill="#5AFB38"/>
<path d="M46.799 61.2393H50.201V64.3076H46.799V61.2393Z" fill="#5AFB38"/>
<path d="M50.201 61.2393H53.6031V64.3076H50.201V61.2393Z" fill="#5AFB38"/>
<path d="M53.6032 61.2393H57.0052V64.3076H53.6032V61.2393Z" fill="#5AFB38"/>
<path d="M56.9965 61.2393H60.3986V64.3076H56.9965V61.2393Z" fill="#5AFB38"/>
<path d="M60.3986 61.2393H63.8007V64.3076H60.3986V61.2393Z" fill="#5AFB38"/>
<path d="M63.8007 61.2393H67.2028V64.3076H63.8007V61.2393Z" fill="#5AFB38"/>
<path d="M67.2028 61.2393H70.6049V64.3076H67.2028V61.2393Z" fill="#5AFB38"/>
<path d="M70.5962 61.2393H73.9983V64.3076H70.5962V61.2393Z" fill="#5AFB38"/>
<path d="M73.9983 61.2393H77.4004V64.3076H73.9983V61.2393Z" fill="#5AFB38"/>
<path d="M77.4004 61.2393H80.8025V64.3076H77.4004V61.2393Z" fill="#5AFB38"/>
<path d="M80.8025 61.2393H84.2046V64.3076H80.8025V61.2393Z" fill="#5AFB38"/>
<path d="M84.1958 61.2393H87.5979V64.3076H84.1958V61.2393Z" fill="white"/>
<path d="M87.5979 61.2393H91V64.3076H87.5979V61.2393Z" fill="black"/>
<path d="M6 58.1709H9.4021V61.2392H6V58.1709Z" fill="black"/>
<path d="M9.4021 58.1709H12.8042V61.2392H9.4021V58.1709Z" fill="white"/>
<path d="M12.8042 58.1709H16.2063V61.2392H12.8042V58.1709Z" fill="#5AFB38"/>
<path d="M16.1975 58.1709H19.5996V61.2392H16.1975V58.1709Z" fill="#5AFB38"/>
<path d="M19.5996 58.1709H23.0017V61.2392H19.5996V58.1709Z" fill="#5AFB38"/>
<path d="M23.0017 58.1709H26.4038V61.2392H23.0017V58.1709Z" fill="#5AFB38"/>
<path d="M26.4038 58.1709H29.8059V61.2392H26.4038V58.1709Z" fill="#5AFB38"/>
<path d="M29.7972 58.1709H33.1993V61.2392H29.7972V58.1709Z" fill="#5AFB38"/>
<path d="M33.1993 58.1709H36.6014V61.2392H33.1993V58.1709Z" fill="black"/>
<path d="M36.6014 58.1709H40.0035V61.2392H36.6014V58.1709Z" fill="white"/>
<path d="M40.0035 58.1709H43.4056V61.2392H40.0035V58.1709Z" fill="#5AFB38"/>
<path d="M43.3969 58.1709H46.799V61.2392H43.3969V58.1709Z" fill="#5AFB38"/>
<path d="M46.799 58.1709H50.201V61.2392H46.799V58.1709Z" fill="#5AFB38"/>
<path d="M50.201 58.1709H53.6031V61.2392H50.201V58.1709Z" fill="#5AFB38"/>
<path d="M53.6032 58.1709H57.0052V61.2392H53.6032V58.1709Z" fill="#5AFB38"/>
<path d="M56.9965 58.1709H60.3986V61.2392H56.9965V58.1709Z" fill="#5AFB38"/>
<path d="M60.3986 58.1709H63.8007V61.2392H60.3986V58.1709Z" fill="#5AFB38"/>
<path d="M63.8007 58.1709H67.2028V61.2392H63.8007V58.1709Z" fill="#5AFB38"/>
<path d="M67.2028 58.1709H70.6049V61.2392H67.2028V58.1709Z" fill="#5AFB38"/>
<path d="M70.5962 58.1709H73.9983V61.2392H70.5962V58.1709Z" fill="#5AFB38"/>
<path d="M73.9983 58.1709H77.4004V61.2392H73.9983V58.1709Z" fill="#5AFB38"/>
<path d="M77.4004 58.1709H80.8025V61.2392H77.4004V58.1709Z" fill="#5AFB38"/>
<path d="M80.8025 58.1709H84.2046V61.2392H80.8025V58.1709Z" fill="#5AFB38"/>
<path d="M84.1958 58.1709H87.5979V61.2392H84.1958V58.1709Z" fill="white"/>
<path d="M87.5979 58.1709H91V61.2392H87.5979V58.1709Z" fill="black"/>
<path d="M6 55.1025H9.4021V58.1709H6V55.1025Z" fill="black"/>
<path d="M9.4021 55.1025H12.8042V58.1709H9.4021V55.1025Z" fill="white"/>
<path d="M12.8042 55.1025H16.2063V58.1709H12.8042V55.1025Z" fill="#5AFB38"/>
<path d="M16.1975 55.1025H19.5996V58.1709H16.1975V55.1025Z" fill="#5AFB38"/>
<path d="M19.5996 55.1025H23.0017V58.1709H19.5996V55.1025Z" fill="#5AFB38"/>
<path d="M23.0017 55.1025H26.4038V58.1709H23.0017V55.1025Z" fill="#5AFB38"/>
<path d="M26.4038 55.1025H29.8059V58.1709H26.4038V55.1025Z" fill="#5AFB38"/>
<path d="M29.7972 55.1025H33.1993V58.1709H29.7972V55.1025Z" fill="black"/>
<path d="M33.1993 55.1025H36.6014V58.1709H33.1993V55.1025Z" fill="black"/>
<path d="M36.6014 55.1025H40.0035V58.1709H36.6014V55.1025Z" fill="white"/>
<path d="M40.0035 55.1025H43.4056V58.1709H40.0035V55.1025Z" fill="#5AFB38"/>
<path d="M43.3969 55.1025H46.799V58.1709H43.3969V55.1025Z" fill="#5AFB38"/>
<path d="M46.799 55.1025H50.201V58.1709H46.799V55.1025Z" fill="#5AFB38"/>
<path d="M50.201 55.1025H53.6031V58.1709H50.201V55.1025Z" fill="#5AFB38"/>
<path d="M53.6032 55.1025H57.0052V58.1709H53.6032V55.1025Z" fill="#5AFB38"/>
<path d="M56.9965 55.1025H60.3986V58.1709H56.9965V55.1025Z" fill="#5AFB38"/>
<path d="M60.3986 55.1025H63.8007V58.1709H60.3986V55.1025Z" fill="#5AFB38"/>
<path d="M63.8007 55.1025H67.2028V58.1709H63.8007V55.1025Z" fill="#5AFB38"/>
<path d="M67.2028 55.1025H70.6049V58.1709H67.2028V55.1025Z" fill="#5AFB38"/>
<path d="M70.5962 55.1025H73.9983V58.1709H70.5962V55.1025Z" fill="#5AFB38"/>
<path d="M73.9983 55.1025H77.4004V58.1709H73.9983V55.1025Z" fill="#5AFB38"/>
<path d="M77.4004 55.1025H80.8025V58.1709H77.4004V55.1025Z" fill="#5AFB38"/>
<path d="M80.8025 55.1025H84.2046V58.1709H80.8025V55.1025Z" fill="#5AFB38"/>
<path d="M84.1958 55.1025H87.5979V58.1709H84.1958V55.1025Z" fill="white"/>
<path d="M87.5979 55.1025H91V58.1709H87.5979V55.1025Z" fill="black"/>
<path d="M6 52.0342H9.4021V55.1025H6V52.0342Z" fill="black"/>
<path d="M9.4021 52.0342H12.8042V55.1025H9.4021V52.0342Z" fill="white"/>
<path d="M12.8042 52.0342H16.2063V55.1025H12.8042V52.0342Z" fill="#5AFB38"/>
<path d="M16.1975 52.0342H19.5996V55.1025H16.1975V52.0342Z" fill="#5AFB38"/>
<path d="M19.5996 52.0342H23.0017V55.1025H19.5996V52.0342Z" fill="#5AFB38"/>
<path d="M23.0017 52.0342H26.4038V55.1025H23.0017V52.0342Z" fill="#5AFB38"/>
<path d="M26.4038 52.0342H29.8059V55.1025H26.4038V52.0342Z" fill="black"/>
<path d="M29.7972 52.0342H33.1993V55.1025H29.7972V52.0342Z" fill="black"/>
<path d="M33.1993 52.0342H36.6014V55.1025H33.1993V52.0342Z" fill="black"/>
<path d="M36.6014 52.0342H40.0035V55.1025H36.6014V52.0342Z" fill="black"/>
<path d="M40.0035 52.0342H43.4056V55.1025H40.0035V52.0342Z" fill="black"/>
<path d="M43.3969 52.0342H46.799V55.1025H43.3969V52.0342Z" fill="black"/>
<path d="M46.799 52.0342H50.201V55.1025H46.799V52.0342Z" fill="black"/>
<path d="M50.201 52.0342H53.6031V55.1025H50.201V52.0342Z" fill="black"/>
<path d="M53.6032 52.0342H57.0052V55.1025H53.6032V52.0342Z" fill="black"/>
<path d="M56.9965 52.0342H60.3986V55.1025H56.9965V52.0342Z" fill="black"/>
<path d="M60.3986 52.0342H63.8007V55.1025H60.3986V52.0342Z" fill="black"/>
<path d="M63.8007 52.0342H67.2028V55.1025H63.8007V52.0342Z" fill="black"/>
<path d="M67.2028 52.0342H70.6049V55.1025H67.2028V52.0342Z" fill="black"/>
<path d="M70.5962 52.0342H73.9983V55.1025H70.5962V52.0342Z" fill="white"/>
<path d="M73.9983 52.0342H77.4004V55.1025H73.9983V52.0342Z" fill="#5AFB38"/>
<path d="M77.4004 52.0342H80.8025V55.1025H77.4004V52.0342Z" fill="#5AFB38"/>
<path d="M80.8025 52.0342H84.2046V55.1025H80.8025V52.0342Z" fill="#5AFB38"/>
<path d="M84.1958 52.0342H87.5979V55.1025H84.1958V52.0342Z" fill="white"/>
<path d="M87.5979 52.0342H91V55.1025H87.5979V52.0342Z" fill="black"/>
<path d="M6 48.9658H9.4021V52.0342H6V48.9658Z" fill="black"/>
<path d="M9.4021 48.9658H12.8042V52.0342H9.4021V48.9658Z" fill="white"/>
<path d="M12.8042 48.9658H16.2063V52.0342H12.8042V48.9658Z" fill="#5AFB38"/>
<path d="M16.1975 48.9658H19.5996V52.0342H16.1975V48.9658Z" fill="#5AFB38"/>
<path d="M19.5996 48.9658H23.0017V52.0342H19.5996V48.9658Z" fill="#5AFB38"/>
<path d="M23.0017 48.9658H26.4038V52.0342H23.0017V48.9658Z" fill="#5AFB38"/>
<path d="M26.4038 48.9658H29.8059V52.0342H26.4038V48.9658Z" fill="black"/>
<path d="M29.7972 48.9658H33.1993V52.0342H29.7972V48.9658Z" fill="black"/>
<path d="M33.1993 48.9658H36.6014V52.0342H33.1993V48.9658Z" fill="black"/>
<path d="M36.6014 48.9658H40.0035V52.0342H36.6014V48.9658Z" fill="black"/>
<path d="M40.0035 48.9658H43.4056V52.0342H40.0035V48.9658Z" fill="black"/>
<path d="M43.3969 48.9658H46.799V52.0342H43.3969V48.9658Z" fill="black"/>
<path d="M46.799 48.9658H50.201V52.0342H46.799V48.9658Z" fill="black"/>
<path d="M50.201 48.9658H53.6031V52.0342H50.201V48.9658Z" fill="black"/>
<path d="M53.6032 48.9658H57.0052V52.0342H53.6032V48.9658Z" fill="black"/>
<path d="M56.9965 48.9658H60.3986V52.0342H56.9965V48.9658Z" fill="black"/>
<path d="M60.3986 48.9658H63.8007V52.0342H60.3986V48.9658Z" fill="black"/>
<path d="M63.8007 48.9658H67.2028V52.0342H63.8007V48.9658Z" fill="black"/>
<path d="M67.2028 48.9658H70.6049V52.0342H67.2028V48.9658Z" fill="black"/>
<path d="M70.5962 48.9658H73.9983V52.0342H70.5962V48.9658Z" fill="white"/>
<path d="M73.9983 48.9658H77.4004V52.0342H73.9983V48.9658Z" fill="#5AFB38"/>
<path d="M77.4004 48.9658H80.8025V52.0342H77.4004V48.9658Z" fill="#5AFB38"/>
<path d="M80.8025 48.9658H84.2046V52.0342H80.8025V48.9658Z" fill="#5AFB38"/>
<path d="M84.1958 48.9658H87.5979V52.0342H84.1958V48.9658Z" fill="white"/>
<path d="M87.5979 48.9658H91V52.0342H87.5979V48.9658Z" fill="black"/>
<path d="M6 45.8975H9.4021V48.9658H6V45.8975Z" fill="black"/>
<path d="M9.4021 45.8975H12.8042V48.9658H9.4021V45.8975Z" fill="white"/>
<path d="M12.8042 45.8975H16.2063V48.9658H12.8042V45.8975Z" fill="#5AFB38"/>
<path d="M16.1975 45.8975H19.5996V48.9658H16.1975V45.8975Z" fill="#5AFB38"/>
<path d="M19.5996 45.8975H23.0017V48.9658H19.5996V45.8975Z" fill="#5AFB38"/>
<path d="M23.0017 45.8975H26.4038V48.9658H23.0017V45.8975Z" fill="#5AFB38"/>
<path d="M26.4038 45.8975H29.8059V48.9658H26.4038V45.8975Z" fill="black"/>
<path d="M29.7972 45.8975H33.1993V48.9658H29.7972V45.8975Z" fill="black"/>
<path d="M33.1993 45.8975H36.6014V48.9658H33.1993V45.8975Z" fill="black"/>
<path d="M36.6014 45.8975H40.0035V48.9658H36.6014V45.8975Z" fill="black"/>
<path d="M40.0035 45.8975H43.4056V48.9658H40.0035V45.8975Z" fill="black"/>
<path d="M43.3969 45.8975H46.799V48.9658H43.3969V45.8975Z" fill="black"/>
<path d="M46.799 45.8975H50.201V48.9658H46.799V45.8975Z" fill="black"/>
<path d="M50.201 45.8975H53.6031V48.9658H50.201V45.8975Z" fill="black"/>
<path d="M53.6032 45.8975H57.0052V48.9658H53.6032V45.8975Z" fill="black"/>
<path d="M56.9965 45.8975H60.3986V48.9658H56.9965V45.8975Z" fill="black"/>
<path d="M60.3986 45.8975H63.8007V48.9658H60.3986V45.8975Z" fill="black"/>
<path d="M63.8007 45.8975H67.2028V48.9658H63.8007V45.8975Z" fill="black"/>
<path d="M67.2028 45.8975H70.6049V48.9658H67.2028V45.8975Z" fill="black"/>
<path d="M70.5962 45.8975H73.9983V48.9658H70.5962V45.8975Z" fill="white"/>
<path d="M73.9983 45.8975H77.4004V48.9658H73.9983V45.8975Z" fill="#5AFB38"/>
<path d="M77.4004 45.8975H80.8025V48.9658H77.4004V45.8975Z" fill="#5AFB38"/>
<path d="M80.8025 45.8975H84.2046V48.9658H80.8025V45.8975Z" fill="#5AFB38"/>
<path d="M84.1958 45.8975H87.5979V48.9658H84.1958V45.8975Z" fill="white"/>
<path d="M87.5979 45.8975H91V48.9658H87.5979V45.8975Z" fill="black"/>
<path d="M6 42.8291H9.4021V45.8974H6V42.8291Z" fill="black"/>
<path d="M9.4021 42.8291H12.8042V45.8974H9.4021V42.8291Z" fill="white"/>
<path d="M12.8042 42.8291H16.2063V45.8974H12.8042V42.8291Z" fill="#5AFB38"/>
<path d="M16.1975 42.8291H19.5996V45.8974H16.1975V42.8291Z" fill="#5AFB38"/>
<path d="M19.5996 42.8291H23.0017V45.8974H19.5996V42.8291Z" fill="#5AFB38"/>
<path d="M23.0017 42.8291H26.4038V45.8974H23.0017V42.8291Z" fill="#5AFB38"/>
<path d="M26.4038 42.8291H29.8059V45.8974H26.4038V42.8291Z" fill="#5AFB38"/>
<path d="M29.7972 42.8291H33.1993V45.8974H29.7972V42.8291Z" fill="black"/>
<path d="M33.1993 42.8291H36.6014V45.8974H33.1993V42.8291Z" fill="black"/>
<path d="M36.6014 42.8291H40.0035V45.8974H36.6014V42.8291Z" fill="white"/>
<path d="M40.0035 42.8291H43.4056V45.8974H40.0035V42.8291Z" fill="#5AFB38"/>
<path d="M43.3969 42.8291H46.799V45.8974H43.3969V42.8291Z" fill="#5AFB38"/>
<path d="M46.799 42.8291H50.201V45.8974H46.799V42.8291Z" fill="#5AFB38"/>
<path d="M50.201 42.8291H53.6031V45.8974H50.201V42.8291Z" fill="#5AFB38"/>
<path d="M53.6032 42.8291H57.0052V45.8974H53.6032V42.8291Z" fill="#5AFB38"/>
<path d="M56.9965 42.8291H60.3986V45.8974H56.9965V42.8291Z" fill="#5AFB38"/>
<path d="M60.3986 42.8291H63.8007V45.8974H60.3986V42.8291Z" fill="#5AFB38"/>
<path d="M63.8007 42.8291H67.2028V45.8974H63.8007V42.8291Z" fill="#5AFB38"/>
<path d="M67.2028 42.8291H70.6049V45.8974H67.2028V42.8291Z" fill="#5AFB38"/>
<path d="M70.5962 42.8291H73.9983V45.8974H70.5962V42.8291Z" fill="#5AFB38"/>
<path d="M73.9983 42.8291H77.4004V45.8974H73.9983V42.8291Z" fill="#5AFB38"/>
<path d="M77.4004 42.8291H80.8025V45.8974H77.4004V42.8291Z" fill="#5AFB38"/>
<path d="M80.8025 42.8291H84.2046V45.8974H80.8025V42.8291Z" fill="#5AFB38"/>
<path d="M84.1958 42.8291H87.5979V45.8974H84.1958V42.8291Z" fill="white"/>
<path d="M87.5979 42.8291H91V45.8974H87.5979V42.8291Z" fill="black"/>
<path d="M6 39.7607H9.4021V42.8291H6V39.7607Z" fill="black"/>
<path d="M9.4021 39.7607H12.8042V42.8291H9.4021V39.7607Z" fill="white"/>
<path d="M12.8042 39.7607H16.2063V42.8291H12.8042V39.7607Z" fill="#5AFB38"/>
<path d="M16.1975 39.7607H19.5996V42.8291H16.1975V39.7607Z" fill="#5AFB38"/>
<path d="M19.5996 39.7607H23.0017V42.8291H19.5996V39.7607Z" fill="#5AFB38"/>
<path d="M23.0017 39.7607H26.4038V42.8291H23.0017V39.7607Z" fill="#5AFB38"/>
<path d="M26.4038 39.7607H29.8059V42.8291H26.4038V39.7607Z" fill="#5AFB38"/>
<path d="M29.7972 39.7607H33.1993V42.8291H29.7972V39.7607Z" fill="#5AFB38"/>
<path d="M33.1993 39.7607H36.6014V42.8291H33.1993V39.7607Z" fill="black"/>
<path d="M36.6014 39.7607H40.0035V42.8291H36.6014V39.7607Z" fill="white"/>
<path d="M40.0035 39.7607H43.4056V42.8291H40.0035V39.7607Z" fill="#5AFB38"/>
<path d="M43.3969 39.7607H46.799V42.8291H43.3969V39.7607Z" fill="#5AFB38"/>
<path d="M46.799 39.7607H50.201V42.8291H46.799V39.7607Z" fill="#5AFB38"/>
<path d="M50.201 39.7607H53.6031V42.8291H50.201V39.7607Z" fill="#5AFB38"/>
<path d="M53.6032 39.7607H57.0052V42.8291H53.6032V39.7607Z" fill="#5AFB38"/>
<path d="M56.9965 39.7607H60.3986V42.8291H56.9965V39.7607Z" fill="#5AFB38"/>
<path d="M60.3986 39.7607H63.8007V42.8291H60.3986V39.7607Z" fill="#5AFB38"/>
<path d="M63.8007 39.7607H67.2028V42.8291H63.8007V39.7607Z" fill="#5AFB38"/>
<path d="M67.2028 39.7607H70.6049V42.8291H67.2028V39.7607Z" fill="#5AFB38"/>
<path d="M70.5962 39.7607H73.9983V42.8291H70.5962V39.7607Z" fill="#5AFB38"/>
<path d="M73.9983 39.7607H77.4004V42.8291H73.9983V39.7607Z" fill="#5AFB38"/>
<path d="M77.4004 39.7607H80.8025V42.8291H77.4004V39.7607Z" fill="#5AFB38"/>
<path d="M80.8025 39.7607H84.2046V42.8291H80.8025V39.7607Z" fill="#5AFB38"/>
<path d="M84.1958 39.7607H87.5979V42.8291H84.1958V39.7607Z" fill="white"/>
<path d="M87.5979 39.7607H91V42.8291H87.5979V39.7607Z" fill="black"/>
<path d="M6 36.6924H9.4021V39.7607H6V36.6924Z" fill="black"/>
<path d="M9.4021 36.6924H12.8042V39.7607H9.4021V36.6924Z" fill="white"/>
<path d="M12.8042 36.6924H16.2063V39.7607H12.8042V36.6924Z" fill="#5AFB38"/>
<path d="M16.1975 36.6924H19.5996V39.7607H16.1975V36.6924Z" fill="#5AFB38"/>
<path d="M19.5996 36.6924H23.0017V39.7607H19.5996V36.6924Z" fill="#5AFB38"/>
<path d="M23.0017 36.6924H26.4038V39.7607H23.0017V36.6924Z" fill="#5AFB38"/>
<path d="M26.4038 36.6924H29.8059V39.7607H26.4038V36.6924Z" fill="#5AFB38"/>
<path d="M29.7972 36.6924H33.1993V39.7607H29.7972V36.6924Z" fill="#5AFB38"/>
<path d="M33.1993 36.6924H36.6014V39.7607H33.1993V36.6924Z" fill="black"/>
<path d="M36.6014 36.6924H40.0035V39.7607H36.6014V36.6924Z" fill="black"/>
<path d="M40.0035 36.6924H43.4056V39.7607H40.0035V36.6924Z" fill="white"/>
<path d="M43.3969 36.6924H46.799V39.7607H43.3969V36.6924Z" fill="#5AFB38"/>
<path d="M46.799 36.6924H50.201V39.7607H46.799V36.6924Z" fill="#5AFB38"/>
<path d="M50.201 36.6924H53.6031V39.7607H50.201V36.6924Z" fill="#5AFB38"/>
<path d="M53.6032 36.6924H57.0052V39.7607H53.6032V36.6924Z" fill="#5AFB38"/>
<path d="M56.9965 36.6924H60.3986V39.7607H56.9965V36.6924Z" fill="#5AFB38"/>
<path d="M60.3986 36.6924H63.8007V39.7607H60.3986V36.6924Z" fill="#5AFB38"/>
<path d="M63.8007 36.6924H67.2028V39.7607H63.8007V36.6924Z" fill="#5AFB38"/>
<path d="M67.2028 36.6924H70.6049V39.7607H67.2028V36.6924Z" fill="#5AFB38"/>
<path d="M70.5962 36.6924H73.9983V39.7607H70.5962V36.6924Z" fill="#5AFB38"/>
<path d="M73.9983 36.6924H77.4004V39.7607H73.9983V36.6924Z" fill="#5AFB38"/>
<path d="M77.4004 36.6924H80.8025V39.7607H77.4004V36.6924Z" fill="#5AFB38"/>
<path d="M80.8025 36.6924H84.2046V39.7607H80.8025V36.6924Z" fill="#5AFB38"/>
<path d="M84.1958 36.6924H87.5979V39.7607H84.1958V36.6924Z" fill="white"/>
<path d="M87.5979 36.6924H91V39.7607H87.5979V36.6924Z" fill="black"/>
<path d="M6 33.6243H9.4021V36.6926H6V33.6243Z" fill="black"/>
<path d="M9.4021 33.6243H12.8042V36.6926H9.4021V33.6243Z" fill="white"/>
<path d="M12.8042 33.6243H16.2063V36.6926H12.8042V33.6243Z" fill="#5AFB38"/>
<path d="M16.1975 33.6243H19.5996V36.6926H16.1975V33.6243Z" fill="#5AFB38"/>
<path d="M19.5996 33.6243H23.0017V36.6926H19.5996V33.6243Z" fill="#5AFB38"/>
<path d="M23.0017 33.6243H26.4038V36.6926H23.0017V33.6243Z" fill="#5AFB38"/>
<path d="M26.4038 33.6243H29.8059V36.6926H26.4038V33.6243Z" fill="#5AFB38"/>
<path d="M29.7972 33.6243H33.1993V36.6926H29.7972V33.6243Z" fill="#5AFB38"/>
<path d="M33.1993 33.6243H36.6014V36.6926H33.1993V33.6243Z" fill="#5AFB38"/>
<path d="M36.6014 33.6243H40.0035V36.6926H36.6014V33.6243Z" fill="black"/>
<path d="M40.0035 33.6243H43.4056V36.6926H40.0035V33.6243Z" fill="black"/>
<path d="M43.3969 33.6243H46.799V36.6926H43.3969V33.6243Z" fill="white"/>
<path d="M46.799 33.6243H50.201V36.6926H46.799V33.6243Z" fill="#5AFB38"/>
<path d="M50.201 33.6243H53.6031V36.6926H50.201V33.6243Z" fill="#5AFB38"/>
<path d="M53.6032 33.6243H57.0052V36.6926H53.6032V33.6243Z" fill="#5AFB38"/>
<path d="M56.9965 33.6243H60.3986V36.6926H56.9965V33.6243Z" fill="#5AFB38"/>
<path d="M60.3986 33.6243H63.8007V36.6926H60.3986V33.6243Z" fill="#5AFB38"/>
<path d="M63.8007 33.6243H67.2028V36.6926H63.8007V33.6243Z" fill="#5AFB38"/>
<path d="M67.2028 33.6243H70.6049V36.6926H67.2028V33.6243Z" fill="#5AFB38"/>
<path d="M70.5962 33.6243H73.9983V36.6926H70.5962V33.6243Z" fill="#5AFB38"/>
<path d="M73.9983 33.6243H77.4004V36.6926H73.9983V33.6243Z" fill="#5AFB38"/>
<path d="M77.4004 33.6243H80.8025V36.6926H77.4004V33.6243Z" fill="#5AFB38"/>
<path d="M80.8025 33.6243H84.2046V36.6926H80.8025V33.6243Z" fill="#5AFB38"/>
<path d="M84.1958 33.6243H87.5979V36.6926H84.1958V33.6243Z" fill="white"/>
<path d="M87.5979 33.6243H91V36.6926H87.5979V33.6243Z" fill="black"/>
<path d="M6 30.5559H9.4021V33.6242H6V30.5559Z" fill="black"/>
<path d="M9.4021 30.5559H12.8042V33.6242H9.4021V30.5559Z" fill="white"/>
<path d="M12.8042 30.5559H16.2063V33.6242H12.8042V30.5559Z" fill="#5AFB38"/>
<path d="M16.1975 30.5559H19.5996V33.6242H16.1975V30.5559Z" fill="#5AFB38"/>
<path d="M19.5996 30.5559H23.0017V33.6242H19.5996V30.5559Z" fill="#5AFB38"/>
<path d="M23.0017 30.5559H26.4038V33.6242H23.0017V30.5559Z" fill="#5AFB38"/>
<path d="M26.4038 30.5559H29.8059V33.6242H26.4038V30.5559Z" fill="#5AFB38"/>
<path d="M29.7972 30.5559H33.1993V33.6242H29.7972V30.5559Z" fill="#5AFB38"/>
<path d="M33.1993 30.5559H36.6014V33.6242H33.1993V30.5559Z" fill="#5AFB38"/>
<path d="M36.6014 30.5559H40.0035V33.6242H36.6014V30.5559Z" fill="#5AFB38"/>
<path d="M40.0035 30.5559H43.4056V33.6242H40.0035V30.5559Z" fill="black"/>
<path d="M43.3969 30.5559H46.799V33.6242H43.3969V30.5559Z" fill="black"/>
<path d="M46.799 30.5559H50.201V33.6242H46.799V30.5559Z" fill="white"/>
<path d="M50.201 30.5559H53.6031V33.6242H50.201V30.5559Z" fill="#5AFB38"/>
<path d="M53.6032 30.5559H57.0052V33.6242H53.6032V30.5559Z" fill="#5AFB38"/>
<path d="M56.9965 30.5559H60.3986V33.6242H56.9965V30.5559Z" fill="#5AFB38"/>
<path d="M60.3986 30.5559H63.8007V33.6242H60.3986V30.5559Z" fill="#5AFB38"/>
<path d="M63.8007 30.5559H67.2028V33.6242H63.8007V30.5559Z" fill="#5AFB38"/>
<path d="M67.2028 30.5559H70.6049V33.6242H67.2028V30.5559Z" fill="#5AFB38"/>
<path d="M70.5962 30.5559H73.9983V33.6242H70.5962V30.5559Z" fill="#5AFB38"/>
<path d="M73.9983 30.5559H77.4004V33.6242H73.9983V30.5559Z" fill="#5AFB38"/>
<path d="M77.4004 30.5559H80.8025V33.6242H77.4004V30.5559Z" fill="#5AFB38"/>
<path d="M80.8025 30.5559H84.2046V33.6242H80.8025V30.5559Z" fill="#5AFB38"/>
<path d="M84.1958 30.5559H87.5979V33.6242H84.1958V30.5559Z" fill="white"/>
<path d="M87.5979 30.5559H91V33.6242H87.5979V30.5559Z" fill="black"/>
<path d="M6 27.4783H9.4021V30.5466H6V27.4783Z" fill="black"/>
<path d="M9.4021 27.4783H12.8042V30.5466H9.4021V27.4783Z" fill="white"/>
<path d="M12.8042 27.4783H16.2063V30.5466H12.8042V27.4783Z" fill="#5AFB38"/>
<path d="M16.1975 27.4783H19.5996V30.5466H16.1975V27.4783Z" fill="#5AFB38"/>
<path d="M19.5996 27.4783H23.0017V30.5466H19.5996V27.4783Z" fill="#5AFB38"/>
<path d="M23.0017 27.4783H26.4038V30.5466H23.0017V27.4783Z" fill="#5AFB38"/>
<path d="M26.4038 27.4783H29.8059V30.5466H26.4038V27.4783Z" fill="#5AFB38"/>
<path d="M29.7972 27.4783H33.1993V30.5466H29.7972V27.4783Z" fill="#5AFB38"/>
<path d="M33.1993 27.4783H36.6014V30.5466H33.1993V27.4783Z" fill="#5AFB38"/>
<path d="M36.6014 27.4783H40.0035V30.5466H36.6014V27.4783Z" fill="#5AFB38"/>
<path d="M40.0035 27.4783H43.4056V30.5466H40.0035V27.4783Z" fill="#5AFB38"/>
<path d="M43.3969 27.4783H46.799V30.5466H43.3969V27.4783Z" fill="black"/>
<path d="M46.799 27.4783H50.201V30.5466H46.799V27.4783Z" fill="white"/>
<path d="M50.201 27.4783H53.6031V30.5466H50.201V27.4783Z" fill="#5AFB38"/>
<path d="M53.6032 27.4783H57.0052V30.5466H53.6032V27.4783Z" fill="#5AFB38"/>
<path d="M56.9965 27.4783H60.3986V30.5466H56.9965V27.4783Z" fill="#5AFB38"/>
<path d="M60.3986 27.4783H63.8007V30.5466H60.3986V27.4783Z" fill="#5AFB38"/>
<path d="M63.8007 27.4783H67.2028V30.5466H63.8007V27.4783Z" fill="#5AFB38"/>
<path d="M67.2028 27.4783H70.6049V30.5466H67.2028V27.4783Z" fill="#5AFB38"/>
<path d="M70.5962 27.4783H73.9983V30.5466H70.5962V27.4783Z" fill="#5AFB38"/>
<path d="M73.9983 27.4783H77.4004V30.5466H73.9983V27.4783Z" fill="#5AFB38"/>
<path d="M77.4004 27.4783H80.8025V30.5466H77.4004V27.4783Z" fill="#5AFB38"/>
<path d="M80.8025 27.4783H84.2046V30.5466H80.8025V27.4783Z" fill="#5AFB38"/>
<path d="M84.1958 27.4783H87.5979V30.5466H84.1958V27.4783Z" fill="white"/>
<path d="M87.5979 27.4783H91V30.5466H87.5979V27.4783Z" fill="black"/>
<path d="M6 24.4099H9.4021V27.4782H6V24.4099Z" fill="black"/>
<path d="M9.4021 24.4099H12.8042V27.4782H9.4021V24.4099Z" fill="white"/>
<path d="M12.8042 24.4099H16.2063V27.4782H12.8042V24.4099Z" fill="#5AFB38"/>
<path d="M16.1975 24.4099H19.5996V27.4782H16.1975V24.4099Z" fill="#5AFB38"/>
<path d="M19.5996 24.4099H23.0017V27.4782H19.5996V24.4099Z" fill="#5AFB38"/>
<path d="M23.0017 24.4099H26.4038V27.4782H23.0017V24.4099Z" fill="#5AFB38"/>
<path d="M26.4038 24.4099H29.8059V27.4782H26.4038V24.4099Z" fill="#5AFB38"/>
<path d="M29.7972 24.4099H33.1993V27.4782H29.7972V24.4099Z" fill="#5AFB38"/>
<path d="M33.1993 24.4099H36.6014V27.4782H33.1993V24.4099Z" fill="#5AFB38"/>
<path d="M36.6014 24.4099H40.0035V27.4782H36.6014V24.4099Z" fill="#5AFB38"/>
<path d="M40.0035 24.4099H43.4056V27.4782H40.0035V24.4099Z" fill="#5AFB38"/>
<path d="M43.3969 24.4099H46.799V27.4782H43.3969V24.4099Z" fill="#5AFB38"/>
<path d="M46.799 24.4099H50.201V27.4782H46.799V24.4099Z" fill="#5AFB38"/>
<path d="M50.201 24.4099H53.6031V27.4782H50.201V24.4099Z" fill="#5AFB38"/>
<path d="M53.6032 24.4099H57.0052V27.4782H53.6032V24.4099Z" fill="#5AFB38"/>
<path d="M56.9965 24.4099H60.3986V27.4782H56.9965V24.4099Z" fill="#5AFB38"/>
<path d="M60.3986 24.4099H63.8007V27.4782H60.3986V24.4099Z" fill="#5AFB38"/>
<path d="M63.8007 24.4099H67.2028V27.4782H63.8007V24.4099Z" fill="#5AFB38"/>
<path d="M67.2028 24.4099H70.6049V27.4782H67.2028V24.4099Z" fill="#5AFB38"/>
<path d="M70.5962 24.4099H73.9983V27.4782H70.5962V24.4099Z" fill="#5AFB38"/>
<path d="M73.9983 24.4099H77.4004V27.4782H73.9983V24.4099Z" fill="#5AFB38"/>
<path d="M77.4004 24.4099H80.8025V27.4782H77.4004V24.4099Z" fill="#5AFB38"/>
<path d="M80.8025 24.4099H84.2046V27.4782H80.8025V24.4099Z" fill="#5AFB38"/>
<path d="M84.1958 24.4099H87.5979V27.4782H84.1958V24.4099Z" fill="white"/>
<path d="M87.5979 24.4099H91V27.4782H87.5979V24.4099Z" fill="black"/>
<path d="M6 21.3418H9.4021V24.4101H6V21.3418Z" fill="black"/>
<path d="M9.4021 21.3418H12.8042V24.4101H9.4021V21.3418Z" fill="white"/>
<path d="M12.8042 21.3418H16.2063V24.4101H12.8042V21.3418Z" fill="#5AFB38"/>
<path d="M16.1975 21.3418H19.5996V24.4101H16.1975V21.3418Z" fill="#5AFB38"/>
<path d="M19.5996 21.3418H23.0017V24.4101H19.5996V21.3418Z" fill="#5AFB38"/>
<path d="M23.0017 21.3418H26.4038V24.4101H23.0017V21.3418Z" fill="#5AFB38"/>
<path d="M26.4038 21.3418H29.8059V24.4101H26.4038V21.3418Z" fill="#5AFB38"/>
<path d="M29.7972 21.3418H33.1993V24.4101H29.7972V21.3418Z" fill="#5AFB38"/>
<path d="M33.1993 21.3418H36.6014V24.4101H33.1993V21.3418Z" fill="#5AFB38"/>
<path d="M36.6014 21.3418H40.0035V24.4101H36.6014V21.3418Z" fill="#5AFB38"/>
<path d="M40.0035 21.3418H43.4056V24.4101H40.0035V21.3418Z" fill="#5AFB38"/>
<path d="M43.3969 21.3418H46.799V24.4101H43.3969V21.3418Z" fill="#5AFB38"/>
<path d="M46.799 21.3418H50.201V24.4101H46.799V21.3418Z" fill="#5AFB38"/>
<path d="M50.201 21.3418H53.6031V24.4101H50.201V21.3418Z" fill="#5AFB38"/>
<path d="M53.6032 21.3418H57.0052V24.4101H53.6032V21.3418Z" fill="#5AFB38"/>
<path d="M56.9965 21.3418H60.3986V24.4101H56.9965V21.3418Z" fill="#5AFB38"/>
<path d="M60.3986 21.3418H63.8007V24.4101H60.3986V21.3418Z" fill="#5AFB38"/>
<path d="M63.8007 21.3418H67.2028V24.4101H63.8007V21.3418Z" fill="#5AFB38"/>
<path d="M67.2028 21.3418H70.6049V24.4101H67.2028V21.3418Z" fill="#5AFB38"/>
<path d="M70.5962 21.3418H73.9983V24.4101H70.5962V21.3418Z" fill="#5AFB38"/>
<path d="M73.9983 21.3418H77.4004V24.4101H73.9983V21.3418Z" fill="#5AFB38"/>
<path d="M77.4004 21.3418H80.8025V24.4101H77.4004V21.3418Z" fill="#5AFB38"/>
<path d="M80.8025 21.3418H84.2046V24.4101H80.8025V21.3418Z" fill="#5AFB38"/>
<path d="M84.1958 21.3418H87.5979V24.4101H84.1958V21.3418Z" fill="white"/>
<path d="M87.5979 21.3418H91V24.4101H87.5979V21.3418Z" fill="black"/>
<path d="M6 18.2734H9.4021V21.3418H6V18.2734Z" fill="black"/>
<path d="M9.4021 18.2734H12.8042V21.3418H9.4021V18.2734Z" fill="white"/>
<path d="M12.8042 18.2734H16.2063V21.3418H12.8042V18.2734Z" fill="#5AFB38"/>
<path d="M16.1975 18.2734H19.5996V21.3418H16.1975V18.2734Z" fill="#5AFB38"/>
<path d="M19.5996 18.2734H23.0017V21.3418H19.5996V18.2734Z" fill="#5AFB38"/>
<path d="M23.0017 18.2734H26.4038V21.3418H23.0017V18.2734Z" fill="#5AFB38"/>
<path d="M26.4038 18.2734H29.8059V21.3418H26.4038V18.2734Z" fill="#5AFB38"/>
<path d="M29.7972 18.2734H33.1993V21.3418H29.7972V18.2734Z" fill="#5AFB38"/>
<path d="M33.1993 18.2734H36.6014V21.3418H33.1993V18.2734Z" fill="#5AFB38"/>
<path d="M36.6014 18.2734H40.0035V21.3418H36.6014V18.2734Z" fill="#5AFB38"/>
<path d="M40.0035 18.2734H43.4056V21.3418H40.0035V18.2734Z" fill="#5AFB38"/>
<path d="M43.3969 18.2734H46.799V21.3418H43.3969V18.2734Z" fill="#5AFB38"/>
<path d="M46.799 18.2734H50.201V21.3418H46.799V18.2734Z" fill="#5AFB38"/>
<path d="M50.201 18.2734H53.6031V21.3418H50.201V18.2734Z" fill="#5AFB38"/>
<path d="M53.6032 18.2734H57.0052V21.3418H53.6032V18.2734Z" fill="#5AFB38"/>
<path d="M56.9965 18.2734H60.3986V21.3418H56.9965V18.2734Z" fill="#5AFB38"/>
<path d="M60.3986 18.2734H63.8007V21.3418H60.3986V18.2734Z" fill="#5AFB38"/>
<path d="M63.8007 18.2734H67.2028V21.3418H63.8007V18.2734Z" fill="#5AFB38"/>
<path d="M67.2028 18.2734H70.6049V21.3418H67.2028V18.2734Z" fill="#5AFB38"/>
<path d="M70.5962 18.2734H73.9983V21.3418H70.5962V18.2734Z" fill="#5AFB38"/>
<path d="M73.9983 18.2734H77.4004V21.3418H73.9983V18.2734Z" fill="#5AFB38"/>
<path d="M77.4004 18.2734H80.8025V21.3418H77.4004V18.2734Z" fill="#5AFB38"/>
<path d="M80.8025 18.2734H84.2046V21.3418H80.8025V18.2734Z" fill="#5AFB38"/>
<path d="M84.1958 18.2734H87.5979V21.3418H84.1958V18.2734Z" fill="white"/>
<path d="M87.5979 18.2734H91V21.3418H87.5979V18.2734Z" fill="black"/>
<path d="M6 15.2051H9.4021V18.2734H6V15.2051Z" fill="black"/>
<path d="M9.4021 15.2051H12.8042V18.2734H9.4021V15.2051Z" fill="black"/>
<path d="M12.8042 15.2051H16.2063V18.2734H12.8042V15.2051Z" fill="white"/>
<path d="M16.1975 15.2051H19.5996V18.2734H16.1975V15.2051Z" fill="#5AFB38"/>
<path d="M19.5996 15.2051H23.0017V18.2734H19.5996V15.2051Z" fill="#5AFB38"/>
<path d="M23.0017 15.2051H26.4038V18.2734H23.0017V15.2051Z" fill="#5AFB38"/>
<path d="M26.4038 15.2051H29.8059V18.2734H26.4038V15.2051Z" fill="#5AFB38"/>
<path d="M29.7972 15.2051H33.1993V18.2734H29.7972V15.2051Z" fill="#5AFB38"/>
<path d="M33.1993 15.2051H36.6014V18.2734H33.1993V15.2051Z" fill="#5AFB38"/>
<path d="M36.6014 15.2051H40.0035V18.2734H36.6014V15.2051Z" fill="#5AFB38"/>
<path d="M40.0035 15.2051H43.4056V18.2734H40.0035V15.2051Z" fill="#5AFB38"/>
<path d="M43.3969 15.2051H46.799V18.2734H43.3969V15.2051Z" fill="#5AFB38"/>
<path d="M46.799 15.2051H50.201V18.2734H46.799V15.2051Z" fill="#5AFB38"/>
<path d="M50.201 15.2051H53.6031V18.2734H50.201V15.2051Z" fill="#5AFB38"/>
<path d="M53.6032 15.2051H57.0052V18.2734H53.6032V15.2051Z" fill="#5AFB38"/>
<path d="M56.9965 15.2051H60.3986V18.2734H56.9965V15.2051Z" fill="#5AFB38"/>
<path d="M60.3986 15.2051H63.8007V18.2734H60.3986V15.2051Z" fill="#5AFB38"/>
<path d="M63.8007 15.2051H67.2028V18.2734H63.8007V15.2051Z" fill="#5AFB38"/>
<path d="M67.2028 15.2051H70.6049V18.2734H67.2028V15.2051Z" fill="#5AFB38"/>
<path d="M70.5962 15.2051H73.9983V18.2734H70.5962V15.2051Z" fill="#5AFB38"/>
<path d="M73.9983 15.2051H77.4004V18.2734H73.9983V15.2051Z" fill="#5AFB38"/>
<path d="M77.4004 15.2051H80.8025V18.2734H77.4004V15.2051Z" fill="#5AFB38"/>
<path d="M80.8025 15.2051H84.2046V18.2734H80.8025V15.2051Z" fill="white"/>
<path d="M84.1958 15.2051H87.5979V18.2734H84.1958V15.2051Z" fill="black"/>
<path d="M87.5979 15.2051H91V18.2734H87.5979V15.2051Z" fill="black"/>
<path d="M9.4021 12.1367H12.8042V15.2051H9.4021V12.1367Z" fill="black"/>
<path d="M12.8042 12.1367H16.2063V15.2051H12.8042V12.1367Z" fill="black"/>
<path d="M16.1975 12.1367H19.5996V15.2051H16.1975V12.1367Z" fill="white"/>
<path d="M19.5996 12.1367H23.0017V15.2051H19.5996V12.1367Z" fill="#5AFB38"/>
<path d="M23.0017 12.1367H26.4038V15.2051H23.0017V12.1367Z" fill="#5AFB38"/>
<path d="M26.4038 12.1367H29.8059V15.2051H26.4038V12.1367Z" fill="#5AFB38"/>
<path d="M29.7972 12.1367H33.1993V15.2051H29.7972V12.1367Z" fill="#5AFB38"/>
<path d="M33.1993 12.1367H36.6014V15.2051H33.1993V12.1367Z" fill="#5AFB38"/>
<path d="M36.6014 12.1367H40.0035V15.2051H36.6014V12.1367Z" fill="#5AFB38"/>
<path d="M40.0035 12.1367H43.4056V15.2051H40.0035V12.1367Z" fill="#5AFB38"/>
<path d="M43.3969 12.1367H46.799V15.2051H43.3969V12.1367Z" fill="#5AFB38"/>
<path d="M46.799 12.1367H50.201V15.2051H46.799V12.1367Z" fill="#5AFB38"/>
<path d="M50.201 12.1367H53.6031V15.2051H50.201V12.1367Z" fill="#5AFB38"/>
<path d="M53.6032 12.1367H57.0052V15.2051H53.6032V12.1367Z" fill="#5AFB38"/>
<path d="M56.9965 12.1367H60.3986V15.2051H56.9965V12.1367Z" fill="#5AFB38"/>
<path d="M60.3986 12.1367H63.8007V15.2051H60.3986V12.1367Z" fill="#5AFB38"/>
<path d="M63.8007 12.1367H67.2028V15.2051H63.8007V12.1367Z" fill="#5AFB38"/>
<path d="M67.2028 12.1367H70.6049V15.2051H67.2028V12.1367Z" fill="#5AFB38"/>
<path d="M70.5962 12.1367H73.9983V15.2051H70.5962V12.1367Z" fill="#5AFB38"/>
<path d="M73.9983 12.1367H77.4004V15.2051H73.9983V12.1367Z" fill="#5AFB38"/>
<path d="M77.4004 12.1367H80.8025V15.2051H77.4004V12.1367Z" fill="white"/>
<path d="M80.8025 12.1367H84.2046V15.2051H80.8025V12.1367Z" fill="black"/>
<path d="M84.1958 12.1367H87.5979V15.2051H84.1958V12.1367Z" fill="black"/>
<path d="M12.8042 9.06836H16.2063V12.1367H12.8042V9.06836Z" fill="black"/>
<path d="M16.1975 9.06836H19.5996V12.1367H16.1975V9.06836Z" fill="black"/>
<path d="M19.5996 9.06836H23.0017V12.1367H19.5996V9.06836Z" fill="white"/>
<path d="M23.0017 9.06836H26.4038V12.1367H23.0017V9.06836Z" fill="white"/>
<path d="M26.4038 9.06836H29.8059V12.1367H26.4038V9.06836Z" fill="white"/>
<path d="M29.7972 9.06836H33.1993V12.1367H29.7972V9.06836Z" fill="white"/>
<path d="M33.1993 9.06836H36.6014V12.1367H33.1993V9.06836Z" fill="white"/>
<path d="M36.6014 9.06836H40.0035V12.1367H36.6014V9.06836Z" fill="white"/>
<path d="M40.0035 9.06836H43.4056V12.1367H40.0035V9.06836Z" fill="white"/>
<path d="M43.3969 9.06836H46.799V12.1367H43.3969V9.06836Z" fill="white"/>
<path d="M46.799 9.06836H50.201V12.1367H46.799V9.06836Z" fill="white"/>
<path d="M50.201 9.06836H53.6031V12.1367H50.201V9.06836Z" fill="white"/>
<path d="M53.6032 9.06836H57.0052V12.1367H53.6032V9.06836Z" fill="white"/>
<path d="M56.9965 9.06836H60.3986V12.1367H56.9965V9.06836Z" fill="white"/>
<path d="M60.3986 9.06836H63.8007V12.1367H60.3986V9.06836Z" fill="white"/>
<path d="M63.8007 9.06836H67.2028V12.1367H63.8007V9.06836Z" fill="white"/>
<path d="M67.2028 9.06836H70.6049V12.1367H67.2028V9.06836Z" fill="white"/>
<path d="M70.5962 9.06836H73.9983V12.1367H70.5962V9.06836Z" fill="white"/>
<path d="M73.9983 9.06836H77.4004V12.1367H73.9983V9.06836Z" fill="white"/>
<path d="M77.4004 9.06836H80.8025V12.1367H77.4004V9.06836Z" fill="black"/>
<path d="M80.8025 9.06836H84.2046V12.1367H80.8025V9.06836Z" fill="black"/>
<path d="M16.1975 6H19.5996V9.06834H16.1975V6Z" fill="black"/>
<path d="M19.5996 6H23.0017V9.06834H19.5996V6Z" fill="black"/>
<path d="M23.0017 6H26.4038V9.06834H23.0017V6Z" fill="black"/>
<path d="M26.4038 6H29.8059V9.06834H26.4038V6Z" fill="black"/>
<path d="M29.7972 6H33.1993V9.06834H29.7972V6Z" fill="black"/>
<path d="M33.1993 6H36.6014V9.06834H33.1993V6Z" fill="black"/>
<path d="M36.6014 6H40.0035V9.06834H36.6014V6Z" fill="black"/>
<path d="M40.0035 6H43.4056V9.06834H40.0035V6Z" fill="black"/>
<path d="M43.3969 6H46.799V9.06834H43.3969V6Z" fill="black"/>
<path d="M46.799 6H50.201V9.06834H46.799V6Z" fill="black"/>
<path d="M50.201 6H53.6031V9.06834H50.201V6Z" fill="black"/>
<path d="M53.6032 6H57.0052V9.06834H53.6032V6Z" fill="black"/>
<path d="M56.9965 6H60.3986V9.06834H56.9965V6Z" fill="black"/>
<path d="M60.3986 6H63.8007V9.06834H60.3986V6Z" fill="black"/>
<path d="M63.8007 6H67.2028V9.06834H63.8007V6Z" fill="black"/>
<path d="M67.2028 6H70.6049V9.06834H67.2028V6Z" fill="black"/>
<path d="M70.5962 6H73.9983V9.06834H70.5962V6Z" fill="black"/>
<path d="M73.9983 6H77.4004V9.06834H73.9983V6Z" fill="black"/>
<path d="M77.4004 6H80.8025V9.06834H77.4004V6Z" fill="black"/>
</g>
<rect x="3" y="-3" width="91" height="95" rx="11" transform="matrix(-1 0 0 1 97 6)" stroke="#FC4198" stroke-width="6"/>
<defs>
<clipPath id="clip0_2154_245950">
<rect width="85" height="89" rx="8" transform="matrix(-1 0 0 1 91 6)" fill="white"/>
</clipPath>
</defs>
</svg>
