<svg width="97" height="101" viewBox="0 0 97 101" fill="none" xmlns="http://www.w3.org/2000/svg">
<g clip-path="url(#clip0_2105_263221)">
<rect x="6" y="6" width="85" height="89" rx="8" fill="#FC4198"/>
<path d="M84.1958 91.9316H80.7937V95H84.1958V91.9316Z" fill="black"/>
<path d="M80.8025 91.9316H77.4004V95H80.8025V91.9316Z" fill="black"/>
<path d="M77.4004 91.9316H73.9983V95H77.4004V91.9316Z" fill="black"/>
<path d="M73.9983 91.9316H70.5962V95H73.9983V91.9316Z" fill="black"/>
<path d="M70.5962 91.9316H67.1941V95H70.5962V91.9316Z" fill="black"/>
<path d="M67.2029 91.9316H63.8008V95H67.2029V91.9316Z" fill="black"/>
<path d="M63.8008 91.9316H60.3987V95H63.8008V91.9316Z" fill="black"/>
<path d="M60.3987 91.9316H56.9966V95H60.3987V91.9316Z" fill="black"/>
<path d="M56.9966 91.9316H53.5945V95H56.9966V91.9316Z" fill="black"/>
<path d="M53.603 91.9316H50.2009V95H53.603V91.9316Z" fill="black"/>
<path d="M50.2009 91.9316H46.7988V95H50.2009V91.9316Z" fill="black"/>
<path d="M46.7988 91.9316H43.3967V95H46.7988V91.9316Z" fill="black"/>
<path d="M43.3967 91.9316H39.9946V95H43.3967V91.9316Z" fill="black"/>
<path d="M40.0034 91.9316H36.6013V95H40.0034V91.9316Z" fill="black"/>
<path d="M36.6013 91.9316H33.1992V95H36.6013V91.9316Z" fill="black"/>
<path d="M33.1992 91.9316H29.7971V95H33.1992V91.9316Z" fill="black"/>
<path d="M29.7971 91.9316H26.395V95H29.7971V91.9316Z" fill="black"/>
<path d="M26.4038 91.9316H23.0017V95H26.4038V91.9316Z" fill="black"/>
<path d="M23.0017 91.9316H19.5996V95H23.0017V91.9316Z" fill="black"/>
<path d="M19.5996 91.9316H16.1975V95H19.5996V91.9316Z" fill="#38203E"/>
<path d="M16.1975 91.9316H12.7954V95H16.1975V91.9316Z" fill="black"/>
<path d="M87.5979 88.8633H84.1958V91.9316H87.5979V88.8633Z" fill="black"/>
<path d="M84.1958 88.8633H80.7937V91.9316H84.1958V88.8633Z" fill="black"/>
<path d="M80.8025 88.8633H77.4004V91.9316H80.8025V88.8633Z" fill="white"/>
<path d="M77.4004 88.8633H73.9983V91.9316H77.4004V88.8633Z" fill="white"/>
<path d="M73.9983 88.8633H70.5962V91.9316H73.9983V88.8633Z" fill="white"/>
<path d="M70.5962 88.8633H67.1941V91.9316H70.5962V88.8633Z" fill="white"/>
<path d="M67.2029 88.8633H63.8008V91.9316H67.2029V88.8633Z" fill="white"/>
<path d="M63.8008 88.8633H60.3987V91.9316H63.8008V88.8633Z" fill="white"/>
<path d="M60.3987 88.8633H56.9966V91.9316H60.3987V88.8633Z" fill="white"/>
<path d="M56.9966 88.8633H53.5945V91.9316H56.9966V88.8633Z" fill="white"/>
<path d="M53.603 88.8633H50.2009V91.9316H53.603V88.8633Z" fill="white"/>
<path d="M50.2009 88.8633H46.7988V91.9316H50.2009V88.8633Z" fill="white"/>
<path d="M46.7988 88.8633H43.3967V91.9316H46.7988V88.8633Z" fill="white"/>
<path d="M43.3967 88.8633H39.9946V91.9316H43.3967V88.8633Z" fill="white"/>
<path d="M40.0034 88.8633H36.6013V91.9316H40.0034V88.8633Z" fill="white"/>
<path d="M36.6013 88.8633H33.1992V91.9316H36.6013V88.8633Z" fill="white"/>
<path d="M33.1992 88.8633H29.7971V91.9316H33.1992V88.8633Z" fill="white"/>
<path d="M29.7971 88.8633H26.395V91.9316H29.7971V88.8633Z" fill="white"/>
<path d="M26.4038 88.8633H23.0017V91.9316H26.4038V88.8633Z" fill="white"/>
<path d="M23.0017 88.8633H19.5996V91.9316H23.0017V88.8633Z" fill="white"/>
<path d="M19.5996 88.8633H16.1975V91.9316H19.5996V88.8633Z" fill="white"/>
<path d="M16.1975 88.8633H12.7954V91.9316H16.1975V88.8633Z" fill="black"/>
<path d="M12.8042 88.8633H9.4021V91.9316H12.8042V88.8633Z" fill="black"/>
<path d="M91 85.7949H87.5979V88.8633H91V85.7949Z" fill="black"/>
<path d="M87.5979 85.7949H84.1958V88.8633H87.5979V85.7949Z" fill="black"/>
<path d="M84.1958 85.7949H80.7937V88.8633H84.1958V85.7949Z" fill="white"/>
<path d="M80.8025 85.7949H77.4004V88.8633H80.8025V85.7949Z" fill="#5AFB38"/>
<path d="M77.4004 85.7949H73.9983V88.8633H77.4004V85.7949Z" fill="#5AFB38"/>
<path d="M73.9983 85.7949H70.5962V88.8633H73.9983V85.7949Z" fill="#5AFB38"/>
<path d="M70.5962 85.7949H67.1941V88.8633H70.5962V85.7949Z" fill="#5AFB38"/>
<path d="M67.2029 85.7949H63.8008V88.8633H67.2029V85.7949Z" fill="#5AFB38"/>
<path d="M63.8008 85.7949H60.3987V88.8633H63.8008V85.7949Z" fill="#5AFB38"/>
<path d="M60.3987 85.7949H56.9966V88.8633H60.3987V85.7949Z" fill="#5AFB38"/>
<path d="M56.9966 85.7949H53.5945V88.8633H56.9966V85.7949Z" fill="#5AFB38"/>
<path d="M53.603 85.7949H50.2009V88.8633H53.603V85.7949Z" fill="#5AFB38"/>
<path d="M50.2009 85.7949H46.7988V88.8633H50.2009V85.7949Z" fill="#5AFB38"/>
<path d="M46.7988 85.7949H43.3967V88.8633H46.7988V85.7949Z" fill="#5AFB38"/>
<path d="M43.3967 85.7949H39.9946V88.8633H43.3967V85.7949Z" fill="#5AFB38"/>
<path d="M40.0034 85.7949H36.6013V88.8633H40.0034V85.7949Z" fill="#5AFB38"/>
<path d="M36.6013 85.7949H33.1992V88.8633H36.6013V85.7949Z" fill="#5AFB38"/>
<path d="M33.1992 85.7949H29.7971V88.8633H33.1992V85.7949Z" fill="#5AFB38"/>
<path d="M29.7971 85.7949H26.395V88.8633H29.7971V85.7949Z" fill="#5AFB38"/>
<path d="M26.4038 85.7949H23.0017V88.8633H26.4038V85.7949Z" fill="#5AFB38"/>
<path d="M23.0017 85.7949H19.5996V88.8633H23.0017V85.7949Z" fill="#5AFB38"/>
<path d="M19.5996 85.7949H16.1975V88.8633H19.5996V85.7949Z" fill="#AEDEFE"/>
<path d="M16.1975 85.7949H12.7954V88.8633H16.1975V85.7949Z" fill="white"/>
<path d="M12.8042 85.7949H9.4021V88.8633H12.8042V85.7949Z" fill="black"/>
<path d="M9.4021 85.7949H6V88.8633H9.4021V85.7949Z" fill="black"/>
<path d="M91 82.7266H87.5979V85.7949H91V82.7266Z" fill="black"/>
<path d="M87.5979 82.7266H84.1958V85.7949H87.5979V82.7266Z" fill="white"/>
<path d="M84.1958 82.7266H80.7937V85.7949H84.1958V82.7266Z" fill="#5AFB38"/>
<path d="M80.8025 82.7266H77.4004V85.7949H80.8025V82.7266Z" fill="#5AFB38"/>
<path d="M77.4004 82.7266H73.9983V85.7949H77.4004V82.7266Z" fill="#5AFB38"/>
<path d="M73.9983 82.7266H70.5962V85.7949H73.9983V82.7266Z" fill="#5AFB38"/>
<path d="M70.5962 82.7266H67.1941V85.7949H70.5962V82.7266Z" fill="#5AFB38"/>
<path d="M67.2029 82.7266H63.8008V85.7949H67.2029V82.7266Z" fill="#5AFB38"/>
<path d="M63.8008 82.7266H60.3987V85.7949H63.8008V82.7266Z" fill="#5AFB38"/>
<path d="M60.3987 82.7266H56.9966V85.7949H60.3987V82.7266Z" fill="#5AFB38"/>
<path d="M56.9966 82.7266H53.5945V85.7949H56.9966V82.7266Z" fill="#5AFB38"/>
<path d="M53.603 82.7266H50.2009V85.7949H53.603V82.7266Z" fill="#5AFB38"/>
<path d="M50.2009 82.7266H46.7988V85.7949H50.2009V82.7266Z" fill="#5AFB38"/>
<path d="M46.7988 82.7266H43.3967V85.7949H46.7988V82.7266Z" fill="#5AFB38"/>
<path d="M43.3967 82.7266H39.9946V85.7949H43.3967V82.7266Z" fill="#5AFB38"/>
<path d="M40.0034 82.7266H36.6013V85.7949H40.0034V82.7266Z" fill="#5AFB38"/>
<path d="M36.6013 82.7266H33.1992V85.7949H36.6013V82.7266Z" fill="#5AFB38"/>
<path d="M33.1992 82.7266H29.7971V85.7949H33.1992V82.7266Z" fill="#5AFB38"/>
<path d="M29.7971 82.7266H26.395V85.7949H29.7971V82.7266Z" fill="#5AFB38"/>
<path d="M26.4038 82.7266H23.0017V85.7949H26.4038V82.7266Z" fill="#5AFB38"/>
<path d="M23.0017 82.7266H19.5996V85.7949H23.0017V82.7266Z" fill="#5AFB38"/>
<path d="M19.5996 82.7266H16.1975V85.7949H19.5996V82.7266Z" fill="#5AFB38"/>
<path d="M16.1975 82.7266H12.7954V85.7949H16.1975V82.7266Z" fill="#5AFB38"/>
<path d="M12.8042 82.7266H9.4021V85.7949H12.8042V82.7266Z" fill="white"/>
<path d="M9.4021 82.7266H6V85.7949H9.4021V82.7266Z" fill="black"/>
<path d="M91 79.6582H87.5979V82.7265H91V79.6582Z" fill="black"/>
<path d="M87.5979 79.6582H84.1958V82.7265H87.5979V79.6582Z" fill="white"/>
<path d="M84.1958 79.6582H80.7937V82.7265H84.1958V79.6582Z" fill="#5AFB38"/>
<path d="M80.8025 79.6582H77.4004V82.7265H80.8025V79.6582Z" fill="#5AFB38"/>
<path d="M77.4004 79.6582H73.9983V82.7265H77.4004V79.6582Z" fill="#5AFB38"/>
<path d="M73.9983 79.6582H70.5962V82.7265H73.9983V79.6582Z" fill="#5AFB38"/>
<path d="M70.5962 79.6582H67.1941V82.7265H70.5962V79.6582Z" fill="#5AFB38"/>
<path d="M67.2029 79.6582H63.8008V82.7265H67.2029V79.6582Z" fill="#5AFB38"/>
<path d="M63.8008 79.6582H60.3987V82.7265H63.8008V79.6582Z" fill="#5AFB38"/>
<path d="M60.3987 79.6582H56.9966V82.7265H60.3987V79.6582Z" fill="#5AFB38"/>
<path d="M56.9966 79.6582H53.5945V82.7265H56.9966V79.6582Z" fill="#5AFB38"/>
<path d="M53.603 79.6582H50.2009V82.7265H53.603V79.6582Z" fill="#5AFB38"/>
<path d="M50.2009 79.6582H46.7988V82.7265H50.2009V79.6582Z" fill="#5AFB38"/>
<path d="M46.7988 79.6582H43.3967V82.7265H46.7988V79.6582Z" fill="#5AFB38"/>
<path d="M43.3967 79.6582H39.9946V82.7265H43.3967V79.6582Z" fill="#5AFB38"/>
<path d="M40.0034 79.6582H36.6013V82.7265H40.0034V79.6582Z" fill="#5AFB38"/>
<path d="M36.6013 79.6582H33.1992V82.7265H36.6013V79.6582Z" fill="#5AFB38"/>
<path d="M33.1992 79.6582H29.7971V82.7265H33.1992V79.6582Z" fill="#5AFB38"/>
<path d="M29.7971 79.6582H26.395V82.7265H29.7971V79.6582Z" fill="#5AFB38"/>
<path d="M26.4038 79.6582H23.0017V82.7265H26.4038V79.6582Z" fill="#5AFB38"/>
<path d="M23.0017 79.6582H19.5996V82.7265H23.0017V79.6582Z" fill="#5AFB38"/>
<path d="M19.5996 79.6582H16.1975V82.7265H19.5996V79.6582Z" fill="#5AFB38"/>
<path d="M16.1975 79.6582H12.7954V82.7265H16.1975V79.6582Z" fill="#5AFB38"/>
<path d="M12.8042 79.6582H9.4021V82.7265H12.8042V79.6582Z" fill="white"/>
<path d="M9.4021 79.6582H6V82.7265H9.4021V79.6582Z" fill="black"/>
<path d="M91 76.5901H87.5979V79.6584H91V76.5901Z" fill="black"/>
<path d="M87.5979 76.5901H84.1958V79.6584H87.5979V76.5901Z" fill="white"/>
<path d="M84.1958 76.5901H80.7937V79.6584H84.1958V76.5901Z" fill="#5AFB38"/>
<path d="M80.8025 76.5901H77.4004V79.6584H80.8025V76.5901Z" fill="#5AFB38"/>
<path d="M77.4004 76.5901H73.9983V79.6584H77.4004V76.5901Z" fill="#5AFB38"/>
<path d="M73.9983 76.5901H70.5962V79.6584H73.9983V76.5901Z" fill="#5AFB38"/>
<path d="M70.5962 76.5901H67.1941V79.6584H70.5962V76.5901Z" fill="#5AFB38"/>
<path d="M67.2029 76.5901H63.8008V79.6584H67.2029V76.5901Z" fill="#5AFB38"/>
<path d="M63.8008 76.5901H60.3987V79.6584H63.8008V76.5901Z" fill="#5AFB38"/>
<path d="M60.3987 76.5901H56.9966V79.6584H60.3987V76.5901Z" fill="#5AFB38"/>
<path d="M56.9966 76.5901H53.5945V79.6584H56.9966V76.5901Z" fill="#5AFB38"/>
<path d="M53.603 76.5901H50.2009V79.6584H53.603V76.5901Z" fill="#5AFB38"/>
<path d="M50.2009 76.5901H46.7988V79.6584H50.2009V76.5901Z" fill="#5AFB38"/>
<path d="M46.7988 76.5901H43.3967V79.6584H46.7988V76.5901Z" fill="#5AFB38"/>
<path d="M43.3967 76.5901H39.9946V79.6584H43.3967V76.5901Z" fill="#5AFB38"/>
<path d="M40.0034 76.5901H36.6013V79.6584H40.0034V76.5901Z" fill="#5AFB38"/>
<path d="M36.6013 76.5901H33.1992V79.6584H36.6013V76.5901Z" fill="#5AFB38"/>
<path d="M33.1992 76.5901H29.7971V79.6584H33.1992V76.5901Z" fill="#5AFB38"/>
<path d="M29.7971 76.5901H26.395V79.6584H29.7971V76.5901Z" fill="#5AFB38"/>
<path d="M26.4038 76.5901H23.0017V79.6584H26.4038V76.5901Z" fill="#5AFB38"/>
<path d="M23.0017 76.5901H19.5996V79.6584H23.0017V76.5901Z" fill="#5AFB38"/>
<path d="M19.5996 76.5901H16.1975V79.6584H19.5996V76.5901Z" fill="#5AFB38"/>
<path d="M16.1975 76.5901H12.7954V79.6584H16.1975V76.5901Z" fill="#5AFB38"/>
<path d="M12.8042 76.5901H9.4021V79.6584H12.8042V76.5901Z" fill="white"/>
<path d="M9.4021 76.5901H6V79.6584H9.4021V76.5901Z" fill="black"/>
<path d="M91 73.5125H87.5979V76.5808H91V73.5125Z" fill="black"/>
<path d="M87.5979 73.5125H84.1958V76.5808H87.5979V73.5125Z" fill="white"/>
<path d="M84.1958 73.5125H80.7937V76.5808H84.1958V73.5125Z" fill="#5AFB38"/>
<path d="M80.8025 73.5125H77.4004V76.5808H80.8025V73.5125Z" fill="#5AFB38"/>
<path d="M77.4004 73.5125H73.9983V76.5808H77.4004V73.5125Z" fill="#5AFB38"/>
<path d="M73.9983 73.5125H70.5962V76.5808H73.9983V73.5125Z" fill="#5AFB38"/>
<path d="M70.5962 73.5125H67.1941V76.5808H70.5962V73.5125Z" fill="#5AFB38"/>
<path d="M67.2029 73.5125H63.8008V76.5808H67.2029V73.5125Z" fill="#5AFB38"/>
<path d="M63.8008 73.5125H60.3987V76.5808H63.8008V73.5125Z" fill="#5AFB38"/>
<path d="M60.3987 73.5125H56.9966V76.5808H60.3987V73.5125Z" fill="#5AFB38"/>
<path d="M56.9966 73.5125H53.5945V76.5808H56.9966V73.5125Z" fill="#5AFB38"/>
<path d="M53.603 73.5125H50.2009V76.5808H53.603V73.5125Z" fill="#5AFB38"/>
<path d="M50.2009 73.5125H46.7988V76.5808H50.2009V73.5125Z" fill="#5AFB38"/>
<path d="M46.7988 73.5125H43.3967V76.5808H46.7988V73.5125Z" fill="#5AFB38"/>
<path d="M43.3967 73.5125H39.9946V76.5808H43.3967V73.5125Z" fill="#5AFB38"/>
<path d="M40.0034 73.5125H36.6013V76.5808H40.0034V73.5125Z" fill="#5AFB38"/>
<path d="M36.6013 73.5125H33.1992V76.5808H36.6013V73.5125Z" fill="#5AFB38"/>
<path d="M33.1992 73.5125H29.7971V76.5808H33.1992V73.5125Z" fill="#5AFB38"/>
<path d="M29.7971 73.5125H26.395V76.5808H29.7971V73.5125Z" fill="#5AFB38"/>
<path d="M26.4038 73.5125H23.0017V76.5808H26.4038V73.5125Z" fill="#5AFB38"/>
<path d="M23.0017 73.5125H19.5996V76.5808H23.0017V73.5125Z" fill="#5AFB38"/>
<path d="M19.5996 73.5125H16.1975V76.5808H19.5996V73.5125Z" fill="#5AFB38"/>
<path d="M16.1975 73.5125H12.7954V76.5808H16.1975V73.5125Z" fill="#5AFB38"/>
<path d="M12.8042 73.5125H9.4021V76.5808H12.8042V73.5125Z" fill="white"/>
<path d="M9.4021 73.5125H6V76.5808H9.4021V73.5125Z" fill="black"/>
<path d="M91 70.4441H87.5979V73.5124H91V70.4441Z" fill="black"/>
<path d="M87.5979 70.4441H84.1958V73.5124H87.5979V70.4441Z" fill="white"/>
<path d="M84.1958 70.4441H80.7937V73.5124H84.1958V70.4441Z" fill="#5AFB38"/>
<path d="M80.8025 70.4441H77.4004V73.5124H80.8025V70.4441Z" fill="#5AFB38"/>
<path d="M77.4004 70.4441H73.9983V73.5124H77.4004V70.4441Z" fill="#5AFB38"/>
<path d="M73.9983 70.4441H70.5962V73.5124H73.9983V70.4441Z" fill="#5AFB38"/>
<path d="M70.5962 70.4441H67.1941V73.5124H70.5962V70.4441Z" fill="#5AFB38"/>
<path d="M67.2029 70.4441H63.8008V73.5124H67.2029V70.4441Z" fill="#5AFB38"/>
<path d="M63.8008 70.4441H60.3987V73.5124H63.8008V70.4441Z" fill="#5AFB38"/>
<path d="M60.3987 70.4441H56.9966V73.5124H60.3987V70.4441Z" fill="#5AFB38"/>
<path d="M56.9966 70.4441H53.5945V73.5124H56.9966V70.4441Z" fill="#5AFB38"/>
<path d="M53.603 70.4441H50.2009V73.5124H53.603V70.4441Z" fill="black"/>
<path d="M50.2009 70.4441H46.7988V73.5124H50.2009V70.4441Z" fill="white"/>
<path d="M46.7988 70.4441H43.3967V73.5124H46.7988V70.4441Z" fill="#5AFB38"/>
<path d="M43.3967 70.4441H39.9946V73.5124H43.3967V70.4441Z" fill="#5AFB38"/>
<path d="M40.0034 70.4441H36.6013V73.5124H40.0034V70.4441Z" fill="#5AFB38"/>
<path d="M36.6013 70.4441H33.1992V73.5124H36.6013V70.4441Z" fill="#5AFB38"/>
<path d="M33.1992 70.4441H29.7971V73.5124H33.1992V70.4441Z" fill="#5AFB38"/>
<path d="M29.7971 70.4441H26.395V73.5124H29.7971V70.4441Z" fill="#5AFB38"/>
<path d="M26.4038 70.4441H23.0017V73.5124H26.4038V70.4441Z" fill="#5AFB38"/>
<path d="M23.0017 70.4441H19.5996V73.5124H23.0017V70.4441Z" fill="#5AFB38"/>
<path d="M19.5996 70.4441H16.1975V73.5124H19.5996V70.4441Z" fill="#5AFB38"/>
<path d="M16.1975 70.4441H12.7954V73.5124H16.1975V70.4441Z" fill="#5AFB38"/>
<path d="M12.8042 70.4441H9.4021V73.5124H12.8042V70.4441Z" fill="white"/>
<path d="M9.4021 70.4441H6V73.5124H9.4021V70.4441Z" fill="black"/>
<path d="M91 67.3757H87.5979V70.4441H91V67.3757Z" fill="black"/>
<path d="M87.5979 67.3757H84.1958V70.4441H87.5979V67.3757Z" fill="white"/>
<path d="M84.1958 67.3757H80.7937V70.4441H84.1958V67.3757Z" fill="#5AFB38"/>
<path d="M80.8025 67.3757H77.4004V70.4441H80.8025V67.3757Z" fill="#5AFB38"/>
<path d="M77.4004 67.3757H73.9983V70.4441H77.4004V67.3757Z" fill="#5AFB38"/>
<path d="M73.9983 67.3757H70.5962V70.4441H73.9983V67.3757Z" fill="#5AFB38"/>
<path d="M70.5962 67.3757H67.1941V70.4441H70.5962V67.3757Z" fill="#5AFB38"/>
<path d="M67.2029 67.3757H63.8008V70.4441H67.2029V67.3757Z" fill="#5AFB38"/>
<path d="M63.8008 67.3757H60.3987V70.4441H63.8008V67.3757Z" fill="#5AFB38"/>
<path d="M60.3987 67.3757H56.9966V70.4441H60.3987V67.3757Z" fill="#5AFB38"/>
<path d="M56.9966 67.3757H53.5945V70.4441H56.9966V67.3757Z" fill="#341C3B"/>
<path d="M53.603 67.3757H50.2009V70.4441H53.603V67.3757Z" fill="black"/>
<path d="M50.2009 67.3757H46.7988V70.4441H50.2009V67.3757Z" fill="white"/>
<path d="M46.7988 67.3757H43.3967V70.4441H46.7988V67.3757Z" fill="#5AFB38"/>
<path d="M43.3967 67.3757H39.9946V70.4441H43.3967V67.3757Z" fill="#5AFB38"/>
<path d="M40.0034 67.3757H36.6013V70.4441H40.0034V67.3757Z" fill="#5AFB38"/>
<path d="M36.6013 67.3757H33.1992V70.4441H36.6013V67.3757Z" fill="#5AFB38"/>
<path d="M33.1992 67.3757H29.7971V70.4441H33.1992V67.3757Z" fill="#5AFB38"/>
<path d="M29.7971 67.3757H26.395V70.4441H29.7971V67.3757Z" fill="#5AFB38"/>
<path d="M26.4038 67.3757H23.0017V70.4441H26.4038V67.3757Z" fill="#5AFB38"/>
<path d="M23.0017 67.3757H19.5996V70.4441H23.0017V67.3757Z" fill="#5AFB38"/>
<path d="M19.5996 67.3757H16.1975V70.4441H19.5996V67.3757Z" fill="#5AFB38"/>
<path d="M16.1975 67.3757H12.7954V70.4441H16.1975V67.3757Z" fill="#5AFB38"/>
<path d="M12.8042 67.3757H9.4021V70.4441H12.8042V67.3757Z" fill="white"/>
<path d="M9.4021 67.3757H6V70.4441H9.4021V67.3757Z" fill="black"/>
<path d="M91 64.3076H87.5979V67.376H91V64.3076Z" fill="black"/>
<path d="M87.5979 64.3076H84.1958V67.376H87.5979V64.3076Z" fill="white"/>
<path d="M84.1958 64.3076H80.7937V67.376H84.1958V64.3076Z" fill="#5AFB38"/>
<path d="M80.8025 64.3076H77.4004V67.376H80.8025V64.3076Z" fill="#5AFB38"/>
<path d="M77.4004 64.3076H73.9983V67.376H77.4004V64.3076Z" fill="#5AFB38"/>
<path d="M73.9983 64.3076H70.5962V67.376H73.9983V64.3076Z" fill="#5AFB38"/>
<path d="M70.5962 64.3076H67.1941V67.376H70.5962V64.3076Z" fill="#5AFB38"/>
<path d="M67.2029 64.3076H63.8008V67.376H67.2029V64.3076Z" fill="#5AFB38"/>
<path d="M63.8008 64.3076H60.3987V67.376H63.8008V64.3076Z" fill="#5AFB38"/>
<path d="M60.3987 64.3076H56.9966V67.376H60.3987V64.3076Z" fill="black"/>
<path d="M56.9966 64.3076H53.5945V67.376H56.9966V64.3076Z" fill="black"/>
<path d="M53.603 64.3076H50.2009V67.376H53.603V64.3076Z" fill="white"/>
<path d="M50.2009 64.3076H46.7988V67.376H50.2009V64.3076Z" fill="#5AFB38"/>
<path d="M46.7988 64.3076H43.3967V67.376H46.7988V64.3076Z" fill="#5AFB38"/>
<path d="M43.3967 64.3076H39.9946V67.376H43.3967V64.3076Z" fill="#5AFB38"/>
<path d="M40.0034 64.3076H36.6013V67.376H40.0034V64.3076Z" fill="#5AFB38"/>
<path d="M36.6013 64.3076H33.1992V67.376H36.6013V64.3076Z" fill="#5AFB38"/>
<path d="M33.1992 64.3076H29.7971V67.376H33.1992V64.3076Z" fill="#5AFB38"/>
<path d="M29.7971 64.3076H26.395V67.376H29.7971V64.3076Z" fill="#5AFB38"/>
<path d="M26.4038 64.3076H23.0017V67.376H26.4038V64.3076Z" fill="#5AFB38"/>
<path d="M23.0017 64.3076H19.5996V67.376H23.0017V64.3076Z" fill="#5AFB38"/>
<path d="M19.5996 64.3076H16.1975V67.376H19.5996V64.3076Z" fill="#5AFB38"/>
<path d="M16.1975 64.3076H12.7954V67.376H16.1975V64.3076Z" fill="#5AFB38"/>
<path d="M12.8042 64.3076H9.4021V67.376H12.8042V64.3076Z" fill="white"/>
<path d="M9.4021 64.3076H6V67.376H9.4021V64.3076Z" fill="black"/>
<path d="M91 61.2393H87.5979V64.3076H91V61.2393Z" fill="black"/>
<path d="M87.5979 61.2393H84.1958V64.3076H87.5979V61.2393Z" fill="white"/>
<path d="M84.1958 61.2393H80.7937V64.3076H84.1958V61.2393Z" fill="#5AFB38"/>
<path d="M80.8025 61.2393H77.4004V64.3076H80.8025V61.2393Z" fill="#5AFB38"/>
<path d="M77.4004 61.2393H73.9983V64.3076H77.4004V61.2393Z" fill="#5AFB38"/>
<path d="M73.9983 61.2393H70.5962V64.3076H73.9983V61.2393Z" fill="#5AFB38"/>
<path d="M70.5962 61.2393H67.1941V64.3076H70.5962V61.2393Z" fill="#5AFB38"/>
<path d="M67.2029 61.2393H63.8008V64.3076H67.2029V61.2393Z" fill="#5AFB38"/>
<path d="M63.8008 61.2393H60.3987V64.3076H63.8008V61.2393Z" fill="black"/>
<path d="M60.3987 61.2393H56.9966V64.3076H60.3987V61.2393Z" fill="black"/>
<path d="M56.9966 61.2393H53.5945V64.3076H56.9966V61.2393Z" fill="white"/>
<path d="M53.603 61.2393H50.2009V64.3076H53.603V61.2393Z" fill="#5AFB38"/>
<path d="M50.2009 61.2393H46.7988V64.3076H50.2009V61.2393Z" fill="#5AFB38"/>
<path d="M46.7988 61.2393H43.3967V64.3076H46.7988V61.2393Z" fill="#5AFB38"/>
<path d="M43.3967 61.2393H39.9946V64.3076H43.3967V61.2393Z" fill="#5AFB38"/>
<path d="M40.0034 61.2393H36.6013V64.3076H40.0034V61.2393Z" fill="#5AFB38"/>
<path d="M36.6013 61.2393H33.1992V64.3076H36.6013V61.2393Z" fill="#5AFB38"/>
<path d="M33.1992 61.2393H29.7971V64.3076H33.1992V61.2393Z" fill="#5AFB38"/>
<path d="M29.7971 61.2393H26.395V64.3076H29.7971V61.2393Z" fill="#5AFB38"/>
<path d="M26.4038 61.2393H23.0017V64.3076H26.4038V61.2393Z" fill="#5AFB38"/>
<path d="M23.0017 61.2393H19.5996V64.3076H23.0017V61.2393Z" fill="#5AFB38"/>
<path d="M19.5996 61.2393H16.1975V64.3076H19.5996V61.2393Z" fill="#5AFB38"/>
<path d="M16.1975 61.2393H12.7954V64.3076H16.1975V61.2393Z" fill="#5AFB38"/>
<path d="M12.8042 61.2393H9.4021V64.3076H12.8042V61.2393Z" fill="white"/>
<path d="M9.4021 61.2393H6V64.3076H9.4021V61.2393Z" fill="black"/>
<path d="M91 58.1709H87.5979V61.2392H91V58.1709Z" fill="black"/>
<path d="M87.5979 58.1709H84.1958V61.2392H87.5979V58.1709Z" fill="white"/>
<path d="M84.1958 58.1709H80.7937V61.2392H84.1958V58.1709Z" fill="#5AFB38"/>
<path d="M80.8025 58.1709H77.4004V61.2392H80.8025V58.1709Z" fill="#5AFB38"/>
<path d="M77.4004 58.1709H73.9983V61.2392H77.4004V58.1709Z" fill="#5AFB38"/>
<path d="M73.9983 58.1709H70.5962V61.2392H73.9983V58.1709Z" fill="#5AFB38"/>
<path d="M70.5962 58.1709H67.1941V61.2392H70.5962V58.1709Z" fill="#5AFB38"/>
<path d="M67.2029 58.1709H63.8008V61.2392H67.2029V58.1709Z" fill="#5AFB38"/>
<path d="M63.8008 58.1709H60.3987V61.2392H63.8008V58.1709Z" fill="black"/>
<path d="M60.3987 58.1709H56.9966V61.2392H60.3987V58.1709Z" fill="white"/>
<path d="M56.9966 58.1709H53.5945V61.2392H56.9966V58.1709Z" fill="#5AFB38"/>
<path d="M53.603 58.1709H50.2009V61.2392H53.603V58.1709Z" fill="#5AFB38"/>
<path d="M50.2009 58.1709H46.7988V61.2392H50.2009V58.1709Z" fill="#5AFB38"/>
<path d="M46.7988 58.1709H43.3967V61.2392H46.7988V58.1709Z" fill="#5AFB38"/>
<path d="M43.3967 58.1709H39.9946V61.2392H43.3967V58.1709Z" fill="#5AFB38"/>
<path d="M40.0034 58.1709H36.6013V61.2392H40.0034V58.1709Z" fill="#5AFB38"/>
<path d="M36.6013 58.1709H33.1992V61.2392H36.6013V58.1709Z" fill="#5AFB38"/>
<path d="M33.1992 58.1709H29.7971V61.2392H33.1992V58.1709Z" fill="#5AFB38"/>
<path d="M29.7971 58.1709H26.395V61.2392H29.7971V58.1709Z" fill="#5AFB38"/>
<path d="M26.4038 58.1709H23.0017V61.2392H26.4038V58.1709Z" fill="#5AFB38"/>
<path d="M23.0017 58.1709H19.5996V61.2392H23.0017V58.1709Z" fill="#5AFB38"/>
<path d="M19.5996 58.1709H16.1975V61.2392H19.5996V58.1709Z" fill="#5AFB38"/>
<path d="M16.1975 58.1709H12.7954V61.2392H16.1975V58.1709Z" fill="#5AFB38"/>
<path d="M12.8042 58.1709H9.4021V61.2392H12.8042V58.1709Z" fill="white"/>
<path d="M9.4021 58.1709H6V61.2392H9.4021V58.1709Z" fill="black"/>
<path d="M91 55.1025H87.5979V58.1709H91V55.1025Z" fill="black"/>
<path d="M87.5979 55.1025H84.1958V58.1709H87.5979V55.1025Z" fill="white"/>
<path d="M84.1958 55.1025H80.7937V58.1709H84.1958V55.1025Z" fill="#5AFB38"/>
<path d="M80.8025 55.1025H77.4004V58.1709H80.8025V55.1025Z" fill="#5AFB38"/>
<path d="M77.4004 55.1025H73.9983V58.1709H77.4004V55.1025Z" fill="#5AFB38"/>
<path d="M73.9983 55.1025H70.5962V58.1709H73.9983V55.1025Z" fill="#5AFB38"/>
<path d="M70.5962 55.1025H67.1941V58.1709H70.5962V55.1025Z" fill="#5AFB38"/>
<path d="M67.2029 55.1025H63.8008V58.1709H67.2029V55.1025Z" fill="black"/>
<path d="M63.8008 55.1025H60.3987V58.1709H63.8008V55.1025Z" fill="black"/>
<path d="M60.3987 55.1025H56.9966V58.1709H60.3987V55.1025Z" fill="white"/>
<path d="M56.9966 55.1025H53.5945V58.1709H56.9966V55.1025Z" fill="#5AFB38"/>
<path d="M53.603 55.1025H50.2009V58.1709H53.603V55.1025Z" fill="#5AFB38"/>
<path d="M50.2009 55.1025H46.7988V58.1709H50.2009V55.1025Z" fill="#5AFB38"/>
<path d="M46.7988 55.1025H43.3967V58.1709H46.7988V55.1025Z" fill="#5AFB38"/>
<path d="M43.3967 55.1025H39.9946V58.1709H43.3967V55.1025Z" fill="#5AFB38"/>
<path d="M40.0034 55.1025H36.6013V58.1709H40.0034V55.1025Z" fill="#5AFB38"/>
<path d="M36.6013 55.1025H33.1992V58.1709H36.6013V55.1025Z" fill="#5AFB38"/>
<path d="M33.1992 55.1025H29.7971V58.1709H33.1992V55.1025Z" fill="#5AFB38"/>
<path d="M29.7971 55.1025H26.395V58.1709H29.7971V55.1025Z" fill="#5AFB38"/>
<path d="M26.4038 55.1025H23.0017V58.1709H26.4038V55.1025Z" fill="#5AFB38"/>
<path d="M23.0017 55.1025H19.5996V58.1709H23.0017V55.1025Z" fill="#5AFB38"/>
<path d="M19.5996 55.1025H16.1975V58.1709H19.5996V55.1025Z" fill="#5AFB38"/>
<path d="M16.1975 55.1025H12.7954V58.1709H16.1975V55.1025Z" fill="#5AFB38"/>
<path d="M12.8042 55.1025H9.4021V58.1709H12.8042V55.1025Z" fill="white"/>
<path d="M9.4021 55.1025H6V58.1709H9.4021V55.1025Z" fill="black"/>
<path d="M91 52.0342H87.5979V55.1025H91V52.0342Z" fill="black"/>
<path d="M87.5979 52.0342H84.1958V55.1025H87.5979V52.0342Z" fill="white"/>
<path d="M84.1958 52.0342H80.7937V55.1025H84.1958V52.0342Z" fill="#5AFB38"/>
<path d="M80.8025 52.0342H77.4004V55.1025H80.8025V52.0342Z" fill="#5AFB38"/>
<path d="M77.4004 52.0342H73.9983V55.1025H77.4004V52.0342Z" fill="#5AFB38"/>
<path d="M73.9983 52.0342H70.5962V55.1025H73.9983V52.0342Z" fill="#5AFB38"/>
<path d="M70.5962 52.0342H67.1941V55.1025H70.5962V52.0342Z" fill="black"/>
<path d="M67.2029 52.0342H63.8008V55.1025H67.2029V52.0342Z" fill="black"/>
<path d="M63.8008 52.0342H60.3987V55.1025H63.8008V52.0342Z" fill="black"/>
<path d="M60.3987 52.0342H56.9966V55.1025H60.3987V52.0342Z" fill="black"/>
<path d="M56.9966 52.0342H53.5945V55.1025H56.9966V52.0342Z" fill="black"/>
<path d="M53.603 52.0342H50.2009V55.1025H53.603V52.0342Z" fill="black"/>
<path d="M50.2009 52.0342H46.7988V55.1025H50.2009V52.0342Z" fill="black"/>
<path d="M46.7988 52.0342H43.3967V55.1025H46.7988V52.0342Z" fill="black"/>
<path d="M43.3967 52.0342H39.9946V55.1025H43.3967V52.0342Z" fill="black"/>
<path d="M40.0034 52.0342H36.6013V55.1025H40.0034V52.0342Z" fill="black"/>
<path d="M36.6013 52.0342H33.1992V55.1025H36.6013V52.0342Z" fill="black"/>
<path d="M33.1992 52.0342H29.7971V55.1025H33.1992V52.0342Z" fill="black"/>
<path d="M29.7971 52.0342H26.395V55.1025H29.7971V52.0342Z" fill="black"/>
<path d="M26.4038 52.0342H23.0017V55.1025H26.4038V52.0342Z" fill="white"/>
<path d="M23.0017 52.0342H19.5996V55.1025H23.0017V52.0342Z" fill="#5AFB38"/>
<path d="M19.5996 52.0342H16.1975V55.1025H19.5996V52.0342Z" fill="#5AFB38"/>
<path d="M16.1975 52.0342H12.7954V55.1025H16.1975V52.0342Z" fill="#5AFB38"/>
<path d="M12.8042 52.0342H9.4021V55.1025H12.8042V52.0342Z" fill="white"/>
<path d="M9.4021 52.0342H6V55.1025H9.4021V52.0342Z" fill="black"/>
<path d="M91 48.9658H87.5979V52.0342H91V48.9658Z" fill="black"/>
<path d="M87.5979 48.9658H84.1958V52.0342H87.5979V48.9658Z" fill="white"/>
<path d="M84.1958 48.9658H80.7937V52.0342H84.1958V48.9658Z" fill="#5AFB38"/>
<path d="M80.8025 48.9658H77.4004V52.0342H80.8025V48.9658Z" fill="#5AFB38"/>
<path d="M77.4004 48.9658H73.9983V52.0342H77.4004V48.9658Z" fill="#5AFB38"/>
<path d="M73.9983 48.9658H70.5962V52.0342H73.9983V48.9658Z" fill="#5AFB38"/>
<path d="M70.5962 48.9658H67.1941V52.0342H70.5962V48.9658Z" fill="black"/>
<path d="M67.2029 48.9658H63.8008V52.0342H67.2029V48.9658Z" fill="black"/>
<path d="M63.8008 48.9658H60.3987V52.0342H63.8008V48.9658Z" fill="black"/>
<path d="M60.3987 48.9658H56.9966V52.0342H60.3987V48.9658Z" fill="black"/>
<path d="M56.9966 48.9658H53.5945V52.0342H56.9966V48.9658Z" fill="black"/>
<path d="M53.603 48.9658H50.2009V52.0342H53.603V48.9658Z" fill="black"/>
<path d="M50.2009 48.9658H46.7988V52.0342H50.2009V48.9658Z" fill="black"/>
<path d="M46.7988 48.9658H43.3967V52.0342H46.7988V48.9658Z" fill="black"/>
<path d="M43.3967 48.9658H39.9946V52.0342H43.3967V48.9658Z" fill="black"/>
<path d="M40.0034 48.9658H36.6013V52.0342H40.0034V48.9658Z" fill="black"/>
<path d="M36.6013 48.9658H33.1992V52.0342H36.6013V48.9658Z" fill="black"/>
<path d="M33.1992 48.9658H29.7971V52.0342H33.1992V48.9658Z" fill="black"/>
<path d="M29.7971 48.9658H26.395V52.0342H29.7971V48.9658Z" fill="black"/>
<path d="M26.4038 48.9658H23.0017V52.0342H26.4038V48.9658Z" fill="white"/>
<path d="M23.0017 48.9658H19.5996V52.0342H23.0017V48.9658Z" fill="#5AFB38"/>
<path d="M19.5996 48.9658H16.1975V52.0342H19.5996V48.9658Z" fill="#5AFB38"/>
<path d="M16.1975 48.9658H12.7954V52.0342H16.1975V48.9658Z" fill="#5AFB38"/>
<path d="M12.8042 48.9658H9.4021V52.0342H12.8042V48.9658Z" fill="white"/>
<path d="M9.4021 48.9658H6V52.0342H9.4021V48.9658Z" fill="black"/>
<path d="M91 45.8975H87.5979V48.9658H91V45.8975Z" fill="black"/>
<path d="M87.5979 45.8975H84.1958V48.9658H87.5979V45.8975Z" fill="white"/>
<path d="M84.1958 45.8975H80.7937V48.9658H84.1958V45.8975Z" fill="#5AFB38"/>
<path d="M80.8025 45.8975H77.4004V48.9658H80.8025V45.8975Z" fill="#5AFB38"/>
<path d="M77.4004 45.8975H73.9983V48.9658H77.4004V45.8975Z" fill="#5AFB38"/>
<path d="M73.9983 45.8975H70.5962V48.9658H73.9983V45.8975Z" fill="#5AFB38"/>
<path d="M70.5962 45.8975H67.1941V48.9658H70.5962V45.8975Z" fill="black"/>
<path d="M67.2029 45.8975H63.8008V48.9658H67.2029V45.8975Z" fill="black"/>
<path d="M63.8008 45.8975H60.3987V48.9658H63.8008V45.8975Z" fill="black"/>
<path d="M60.3987 45.8975H56.9966V48.9658H60.3987V45.8975Z" fill="black"/>
<path d="M56.9966 45.8975H53.5945V48.9658H56.9966V45.8975Z" fill="black"/>
<path d="M53.603 45.8975H50.2009V48.9658H53.603V45.8975Z" fill="black"/>
<path d="M50.2009 45.8975H46.7988V48.9658H50.2009V45.8975Z" fill="black"/>
<path d="M46.7988 45.8975H43.3967V48.9658H46.7988V45.8975Z" fill="black"/>
<path d="M43.3967 45.8975H39.9946V48.9658H43.3967V45.8975Z" fill="black"/>
<path d="M40.0034 45.8975H36.6013V48.9658H40.0034V45.8975Z" fill="black"/>
<path d="M36.6013 45.8975H33.1992V48.9658H36.6013V45.8975Z" fill="black"/>
<path d="M33.1992 45.8975H29.7971V48.9658H33.1992V45.8975Z" fill="black"/>
<path d="M29.7971 45.8975H26.395V48.9658H29.7971V45.8975Z" fill="black"/>
<path d="M26.4038 45.8975H23.0017V48.9658H26.4038V45.8975Z" fill="white"/>
<path d="M23.0017 45.8975H19.5996V48.9658H23.0017V45.8975Z" fill="#5AFB38"/>
<path d="M19.5996 45.8975H16.1975V48.9658H19.5996V45.8975Z" fill="#5AFB38"/>
<path d="M16.1975 45.8975H12.7954V48.9658H16.1975V45.8975Z" fill="#5AFB38"/>
<path d="M12.8042 45.8975H9.4021V48.9658H12.8042V45.8975Z" fill="white"/>
<path d="M9.4021 45.8975H6V48.9658H9.4021V45.8975Z" fill="black"/>
<path d="M91 42.8291H87.5979V45.8974H91V42.8291Z" fill="black"/>
<path d="M87.5979 42.8291H84.1958V45.8974H87.5979V42.8291Z" fill="white"/>
<path d="M84.1958 42.8291H80.7937V45.8974H84.1958V42.8291Z" fill="#5AFB38"/>
<path d="M80.8025 42.8291H77.4004V45.8974H80.8025V42.8291Z" fill="#5AFB38"/>
<path d="M77.4004 42.8291H73.9983V45.8974H77.4004V42.8291Z" fill="#5AFB38"/>
<path d="M73.9983 42.8291H70.5962V45.8974H73.9983V42.8291Z" fill="#5AFB38"/>
<path d="M70.5962 42.8291H67.1941V45.8974H70.5962V42.8291Z" fill="#5AFB38"/>
<path d="M67.2029 42.8291H63.8008V45.8974H67.2029V42.8291Z" fill="black"/>
<path d="M63.8008 42.8291H60.3987V45.8974H63.8008V42.8291Z" fill="black"/>
<path d="M60.3987 42.8291H56.9966V45.8974H60.3987V42.8291Z" fill="white"/>
<path d="M56.9966 42.8291H53.5945V45.8974H56.9966V42.8291Z" fill="#5AFB38"/>
<path d="M53.603 42.8291H50.2009V45.8974H53.603V42.8291Z" fill="#5AFB38"/>
<path d="M50.2009 42.8291H46.7988V45.8974H50.2009V42.8291Z" fill="#5AFB38"/>
<path d="M46.7988 42.8291H43.3967V45.8974H46.7988V42.8291Z" fill="#5AFB38"/>
<path d="M43.3967 42.8291H39.9946V45.8974H43.3967V42.8291Z" fill="#5AFB38"/>
<path d="M40.0034 42.8291H36.6013V45.8974H40.0034V42.8291Z" fill="#5AFB38"/>
<path d="M36.6013 42.8291H33.1992V45.8974H36.6013V42.8291Z" fill="#5AFB38"/>
<path d="M33.1992 42.8291H29.7971V45.8974H33.1992V42.8291Z" fill="#5AFB38"/>
<path d="M29.7971 42.8291H26.395V45.8974H29.7971V42.8291Z" fill="#5AFB38"/>
<path d="M26.4038 42.8291H23.0017V45.8974H26.4038V42.8291Z" fill="#5AFB38"/>
<path d="M23.0017 42.8291H19.5996V45.8974H23.0017V42.8291Z" fill="#5AFB38"/>
<path d="M19.5996 42.8291H16.1975V45.8974H19.5996V42.8291Z" fill="#5AFB38"/>
<path d="M16.1975 42.8291H12.7954V45.8974H16.1975V42.8291Z" fill="#5AFB38"/>
<path d="M12.8042 42.8291H9.4021V45.8974H12.8042V42.8291Z" fill="white"/>
<path d="M9.4021 42.8291H6V45.8974H9.4021V42.8291Z" fill="black"/>
<path d="M91 39.7607H87.5979V42.8291H91V39.7607Z" fill="black"/>
<path d="M87.5979 39.7607H84.1958V42.8291H87.5979V39.7607Z" fill="white"/>
<path d="M84.1958 39.7607H80.7937V42.8291H84.1958V39.7607Z" fill="#5AFB38"/>
<path d="M80.8025 39.7607H77.4004V42.8291H80.8025V39.7607Z" fill="#5AFB38"/>
<path d="M77.4004 39.7607H73.9983V42.8291H77.4004V39.7607Z" fill="#5AFB38"/>
<path d="M73.9983 39.7607H70.5962V42.8291H73.9983V39.7607Z" fill="#5AFB38"/>
<path d="M70.5962 39.7607H67.1941V42.8291H70.5962V39.7607Z" fill="#5AFB38"/>
<path d="M67.2029 39.7607H63.8008V42.8291H67.2029V39.7607Z" fill="#5AFB38"/>
<path d="M63.8008 39.7607H60.3987V42.8291H63.8008V39.7607Z" fill="black"/>
<path d="M60.3987 39.7607H56.9966V42.8291H60.3987V39.7607Z" fill="white"/>
<path d="M56.9966 39.7607H53.5945V42.8291H56.9966V39.7607Z" fill="#5AFB38"/>
<path d="M53.603 39.7607H50.2009V42.8291H53.603V39.7607Z" fill="#5AFB38"/>
<path d="M50.2009 39.7607H46.7988V42.8291H50.2009V39.7607Z" fill="#5AFB38"/>
<path d="M46.7988 39.7607H43.3967V42.8291H46.7988V39.7607Z" fill="#5AFB38"/>
<path d="M43.3967 39.7607H39.9946V42.8291H43.3967V39.7607Z" fill="#5AFB38"/>
<path d="M40.0034 39.7607H36.6013V42.8291H40.0034V39.7607Z" fill="#5AFB38"/>
<path d="M36.6013 39.7607H33.1992V42.8291H36.6013V39.7607Z" fill="#5AFB38"/>
<path d="M33.1992 39.7607H29.7971V42.8291H33.1992V39.7607Z" fill="#5AFB38"/>
<path d="M29.7971 39.7607H26.395V42.8291H29.7971V39.7607Z" fill="#5AFB38"/>
<path d="M26.4038 39.7607H23.0017V42.8291H26.4038V39.7607Z" fill="#5AFB38"/>
<path d="M23.0017 39.7607H19.5996V42.8291H23.0017V39.7607Z" fill="#5AFB38"/>
<path d="M19.5996 39.7607H16.1975V42.8291H19.5996V39.7607Z" fill="#5AFB38"/>
<path d="M16.1975 39.7607H12.7954V42.8291H16.1975V39.7607Z" fill="#5AFB38"/>
<path d="M12.8042 39.7607H9.4021V42.8291H12.8042V39.7607Z" fill="white"/>
<path d="M9.4021 39.7607H6V42.8291H9.4021V39.7607Z" fill="black"/>
<path d="M91 36.6924H87.5979V39.7607H91V36.6924Z" fill="black"/>
<path d="M87.5979 36.6924H84.1958V39.7607H87.5979V36.6924Z" fill="white"/>
<path d="M84.1958 36.6924H80.7937V39.7607H84.1958V36.6924Z" fill="#5AFB38"/>
<path d="M80.8025 36.6924H77.4004V39.7607H80.8025V36.6924Z" fill="#5AFB38"/>
<path d="M77.4004 36.6924H73.9983V39.7607H77.4004V36.6924Z" fill="#5AFB38"/>
<path d="M73.9983 36.6924H70.5962V39.7607H73.9983V36.6924Z" fill="#5AFB38"/>
<path d="M70.5962 36.6924H67.1941V39.7607H70.5962V36.6924Z" fill="#5AFB38"/>
<path d="M67.2029 36.6924H63.8008V39.7607H67.2029V36.6924Z" fill="#5AFB38"/>
<path d="M63.8008 36.6924H60.3987V39.7607H63.8008V36.6924Z" fill="black"/>
<path d="M60.3987 36.6924H56.9966V39.7607H60.3987V36.6924Z" fill="black"/>
<path d="M56.9966 36.6924H53.5945V39.7607H56.9966V36.6924Z" fill="white"/>
<path d="M53.603 36.6924H50.2009V39.7607H53.603V36.6924Z" fill="#5AFB38"/>
<path d="M50.2009 36.6924H46.7988V39.7607H50.2009V36.6924Z" fill="#5AFB38"/>
<path d="M46.7988 36.6924H43.3967V39.7607H46.7988V36.6924Z" fill="#5AFB38"/>
<path d="M43.3967 36.6924H39.9946V39.7607H43.3967V36.6924Z" fill="#5AFB38"/>
<path d="M40.0034 36.6924H36.6013V39.7607H40.0034V36.6924Z" fill="#5AFB38"/>
<path d="M36.6013 36.6924H33.1992V39.7607H36.6013V36.6924Z" fill="#5AFB38"/>
<path d="M33.1992 36.6924H29.7971V39.7607H33.1992V36.6924Z" fill="#5AFB38"/>
<path d="M29.7971 36.6924H26.395V39.7607H29.7971V36.6924Z" fill="#5AFB38"/>
<path d="M26.4038 36.6924H23.0017V39.7607H26.4038V36.6924Z" fill="#5AFB38"/>
<path d="M23.0017 36.6924H19.5996V39.7607H23.0017V36.6924Z" fill="#5AFB38"/>
<path d="M19.5996 36.6924H16.1975V39.7607H19.5996V36.6924Z" fill="#5AFB38"/>
<path d="M16.1975 36.6924H12.7954V39.7607H16.1975V36.6924Z" fill="#5AFB38"/>
<path d="M12.8042 36.6924H9.4021V39.7607H12.8042V36.6924Z" fill="white"/>
<path d="M9.4021 36.6924H6V39.7607H9.4021V36.6924Z" fill="black"/>
<path d="M91 33.6243H87.5979V36.6926H91V33.6243Z" fill="black"/>
<path d="M87.5979 33.6243H84.1958V36.6926H87.5979V33.6243Z" fill="white"/>
<path d="M84.1958 33.6243H80.7937V36.6926H84.1958V33.6243Z" fill="#5AFB38"/>
<path d="M80.8025 33.6243H77.4004V36.6926H80.8025V33.6243Z" fill="#5AFB38"/>
<path d="M77.4004 33.6243H73.9983V36.6926H77.4004V33.6243Z" fill="#5AFB38"/>
<path d="M73.9983 33.6243H70.5962V36.6926H73.9983V33.6243Z" fill="#5AFB38"/>
<path d="M70.5962 33.6243H67.1941V36.6926H70.5962V33.6243Z" fill="#5AFB38"/>
<path d="M67.2029 33.6243H63.8008V36.6926H67.2029V33.6243Z" fill="#5AFB38"/>
<path d="M63.8008 33.6243H60.3987V36.6926H63.8008V33.6243Z" fill="#5AFB38"/>
<path d="M60.3987 33.6243H56.9966V36.6926H60.3987V33.6243Z" fill="black"/>
<path d="M56.9966 33.6243H53.5945V36.6926H56.9966V33.6243Z" fill="black"/>
<path d="M53.603 33.6243H50.2009V36.6926H53.603V33.6243Z" fill="white"/>
<path d="M50.2009 33.6243H46.7988V36.6926H50.2009V33.6243Z" fill="#5AFB38"/>
<path d="M46.7988 33.6243H43.3967V36.6926H46.7988V33.6243Z" fill="#5AFB38"/>
<path d="M43.3967 33.6243H39.9946V36.6926H43.3967V33.6243Z" fill="#5AFB38"/>
<path d="M40.0034 33.6243H36.6013V36.6926H40.0034V33.6243Z" fill="#5AFB38"/>
<path d="M36.6013 33.6243H33.1992V36.6926H36.6013V33.6243Z" fill="#5AFB38"/>
<path d="M33.1992 33.6243H29.7971V36.6926H33.1992V33.6243Z" fill="#5AFB38"/>
<path d="M29.7971 33.6243H26.395V36.6926H29.7971V33.6243Z" fill="#5AFB38"/>
<path d="M26.4038 33.6243H23.0017V36.6926H26.4038V33.6243Z" fill="#5AFB38"/>
<path d="M23.0017 33.6243H19.5996V36.6926H23.0017V33.6243Z" fill="#5AFB38"/>
<path d="M19.5996 33.6243H16.1975V36.6926H19.5996V33.6243Z" fill="#5AFB38"/>
<path d="M16.1975 33.6243H12.7954V36.6926H16.1975V33.6243Z" fill="#5AFB38"/>
<path d="M12.8042 33.6243H9.4021V36.6926H12.8042V33.6243Z" fill="white"/>
<path d="M9.4021 33.6243H6V36.6926H9.4021V33.6243Z" fill="black"/>
<path d="M91 30.5559H87.5979V33.6242H91V30.5559Z" fill="black"/>
<path d="M87.5979 30.5559H84.1958V33.6242H87.5979V30.5559Z" fill="white"/>
<path d="M84.1958 30.5559H80.7937V33.6242H84.1958V30.5559Z" fill="#5AFB38"/>
<path d="M80.8025 30.5559H77.4004V33.6242H80.8025V30.5559Z" fill="#5AFB38"/>
<path d="M77.4004 30.5559H73.9983V33.6242H77.4004V30.5559Z" fill="#5AFB38"/>
<path d="M73.9983 30.5559H70.5962V33.6242H73.9983V30.5559Z" fill="#5AFB38"/>
<path d="M70.5962 30.5559H67.1941V33.6242H70.5962V30.5559Z" fill="#5AFB38"/>
<path d="M67.2029 30.5559H63.8008V33.6242H67.2029V30.5559Z" fill="#5AFB38"/>
<path d="M63.8008 30.5559H60.3987V33.6242H63.8008V30.5559Z" fill="#5AFB38"/>
<path d="M60.3987 30.5559H56.9966V33.6242H60.3987V30.5559Z" fill="#5AFB38"/>
<path d="M56.9966 30.5559H53.5945V33.6242H56.9966V30.5559Z" fill="black"/>
<path d="M53.603 30.5559H50.2009V33.6242H53.603V30.5559Z" fill="black"/>
<path d="M50.2009 30.5559H46.7988V33.6242H50.2009V30.5559Z" fill="white"/>
<path d="M46.7988 30.5559H43.3967V33.6242H46.7988V30.5559Z" fill="#5AFB38"/>
<path d="M43.3967 30.5559H39.9946V33.6242H43.3967V30.5559Z" fill="#5AFB38"/>
<path d="M40.0034 30.5559H36.6013V33.6242H40.0034V30.5559Z" fill="#5AFB38"/>
<path d="M36.6013 30.5559H33.1992V33.6242H36.6013V30.5559Z" fill="#5AFB38"/>
<path d="M33.1992 30.5559H29.7971V33.6242H33.1992V30.5559Z" fill="#5AFB38"/>
<path d="M29.7971 30.5559H26.395V33.6242H29.7971V30.5559Z" fill="#5AFB38"/>
<path d="M26.4038 30.5559H23.0017V33.6242H26.4038V30.5559Z" fill="#5AFB38"/>
<path d="M23.0017 30.5559H19.5996V33.6242H23.0017V30.5559Z" fill="#5AFB38"/>
<path d="M19.5996 30.5559H16.1975V33.6242H19.5996V30.5559Z" fill="#5AFB38"/>
<path d="M16.1975 30.5559H12.7954V33.6242H16.1975V30.5559Z" fill="#5AFB38"/>
<path d="M12.8042 30.5559H9.4021V33.6242H12.8042V30.5559Z" fill="white"/>
<path d="M9.4021 30.5559H6V33.6242H9.4021V30.5559Z" fill="black"/>
<path d="M91 27.4783H87.5979V30.5466H91V27.4783Z" fill="black"/>
<path d="M87.5979 27.4783H84.1958V30.5466H87.5979V27.4783Z" fill="white"/>
<path d="M84.1958 27.4783H80.7937V30.5466H84.1958V27.4783Z" fill="#5AFB38"/>
<path d="M80.8025 27.4783H77.4004V30.5466H80.8025V27.4783Z" fill="#5AFB38"/>
<path d="M77.4004 27.4783H73.9983V30.5466H77.4004V27.4783Z" fill="#5AFB38"/>
<path d="M73.9983 27.4783H70.5962V30.5466H73.9983V27.4783Z" fill="#5AFB38"/>
<path d="M70.5962 27.4783H67.1941V30.5466H70.5962V27.4783Z" fill="#5AFB38"/>
<path d="M67.2029 27.4783H63.8008V30.5466H67.2029V27.4783Z" fill="#5AFB38"/>
<path d="M63.8008 27.4783H60.3987V30.5466H63.8008V27.4783Z" fill="#5AFB38"/>
<path d="M60.3987 27.4783H56.9966V30.5466H60.3987V27.4783Z" fill="#5AFB38"/>
<path d="M56.9966 27.4783H53.5945V30.5466H56.9966V27.4783Z" fill="#5AFB38"/>
<path d="M53.603 27.4783H50.2009V30.5466H53.603V27.4783Z" fill="black"/>
<path d="M50.2009 27.4783H46.7988V30.5466H50.2009V27.4783Z" fill="white"/>
<path d="M46.7988 27.4783H43.3967V30.5466H46.7988V27.4783Z" fill="#5AFB38"/>
<path d="M43.3967 27.4783H39.9946V30.5466H43.3967V27.4783Z" fill="#5AFB38"/>
<path d="M40.0034 27.4783H36.6013V30.5466H40.0034V27.4783Z" fill="#5AFB38"/>
<path d="M36.6013 27.4783H33.1992V30.5466H36.6013V27.4783Z" fill="#5AFB38"/>
<path d="M33.1992 27.4783H29.7971V30.5466H33.1992V27.4783Z" fill="#5AFB38"/>
<path d="M29.7971 27.4783H26.395V30.5466H29.7971V27.4783Z" fill="#5AFB38"/>
<path d="M26.4038 27.4783H23.0017V30.5466H26.4038V27.4783Z" fill="#5AFB38"/>
<path d="M23.0017 27.4783H19.5996V30.5466H23.0017V27.4783Z" fill="#5AFB38"/>
<path d="M19.5996 27.4783H16.1975V30.5466H19.5996V27.4783Z" fill="#5AFB38"/>
<path d="M16.1975 27.4783H12.7954V30.5466H16.1975V27.4783Z" fill="#5AFB38"/>
<path d="M12.8042 27.4783H9.4021V30.5466H12.8042V27.4783Z" fill="white"/>
<path d="M9.4021 27.4783H6V30.5466H9.4021V27.4783Z" fill="black"/>
<path d="M91 24.4099H87.5979V27.4782H91V24.4099Z" fill="black"/>
<path d="M87.5979 24.4099H84.1958V27.4782H87.5979V24.4099Z" fill="white"/>
<path d="M84.1958 24.4099H80.7937V27.4782H84.1958V24.4099Z" fill="#5AFB38"/>
<path d="M80.8025 24.4099H77.4004V27.4782H80.8025V24.4099Z" fill="#5AFB38"/>
<path d="M77.4004 24.4099H73.9983V27.4782H77.4004V24.4099Z" fill="#5AFB38"/>
<path d="M73.9983 24.4099H70.5962V27.4782H73.9983V24.4099Z" fill="#5AFB38"/>
<path d="M70.5962 24.4099H67.1941V27.4782H70.5962V24.4099Z" fill="#5AFB38"/>
<path d="M67.2029 24.4099H63.8008V27.4782H67.2029V24.4099Z" fill="#5AFB38"/>
<path d="M63.8008 24.4099H60.3987V27.4782H63.8008V24.4099Z" fill="#5AFB38"/>
<path d="M60.3987 24.4099H56.9966V27.4782H60.3987V24.4099Z" fill="#5AFB38"/>
<path d="M56.9966 24.4099H53.5945V27.4782H56.9966V24.4099Z" fill="#5AFB38"/>
<path d="M53.603 24.4099H50.2009V27.4782H53.603V24.4099Z" fill="#5AFB38"/>
<path d="M50.2009 24.4099H46.7988V27.4782H50.2009V24.4099Z" fill="#5AFB38"/>
<path d="M46.7988 24.4099H43.3967V27.4782H46.7988V24.4099Z" fill="#5AFB38"/>
<path d="M43.3967 24.4099H39.9946V27.4782H43.3967V24.4099Z" fill="#5AFB38"/>
<path d="M40.0034 24.4099H36.6013V27.4782H40.0034V24.4099Z" fill="#5AFB38"/>
<path d="M36.6013 24.4099H33.1992V27.4782H36.6013V24.4099Z" fill="#5AFB38"/>
<path d="M33.1992 24.4099H29.7971V27.4782H33.1992V24.4099Z" fill="#5AFB38"/>
<path d="M29.7971 24.4099H26.395V27.4782H29.7971V24.4099Z" fill="#5AFB38"/>
<path d="M26.4038 24.4099H23.0017V27.4782H26.4038V24.4099Z" fill="#5AFB38"/>
<path d="M23.0017 24.4099H19.5996V27.4782H23.0017V24.4099Z" fill="#5AFB38"/>
<path d="M19.5996 24.4099H16.1975V27.4782H19.5996V24.4099Z" fill="#5AFB38"/>
<path d="M16.1975 24.4099H12.7954V27.4782H16.1975V24.4099Z" fill="#5AFB38"/>
<path d="M12.8042 24.4099H9.4021V27.4782H12.8042V24.4099Z" fill="white"/>
<path d="M9.4021 24.4099H6V27.4782H9.4021V24.4099Z" fill="black"/>
<path d="M91 21.3418H87.5979V24.4101H91V21.3418Z" fill="black"/>
<path d="M87.5979 21.3418H84.1958V24.4101H87.5979V21.3418Z" fill="white"/>
<path d="M84.1958 21.3418H80.7937V24.4101H84.1958V21.3418Z" fill="#5AFB38"/>
<path d="M80.8025 21.3418H77.4004V24.4101H80.8025V21.3418Z" fill="#5AFB38"/>
<path d="M77.4004 21.3418H73.9983V24.4101H77.4004V21.3418Z" fill="#5AFB38"/>
<path d="M73.9983 21.3418H70.5962V24.4101H73.9983V21.3418Z" fill="#5AFB38"/>
<path d="M70.5962 21.3418H67.1941V24.4101H70.5962V21.3418Z" fill="#5AFB38"/>
<path d="M67.2029 21.3418H63.8008V24.4101H67.2029V21.3418Z" fill="#5AFB38"/>
<path d="M63.8008 21.3418H60.3987V24.4101H63.8008V21.3418Z" fill="#5AFB38"/>
<path d="M60.3987 21.3418H56.9966V24.4101H60.3987V21.3418Z" fill="#5AFB38"/>
<path d="M56.9966 21.3418H53.5945V24.4101H56.9966V21.3418Z" fill="#5AFB38"/>
<path d="M53.603 21.3418H50.2009V24.4101H53.603V21.3418Z" fill="#5AFB38"/>
<path d="M50.2009 21.3418H46.7988V24.4101H50.2009V21.3418Z" fill="#5AFB38"/>
<path d="M46.7988 21.3418H43.3967V24.4101H46.7988V21.3418Z" fill="#5AFB38"/>
<path d="M43.3967 21.3418H39.9946V24.4101H43.3967V21.3418Z" fill="#5AFB38"/>
<path d="M40.0034 21.3418H36.6013V24.4101H40.0034V21.3418Z" fill="#5AFB38"/>
<path d="M36.6013 21.3418H33.1992V24.4101H36.6013V21.3418Z" fill="#5AFB38"/>
<path d="M33.1992 21.3418H29.7971V24.4101H33.1992V21.3418Z" fill="#5AFB38"/>
<path d="M29.7971 21.3418H26.395V24.4101H29.7971V21.3418Z" fill="#5AFB38"/>
<path d="M26.4038 21.3418H23.0017V24.4101H26.4038V21.3418Z" fill="#5AFB38"/>
<path d="M23.0017 21.3418H19.5996V24.4101H23.0017V21.3418Z" fill="#5AFB38"/>
<path d="M19.5996 21.3418H16.1975V24.4101H19.5996V21.3418Z" fill="#5AFB38"/>
<path d="M16.1975 21.3418H12.7954V24.4101H16.1975V21.3418Z" fill="#5AFB38"/>
<path d="M12.8042 21.3418H9.4021V24.4101H12.8042V21.3418Z" fill="white"/>
<path d="M9.4021 21.3418H6V24.4101H9.4021V21.3418Z" fill="black"/>
<path d="M91 18.2734H87.5979V21.3418H91V18.2734Z" fill="black"/>
<path d="M87.5979 18.2734H84.1958V21.3418H87.5979V18.2734Z" fill="white"/>
<path d="M84.1958 18.2734H80.7937V21.3418H84.1958V18.2734Z" fill="#5AFB38"/>
<path d="M80.8025 18.2734H77.4004V21.3418H80.8025V18.2734Z" fill="#5AFB38"/>
<path d="M77.4004 18.2734H73.9983V21.3418H77.4004V18.2734Z" fill="#5AFB38"/>
<path d="M73.9983 18.2734H70.5962V21.3418H73.9983V18.2734Z" fill="#5AFB38"/>
<path d="M70.5962 18.2734H67.1941V21.3418H70.5962V18.2734Z" fill="#5AFB38"/>
<path d="M67.2029 18.2734H63.8008V21.3418H67.2029V18.2734Z" fill="#5AFB38"/>
<path d="M63.8008 18.2734H60.3987V21.3418H63.8008V18.2734Z" fill="#5AFB38"/>
<path d="M60.3987 18.2734H56.9966V21.3418H60.3987V18.2734Z" fill="#5AFB38"/>
<path d="M56.9966 18.2734H53.5945V21.3418H56.9966V18.2734Z" fill="#5AFB38"/>
<path d="M53.603 18.2734H50.2009V21.3418H53.603V18.2734Z" fill="#5AFB38"/>
<path d="M50.2009 18.2734H46.7988V21.3418H50.2009V18.2734Z" fill="#5AFB38"/>
<path d="M46.7988 18.2734H43.3967V21.3418H46.7988V18.2734Z" fill="#5AFB38"/>
<path d="M43.3967 18.2734H39.9946V21.3418H43.3967V18.2734Z" fill="#5AFB38"/>
<path d="M40.0034 18.2734H36.6013V21.3418H40.0034V18.2734Z" fill="#5AFB38"/>
<path d="M36.6013 18.2734H33.1992V21.3418H36.6013V18.2734Z" fill="#5AFB38"/>
<path d="M33.1992 18.2734H29.7971V21.3418H33.1992V18.2734Z" fill="#5AFB38"/>
<path d="M29.7971 18.2734H26.395V21.3418H29.7971V18.2734Z" fill="#5AFB38"/>
<path d="M26.4038 18.2734H23.0017V21.3418H26.4038V18.2734Z" fill="#5AFB38"/>
<path d="M23.0017 18.2734H19.5996V21.3418H23.0017V18.2734Z" fill="#5AFB38"/>
<path d="M19.5996 18.2734H16.1975V21.3418H19.5996V18.2734Z" fill="#5AFB38"/>
<path d="M16.1975 18.2734H12.7954V21.3418H16.1975V18.2734Z" fill="#5AFB38"/>
<path d="M12.8042 18.2734H9.4021V21.3418H12.8042V18.2734Z" fill="white"/>
<path d="M9.4021 18.2734H6V21.3418H9.4021V18.2734Z" fill="black"/>
<path d="M91 15.2051H87.5979V18.2734H91V15.2051Z" fill="black"/>
<path d="M87.5979 15.2051H84.1958V18.2734H87.5979V15.2051Z" fill="black"/>
<path d="M84.1958 15.2051H80.7937V18.2734H84.1958V15.2051Z" fill="white"/>
<path d="M80.8025 15.2051H77.4004V18.2734H80.8025V15.2051Z" fill="#5AFB38"/>
<path d="M77.4004 15.2051H73.9983V18.2734H77.4004V15.2051Z" fill="#5AFB38"/>
<path d="M73.9983 15.2051H70.5962V18.2734H73.9983V15.2051Z" fill="#5AFB38"/>
<path d="M70.5962 15.2051H67.1941V18.2734H70.5962V15.2051Z" fill="#5AFB38"/>
<path d="M67.2029 15.2051H63.8008V18.2734H67.2029V15.2051Z" fill="#5AFB38"/>
<path d="M63.8008 15.2051H60.3987V18.2734H63.8008V15.2051Z" fill="#5AFB38"/>
<path d="M60.3987 15.2051H56.9966V18.2734H60.3987V15.2051Z" fill="#5AFB38"/>
<path d="M56.9966 15.2051H53.5945V18.2734H56.9966V15.2051Z" fill="#5AFB38"/>
<path d="M53.603 15.2051H50.2009V18.2734H53.603V15.2051Z" fill="#5AFB38"/>
<path d="M50.2009 15.2051H46.7988V18.2734H50.2009V15.2051Z" fill="#5AFB38"/>
<path d="M46.7988 15.2051H43.3967V18.2734H46.7988V15.2051Z" fill="#5AFB38"/>
<path d="M43.3967 15.2051H39.9946V18.2734H43.3967V15.2051Z" fill="#5AFB38"/>
<path d="M40.0034 15.2051H36.6013V18.2734H40.0034V15.2051Z" fill="#5AFB38"/>
<path d="M36.6013 15.2051H33.1992V18.2734H36.6013V15.2051Z" fill="#5AFB38"/>
<path d="M33.1992 15.2051H29.7971V18.2734H33.1992V15.2051Z" fill="#5AFB38"/>
<path d="M29.7971 15.2051H26.395V18.2734H29.7971V15.2051Z" fill="#5AFB38"/>
<path d="M26.4038 15.2051H23.0017V18.2734H26.4038V15.2051Z" fill="#5AFB38"/>
<path d="M23.0017 15.2051H19.5996V18.2734H23.0017V15.2051Z" fill="#5AFB38"/>
<path d="M19.5996 15.2051H16.1975V18.2734H19.5996V15.2051Z" fill="#5AFB38"/>
<path d="M16.1975 15.2051H12.7954V18.2734H16.1975V15.2051Z" fill="white"/>
<path d="M12.8042 15.2051H9.4021V18.2734H12.8042V15.2051Z" fill="black"/>
<path d="M9.4021 15.2051H6V18.2734H9.4021V15.2051Z" fill="black"/>
<path d="M87.5979 12.1367H84.1958V15.2051H87.5979V12.1367Z" fill="black"/>
<path d="M84.1958 12.1367H80.7937V15.2051H84.1958V12.1367Z" fill="black"/>
<path d="M80.8025 12.1367H77.4004V15.2051H80.8025V12.1367Z" fill="white"/>
<path d="M77.4004 12.1367H73.9983V15.2051H77.4004V12.1367Z" fill="#5AFB38"/>
<path d="M73.9983 12.1367H70.5962V15.2051H73.9983V12.1367Z" fill="#5AFB38"/>
<path d="M70.5962 12.1367H67.1941V15.2051H70.5962V12.1367Z" fill="#5AFB38"/>
<path d="M67.2029 12.1367H63.8008V15.2051H67.2029V12.1367Z" fill="#5AFB38"/>
<path d="M63.8008 12.1367H60.3987V15.2051H63.8008V12.1367Z" fill="#5AFB38"/>
<path d="M60.3987 12.1367H56.9966V15.2051H60.3987V12.1367Z" fill="#5AFB38"/>
<path d="M56.9966 12.1367H53.5945V15.2051H56.9966V12.1367Z" fill="#5AFB38"/>
<path d="M53.603 12.1367H50.2009V15.2051H53.603V12.1367Z" fill="#5AFB38"/>
<path d="M50.2009 12.1367H46.7988V15.2051H50.2009V12.1367Z" fill="#5AFB38"/>
<path d="M46.7988 12.1367H43.3967V15.2051H46.7988V12.1367Z" fill="#5AFB38"/>
<path d="M43.3967 12.1367H39.9946V15.2051H43.3967V12.1367Z" fill="#5AFB38"/>
<path d="M40.0034 12.1367H36.6013V15.2051H40.0034V12.1367Z" fill="#5AFB38"/>
<path d="M36.6013 12.1367H33.1992V15.2051H36.6013V12.1367Z" fill="#5AFB38"/>
<path d="M33.1992 12.1367H29.7971V15.2051H33.1992V12.1367Z" fill="#5AFB38"/>
<path d="M29.7971 12.1367H26.395V15.2051H29.7971V12.1367Z" fill="#5AFB38"/>
<path d="M26.4038 12.1367H23.0017V15.2051H26.4038V12.1367Z" fill="#5AFB38"/>
<path d="M23.0017 12.1367H19.5996V15.2051H23.0017V12.1367Z" fill="#5AFB38"/>
<path d="M19.5996 12.1367H16.1975V15.2051H19.5996V12.1367Z" fill="white"/>
<path d="M16.1975 12.1367H12.7954V15.2051H16.1975V12.1367Z" fill="black"/>
<path d="M12.8042 12.1367H9.4021V15.2051H12.8042V12.1367Z" fill="black"/>
<path d="M84.1958 9.06836H80.7937V12.1367H84.1958V9.06836Z" fill="black"/>
<path d="M80.8025 9.06836H77.4004V12.1367H80.8025V9.06836Z" fill="black"/>
<path d="M77.4004 9.06836H73.9983V12.1367H77.4004V9.06836Z" fill="white"/>
<path d="M73.9983 9.06836H70.5962V12.1367H73.9983V9.06836Z" fill="white"/>
<path d="M70.5962 9.06836H67.1941V12.1367H70.5962V9.06836Z" fill="white"/>
<path d="M67.2029 9.06836H63.8008V12.1367H67.2029V9.06836Z" fill="white"/>
<path d="M63.8008 9.06836H60.3987V12.1367H63.8008V9.06836Z" fill="white"/>
<path d="M60.3987 9.06836H56.9966V12.1367H60.3987V9.06836Z" fill="white"/>
<path d="M56.9966 9.06836H53.5945V12.1367H56.9966V9.06836Z" fill="white"/>
<path d="M53.603 9.06836H50.2009V12.1367H53.603V9.06836Z" fill="white"/>
<path d="M50.2009 9.06836H46.7988V12.1367H50.2009V9.06836Z" fill="white"/>
<path d="M46.7988 9.06836H43.3967V12.1367H46.7988V9.06836Z" fill="white"/>
<path d="M43.3967 9.06836H39.9946V12.1367H43.3967V9.06836Z" fill="white"/>
<path d="M40.0034 9.06836H36.6013V12.1367H40.0034V9.06836Z" fill="white"/>
<path d="M36.6013 9.06836H33.1992V12.1367H36.6013V9.06836Z" fill="white"/>
<path d="M33.1992 9.06836H29.7971V12.1367H33.1992V9.06836Z" fill="white"/>
<path d="M29.7971 9.06836H26.395V12.1367H29.7971V9.06836Z" fill="white"/>
<path d="M26.4038 9.06836H23.0017V12.1367H26.4038V9.06836Z" fill="white"/>
<path d="M23.0017 9.06836H19.5996V12.1367H23.0017V9.06836Z" fill="white"/>
<path d="M19.5996 9.06836H16.1975V12.1367H19.5996V9.06836Z" fill="black"/>
<path d="M16.1975 9.06836H12.7954V12.1367H16.1975V9.06836Z" fill="black"/>
<path d="M80.8025 6H77.4004V9.06834H80.8025V6Z" fill="black"/>
<path d="M77.4004 6H73.9983V9.06834H77.4004V6Z" fill="black"/>
<path d="M73.9983 6H70.5962V9.06834H73.9983V6Z" fill="black"/>
<path d="M70.5962 6H67.1941V9.06834H70.5962V6Z" fill="black"/>
<path d="M67.2029 6H63.8008V9.06834H67.2029V6Z" fill="black"/>
<path d="M63.8008 6H60.3987V9.06834H63.8008V6Z" fill="black"/>
<path d="M60.3987 6H56.9966V9.06834H60.3987V6Z" fill="black"/>
<path d="M56.9966 6H53.5945V9.06834H56.9966V6Z" fill="black"/>
<path d="M53.603 6H50.2009V9.06834H53.603V6Z" fill="black"/>
<path d="M50.2009 6H46.7988V9.06834H50.2009V6Z" fill="black"/>
<path d="M46.7988 6H43.3967V9.06834H46.7988V6Z" fill="black"/>
<path d="M43.3967 6H39.9946V9.06834H43.3967V6Z" fill="black"/>
<path d="M40.0034 6H36.6013V9.06834H40.0034V6Z" fill="black"/>
<path d="M36.6013 6H33.1992V9.06834H36.6013V6Z" fill="black"/>
<path d="M33.1992 6H29.7971V9.06834H33.1992V6Z" fill="black"/>
<path d="M29.7971 6H26.395V9.06834H29.7971V6Z" fill="black"/>
<path d="M26.4038 6H23.0017V9.06834H26.4038V6Z" fill="black"/>
<path d="M23.0017 6H19.5996V9.06834H23.0017V6Z" fill="black"/>
<path d="M19.5996 6H16.1975V9.06834H19.5996V6Z" fill="black"/>
</g>
<rect x="3" y="3" width="91" height="95" rx="11" stroke="#FC4198" stroke-width="6"/>
<defs>
<clipPath id="clip0_2105_263221">
<rect x="6" y="6" width="85" height="89" rx="8" fill="white"/>
</clipPath>
</defs>
</svg>
