<svg width="888" height="594" viewBox="0 0 888 594" fill="none" xmlns="http://www.w3.org/2000/svg">
<path d="M3.34515 591C1.50363 591 0 589.355 0 587.345V4.61851C0 2.6265 1.50363 1 3.34515 1H879.621C881.48 1 883 2.6265 883 4.61851V587.345C883 589.355 881.48 591 879.621 591H3.34515Z" fill="white"/>
<path d="M885.639 40.511H0.157715V112.955H885.639V40.511Z" fill="#CCCFE0"/>
<path d="M865.067 34.0515V590.649H883.448C884.654 590.649 885.639 589.585 885.639 588.282V34.0515H865.067Z" fill="#CCCFE0"/>
<path d="M863.25 112.973H0.157715V119.432H863.25V112.973Z" fill="white"/>
<path d="M864.659 112.973H858.68V590.685H864.659V112.973Z" fill="white"/>
<path d="M885.639 114.368V588.686C885.639 589.786 884.653 590.667 883.447 590.667H865.067V114.368H885.639ZM887.983 111.817H862.706V593.199H883.43C885.944 593.199 887.983 591.163 887.983 588.667V111.817Z" fill="#001226"/>
<path d="M885.639 3.18765C885.639 1.88483 884.653 0.820557 883.447 0.820557H2.34908C1.14298 0.820557 0.157715 1.88483 0.157715 3.18765V40.5107H885.639V3.18765Z" fill="#2A21F8"/>
<path d="M885.639 114.368V133.286H865.067V114.368H885.639ZM888 111.817H862.706V135.818H888V111.817Z" fill="#001226"/>
<path d="M875.362 129.103L882.564 119.524H868.142L875.362 129.103Z" fill="#001226"/>
<path d="M885.639 570.446V590.667H865.067V570.446H885.639ZM888 567.914H862.706V593.236H888V567.914Z" fill="#001226"/>
<path d="M875.362 575.162L868.142 584.74H882.564L875.362 575.162Z" fill="#001226"/>
<path d="M885.656 39.2444H0.157715V41.795H885.656V39.2444Z" fill="#001226"/>
<path d="M842.729 8.85718H816.552V35.6659H842.729V8.85718Z" fill="#001226"/>
<path d="M876.635 8.85718H850.458V35.6659H876.635V8.85718Z" fill="#001226"/>
<path d="M840.181 5.66455H814.003V32.4733H840.181V5.66455Z" fill="#CCCFE0"/>
<path d="M834.558 25.959H819.643V28.2894H834.558V25.959Z" fill="#001226"/>
<path d="M874.104 5.66455H847.927V32.4733H874.104V5.66455Z" fill="#FF7FA2"/>
<path d="M854.359 10.2491L852.833 11.897L867.752 28.012L869.277 26.3642L854.359 10.2491Z" fill="#001226"/>
<path d="M867.706 10.1943L852.787 26.3093L854.313 27.9572L869.232 11.8421L867.706 10.1943Z" fill="#001226"/>
<path d="M814.003 5.66455V32.4733H816.144V7.683H840.181V5.66455H814.003Z" fill="#E9EAF4"/>
<path d="M847.927 5.66455V32.4733H850.067V7.683H874.104V5.66455H847.927Z" fill="#E9EAF4"/>
<path d="M806.441 53.4104H54.8705C51.0063 53.4104 47.8738 56.3022 47.8738 59.8694V93.6326C47.8738 97.1999 51.0063 100.092 54.8705 100.092H806.441C810.305 100.092 813.438 97.1999 813.438 93.6326V59.8694C813.438 56.3022 810.305 53.4104 806.441 53.4104Z" fill="white"/>
<path d="M55.4267 57.2456H811.41C813.278 57.2456 814.809 58.6585 814.809 60.3834V98.2202C814.809 99.945 813.278 101.358 811.41 101.358H55.4267C53.5582 101.358 52.0277 99.945 52.0277 98.2202V60.3834C52.0277 58.6585 53.5582 57.2456 55.4267 57.2456Z" fill="white"/>
<path d="M811.43 58.5115C812.543 58.5115 813.458 59.3556 813.458 60.3831V98.2199C813.458 99.2475 812.563 100.092 811.43 100.092H55.427C54.3139 100.092 53.3995 99.2659 53.3995 98.2199V60.3831C53.3995 59.3556 54.294 58.5115 55.427 58.5115H811.41H811.43ZM811.43 55.9792H55.427C52.8032 55.9792 50.6565 57.961 50.6565 60.3831V98.2199C50.6565 100.642 52.8032 102.624 55.427 102.624H811.41C814.054 102.624 816.181 100.642 816.181 98.2199V60.3831C816.181 57.9426 814.034 55.9792 811.41 55.9792H811.43Z" fill="#001226"/>
<path d="M885.656 111.707H0.157715V114.258H885.656V111.707Z" fill="#001226"/>
<path d="M817.299 171.941V537.361C817.299 538.823 816.297 540 815.09 540H59.0528C57.8297 540 56.8615 538.802 56.8615 537.361V171.941C56.8615 170.52 57.8297 169.323 59.0528 169.323H815.09C816.314 169.323 817.299 170.52 817.299 171.941Z" fill="#001226"/>
<path d="M53.6167 534.702C51.765 534.702 50.2532 532.875 50.2532 530.642V165.222C50.2532 163.01 51.765 161.203 53.6167 161.203H809.654C811.523 161.203 813.052 163.01 813.052 165.222V530.642C813.052 532.875 811.523 534.702 809.654 534.702H53.6167Z" fill="white"/>
<path d="M809.655 162.604C810.878 162.604 811.863 163.802 811.863 165.223V530.643C811.863 532.104 810.861 533.282 809.655 533.282H53.6168C52.3937 533.282 51.4254 532.084 51.4254 530.643V165.223C51.4254 163.802 52.3937 162.604 53.6168 162.604H809.655ZM809.655 159.803H53.6168C51.1027 159.803 49.0642 162.239 49.0642 165.243V530.663C49.0642 533.667 51.1027 536.123 53.6168 536.123H809.655C812.169 536.123 814.224 533.667 814.224 530.663V165.223C814.224 162.219 812.169 159.783 809.655 159.783V159.803Z" fill="#001226"/>
<path d="M811.863 165.222V530.642C811.863 532.104 810.861 533.281 809.654 533.281H53.6168C52.3937 533.281 51.4254 532.084 51.4254 530.642V165.222C51.4254 163.802 52.3937 162.604 53.6168 162.604H809.654C810.878 162.604 811.863 163.802 811.863 165.222Z" fill="white"/>
</svg>
