<svg width="52" height="772" viewBox="0 0 52 772" fill="none" xmlns="http://www.w3.org/2000/svg">
<g clip-path="url(#clip0_2040_8001)">
<path d="M49.0001 744.292H40.0791V753.214H49.0001V744.292Z" fill="white"/>
<path d="M40.0651 753.214H31.144V762.135H40.0651V753.214Z" fill="white"/>
<path d="M31.1442 762.148H22.2231V771.069H31.1442V762.148Z" fill="white"/>
<path d="M22.2094 753.214H13.2883V762.135H22.2094V753.214Z" fill="white"/>
<path d="M13.2882 744.292H4.36719V753.214H13.2882V744.292Z" fill="white"/>
<path d="M49.0001 699.604H40.0791V708.525H49.0001V699.604Z" fill="white"/>
<path d="M40.0651 708.539H31.144V717.46H40.0651V708.539Z" fill="white"/>
<path d="M31.1442 717.46H22.2231V726.381H31.1442V717.46Z" fill="white"/>
<path d="M22.2094 708.539H13.2883V717.46H22.2094V708.539Z" fill="white"/>
<path d="M13.2882 699.604H4.36719V708.525H13.2882V699.604Z" fill="white"/>
<path d="M49.0001 654.93H40.0791V663.851H49.0001V654.93Z" fill="white"/>
<path d="M40.0651 663.851H31.144V672.772H40.0651V663.851Z" fill="white"/>
<path d="M31.1442 672.772H22.2231V681.693H31.1442V672.772Z" fill="white"/>
<path d="M22.2094 663.851H13.2883V672.772H22.2094V663.851Z" fill="white"/>
<path d="M13.2882 654.93H4.36719V663.851H13.2882V654.93Z" fill="white"/>
<path d="M49.0001 610.242H40.0791V619.163H49.0001V610.242Z" fill="white"/>
<path d="M40.0651 619.163H31.144V628.084H40.0651V619.163Z" fill="white"/>
<path d="M31.1442 628.098H22.2231V637.019H31.1442V628.098Z" fill="white"/>
<path d="M22.2094 619.163H13.2883V628.084H22.2094V619.163Z" fill="white"/>
<path d="M13.2882 610.242H4.36719V619.163H13.2882V610.242Z" fill="white"/>
</g>
<g clip-path="url(#clip1_2040_8001)">
<path d="M2.99985 27.0189L11.9209 27.0189L11.9209 18.0979L2.99985 18.0979L2.99985 27.0189Z" fill="white"/>
<path d="M11.9349 18.0979L20.856 18.0979L20.856 9.17686L11.9349 9.17686L11.9349 18.0979Z" fill="white"/>
<path d="M20.8558 9.16309L29.7769 9.16309L29.7769 0.242044L20.8558 0.242044L20.8558 9.16309Z" fill="white"/>
<path d="M29.7906 18.0979L38.7117 18.0979L38.7117 9.17686L29.7906 9.17686L29.7906 18.0979Z" fill="white"/>
<path d="M38.7118 27.0189L47.6328 27.0189L47.6328 18.0979L38.7118 18.0979L38.7118 27.0189Z" fill="white"/>
<path d="M2.99985 71.707L11.9209 71.707L11.9209 62.786L2.99985 62.786L2.99985 71.707Z" fill="white"/>
<path d="M11.9349 62.7722L20.856 62.7722L20.856 53.8512L11.9349 53.8512L11.9349 62.7722Z" fill="white"/>
<path d="M20.8558 53.8511L29.7769 53.8511L29.7769 44.93L20.8558 44.93L20.8558 53.8511Z" fill="white"/>
<path d="M29.7906 62.7722L38.7117 62.7722L38.7117 53.8512L29.7906 53.8512L29.7906 62.7722Z" fill="white"/>
<path d="M38.7118 71.707L47.6328 71.707L47.6328 62.786L38.7118 62.786L38.7118 71.707Z" fill="white"/>
<path d="M2.99985 116.381L11.9209 116.381L11.9209 107.46L2.99985 107.46L2.99985 116.381Z" fill="white"/>
<path d="M11.9349 107.46L20.856 107.46L20.856 98.5392L11.9349 98.5392L11.9349 107.46Z" fill="white"/>
<path d="M20.8558 98.5392L29.7769 98.5392L29.7769 89.6181L20.8558 89.6181L20.8558 98.5392Z" fill="white"/>
<path d="M29.7906 107.46L38.7117 107.46L38.7117 98.5392L29.7906 98.5392L29.7906 107.46Z" fill="white"/>
<path d="M38.7118 116.381L47.6328 116.381L47.6328 107.46L38.7118 107.46L38.7118 116.381Z" fill="white"/>
<path d="M2.99985 161.069L11.9209 161.069L11.9209 152.148L2.99985 152.148L2.99985 161.069Z" fill="white"/>
<path d="M11.9349 152.148L20.856 152.148L20.856 143.227L11.9349 143.227L11.9349 152.148Z" fill="white"/>
<path d="M20.8558 143.213L29.7769 143.213L29.7769 134.292L20.8558 134.292L20.8558 143.213Z" fill="white"/>
<path d="M29.7906 152.148L38.7117 152.148L38.7117 143.227L29.7906 143.227L29.7906 152.148Z" fill="white"/>
<path d="M38.7118 161.069L47.6328 161.069L47.6328 152.148L38.7118 152.148L38.7118 161.069Z" fill="white"/>
</g>
<path d="M26.4468 298.593H33.6339L36.3192 309.808C36.6615 311.177 36.9774 312.56 37.267 313.955C37.3986 314.455 37.5302 315.034 37.6619 315.692C37.8198 316.351 38.0041 317.101 38.2147 317.943H38.3727C38.6096 317.022 38.8071 316.193 38.965 315.456C39.1493 314.692 39.3073 314.034 39.4389 313.481C39.6759 312.27 39.9523 311.046 40.2682 309.808L42.8745 298.593H49.8247L42.2427 324.262H34.0288L26.4468 298.593Z" fill="white"/>
<path d="M14.119 324.736C11.8813 324.736 9.82781 324.249 7.95863 323.275C6.11577 322.274 4.64148 320.787 3.53577 318.812C2.43005 316.838 1.8772 314.442 1.8772 311.625C1.8772 308.861 2.44322 306.465 3.57526 304.438C4.73363 302.384 6.2474 300.818 8.11659 299.739C10.0121 298.659 12.0656 298.12 14.277 298.12C15.8566 298.12 17.3309 298.435 18.6999 299.067C20.0688 299.699 21.2535 300.515 22.2539 301.516L18.6999 305.86C17.989 305.228 17.3045 304.754 16.6464 304.438C15.9882 304.122 15.2511 303.964 14.435 303.964C13.4345 303.964 12.5 304.267 11.6312 304.872C10.7887 305.478 10.1042 306.347 9.57771 307.479C9.07751 308.584 8.8274 309.887 8.8274 311.388C8.8274 313.757 9.32761 315.6 10.328 316.917C11.3284 318.233 12.6711 318.891 14.356 318.891C16.0935 318.891 17.6468 318.154 19.0158 316.68L22.5699 320.945C21.4905 322.208 20.2268 323.156 18.7788 323.788C17.3572 324.42 15.8039 324.736 14.119 324.736Z" fill="white"/>
<path d="M34.3265 297.716L37.1708 309.595L37.4245 310.633C37.673 311.672 37.906 312.718 38.1246 313.771C38.1823 313.992 38.2398 314.227 38.2969 314.474C38.4033 314.031 38.5003 313.633 38.5848 313.278C38.8236 312.061 39.101 310.832 39.4178 309.591L42.1773 297.716H50.9991L42.898 325.139H33.3727L33.1876 324.51L25.2725 297.716H34.3265ZM26.4465 298.593L34.0291 324.262H42.2424L49.825 298.593H42.874L40.268 309.809C39.9521 311.046 39.6762 312.27 39.4393 313.481C39.3076 314.034 39.1496 314.692 38.9653 315.455L38.8394 316.025C38.7061 316.613 38.55 317.252 38.3723 317.943H38.2146C38.0041 317.101 37.8198 316.351 37.6619 315.693C37.5302 315.035 37.3984 314.455 37.2668 313.955C36.9772 312.56 36.6612 311.178 36.319 309.809L33.634 298.593H26.4465Z" fill="white"/>
<path d="M8.82769 311.388C8.82769 309.888 9.07736 308.584 9.57755 307.479C10.104 306.347 10.7886 305.478 11.6309 304.873C12.4997 304.267 13.4345 303.964 14.4349 303.964L14.7374 303.972C15.4341 304.006 16.0702 304.162 16.6459 304.438C17.3041 304.754 17.9893 305.228 18.7001 305.86L22.254 301.516C21.3788 300.64 20.3622 299.906 19.2049 299.313L18.7001 299.067C17.4168 298.475 16.0405 298.16 14.572 298.123L14.2772 298.119C12.0658 298.119 10.0119 298.659 8.11639 299.738C6.24721 300.818 4.7336 302.385 3.57524 304.438C2.44327 306.465 1.8776 308.861 1.87755 311.625L1.88355 312.148C1.94834 314.74 2.49921 316.961 3.53581 318.812C4.64152 320.787 6.11587 322.274 7.95871 323.275C9.71098 324.188 11.6252 324.673 13.7014 324.73L14.1187 324.736C15.8036 324.736 17.3573 324.42 18.779 323.788C20.2268 323.156 21.4901 322.208 22.5694 320.944L19.0155 316.68C17.6466 318.154 16.0935 318.891 14.3561 318.891V318.014C15.8103 318.013 17.1412 317.409 18.3728 316.083L19.0515 315.352L23.7178 320.951L23.237 321.514C22.0772 322.872 20.7085 323.901 19.1346 324.589C17.5918 325.275 15.916 325.613 14.1187 325.613C11.7489 325.613 9.55533 325.096 7.55335 324.053L7.53964 324.046C5.53961 322.96 3.94967 321.348 2.76967 319.241C1.57484 317.107 1 314.555 1 311.625C1.00005 308.739 1.5914 306.191 2.80909 304.01L2.81081 304.007C4.03892 301.83 5.6602 300.144 7.67761 298.979L7.6819 298.976C9.71164 297.82 11.9157 297.242 14.2772 297.242C15.9775 297.242 17.5781 297.583 19.0678 298.27C20.5245 298.943 21.7962 299.817 22.8745 300.895L23.4358 301.457L18.8004 307.123L18.1165 306.515C17.4495 305.922 16.8323 305.501 16.2663 305.229C15.74 304.976 15.1351 304.842 14.4349 304.842C13.6248 304.842 12.8637 305.083 12.1331 305.592C11.44 306.094 10.8472 306.831 10.3737 307.849C9.93799 308.816 9.70524 309.988 9.70524 311.388C9.70525 313.646 10.1831 315.276 11.0267 316.386C11.8575 317.479 12.9394 318.014 14.3561 318.014V318.891L14.0441 318.883C12.6072 318.811 11.4322 318.236 10.5194 317.156L10.3283 316.917C9.39037 315.682 8.89143 313.986 8.83283 311.826L8.82769 311.388Z" fill="white"/>
<path d="M46.3717 457.204V474.533C46.3717 474.958 46.0937 475.307 45.7544 475.307H38.6248C38.2856 475.307 38.0075 474.958 38.0075 474.533V458.418C38.0075 454.176 36.8007 451.281 33.7698 451.281C31.4563 451.281 30.0827 453.227 29.4765 455.118C29.254 455.795 29.1984 456.729 29.1984 457.678V474.533C29.1984 474.958 28.9204 475.307 28.5811 475.307H21.4515C21.1067 475.307 20.8342 474.958 20.8342 474.533C20.8509 470.242 20.9232 449.425 20.8509 444.528C20.8453 444.096 21.1234 443.747 21.4682 443.747H28.5811C28.9204 443.747 29.1984 444.096 29.1984 444.521V448.219C29.1817 448.253 29.1595 448.288 29.1428 448.323H29.1984V448.219C30.3107 446.07 32.2905 443.007 36.7395 443.007C42.2452 443.007 46.3717 447.521 46.3717 457.211V457.204ZM8.46032 475.3H15.5899C15.9292 475.3 16.2072 474.951 16.2072 474.526V444.514C16.2072 444.089 15.9292 443.74 15.5899 443.74H8.46032C8.12108 443.74 7.84302 444.089 7.84302 444.514V474.526C7.84302 474.951 8.12108 475.3 8.46032 475.3Z" fill="white"/>
<path d="M13.476 439.3C15.7623 438.12 16.8525 434.837 15.9111 431.97C14.9697 429.102 12.3532 427.734 10.0669 428.915C7.78063 430.096 6.6904 433.378 7.6318 436.246C8.57319 439.114 11.1897 440.481 13.476 439.3Z" fill="white"/>
<g clip-path="url(#clip2_2040_8001)">
<path d="M26.6973 355.789C12.6462 355.403 0.933286 366.483 0.547147 380.545C0.161009 394.607 11.241 406.309 25.3029 406.695C39.3648 407.081 51.067 396.001 51.4531 381.939C51.8392 367.888 40.7485 356.175 26.6973 355.789ZM30.7839 396.602C29.9795 396.73 29.7113 396.237 29.7221 395.819C29.7328 395.304 29.8079 393.609 29.8615 391.496C29.9044 390.027 29.4217 389.051 28.8747 388.546C32.3821 388.257 36.0933 387.023 36.2542 380.974C36.2971 379.258 35.7287 377.831 34.7526 376.705C34.9242 376.308 35.5034 374.72 34.7097 372.532C34.7097 372.532 33.4011 372.071 30.3549 374.023C29.1107 373.637 27.7699 373.433 26.4399 373.38C25.0991 373.348 23.7584 373.487 22.4927 373.798C19.5537 371.674 18.2237 372.06 18.2237 372.06C17.312 374.206 17.8054 375.825 17.9556 376.222C16.9151 377.295 16.2716 378.689 16.2179 380.405C16.057 386.444 19.6825 387.892 23.1577 388.386C22.6965 388.772 22.2674 389.447 22.1066 390.466C21.2056 390.842 18.9102 391.475 17.5694 389.029C17.5694 389.029 16.7864 387.495 15.2097 387.334C15.2097 387.334 13.6759 387.27 15.081 388.289C15.081 388.289 16.1 388.804 16.765 390.638C16.765 390.638 17.6016 393.727 21.9993 392.89C21.9671 394.21 21.9564 395.197 21.9457 395.572C21.9349 395.99 21.6346 396.473 20.8516 396.301C14.6734 394.049 10.3293 388.021 10.5224 381.06C10.7584 372.361 17.9877 365.496 26.6544 365.743C35.3211 365.989 42.1643 373.23 41.9283 381.928C41.7353 388.89 37.0802 394.66 30.7947 396.58L30.7839 396.602Z" fill="white" stroke="white" stroke-miterlimit="10"/>
</g>
<defs>
<clipPath id="clip0_2040_8001">
<rect width="46" height="160.827" fill="white" transform="translate(3 610.242)"/>
</clipPath>
<clipPath id="clip1_2040_8001">
<rect width="46" height="160.827" fill="white" transform="translate(49 161.069) rotate(-180)"/>
</clipPath>
<clipPath id="clip2_2040_8001">
<rect width="52" height="52" fill="white" transform="translate(0 355.242)"/>
</clipPath>
</defs>
</svg>
